<svg width="24" height="24" viewBox="0 0 24 24" fill="none" xmlns="http://www.w3.org/2000/svg">
<path d="M7 11.0194L17 11.0194C17.1903 11.0197 17.3767 10.9657 17.5373 10.8637C17.698 10.7617 17.8262 10.616 17.907 10.4437C17.9877 10.2714 18.0176 10.0797 17.9932 9.89098C17.9687 9.70227 17.891 9.52446 17.769 9.37841L12.769 3.37841C12.6752 3.26552 12.5576 3.17467 12.4247 3.11233C12.2918 3.04998 12.1468 3.01766 12 3.01766C11.8532 3.01766 11.7082 3.04998 11.5753 3.11233C11.4424 3.17467 11.3248 3.26552 11.231 3.37841L6.231 9.37841C6.10903 9.52445 6.03126 9.70227 6.00682 9.89098C5.98239 10.0797 6.0123 10.2714 6.09304 10.4437C6.17378 10.616 6.30201 10.7617 6.46266 10.8637C6.62331 10.9657 6.80972 11.0197 7 11.0194Z" fill="#CBCBCB"/>
<path d="M11.5793 20.9126C11.4469 20.8538 11.3282 20.7679 11.231 20.6604L6.23101 14.6604C6.10904 14.5144 6.03126 14.3366 6.00683 14.1478C5.98239 13.9591 6.0123 13.7674 6.09304 13.5951C6.17378 13.4228 6.30201 13.2771 6.46266 13.1751C6.62331 13.0732 6.80972 13.0191 7 13.0194L17 13.0194C17.1903 13.0191 17.3767 13.0732 17.5373 13.1751C17.698 13.2771 17.8262 13.4228 17.907 13.5951C17.9877 13.7674 18.0176 13.9591 17.9932 14.1478C17.9687 14.3366 17.891 14.5144 17.769 14.6604L12.769 20.6604C12.6718 20.7679 12.5531 20.8538 12.4207 20.9126C12.2882 20.9713 12.1449 21.0017 12 21.0017C11.8551 21.0017 11.7118 20.9713 11.5793 20.9126Z" fill="#1A9375"/>
</svg>
