<svg width="447" height="229" viewBox="0 0 447 229" fill="none" xmlns="http://www.w3.org/2000/svg">
<rect x="0.5" y="0.5" width="446" height="228" rx="4.5" fill="#F0F2F5"/>
<rect x="0.5" y="0.5" width="446" height="228" rx="4.5" stroke="#9747FF" stroke-dasharray="10 5"/>
<path d="M20 24C20 21.7909 21.7909 20 24 20H96C98.2091 20 100 21.7909 100 24V48C100 50.2091 98.2091 52 96 52H24C21.7909 52 20 50.2091 20 48V24Z" fill="#181B1E" fill-opacity="0.75"/>
<path d="M41.9961 34.6526C41.9982 33.8655 41.8452 33.0856 41.5459 32.3576C41.2467 31.6295 40.8069 30.9676 40.2518 30.4095C39.1307 29.2824 37.6078 28.6468 36.0181 28.6426C34.4284 28.6384 32.9021 29.2658 31.775 30.3869C30.6479 31.508 30.0123 33.0309 30.0081 34.6206C29.994 36.4674 30.5301 38.2766 31.5481 39.8176C32.5661 41.3586 34.0198 42.5616 35.7241 43.2733C35.8112 43.3127 35.9058 43.3329 36.0014 43.3326C36.0977 43.3328 36.193 43.3123 36.2807 43.2726C37.9798 42.5631 39.43 41.3651 40.4474 39.8305C41.4649 38.2959 42.0039 36.4938 41.9961 34.6526ZM36.0014 41.9326C34.596 41.3139 33.4043 40.2945 32.5752 39.002C31.7461 37.7095 31.3165 36.2013 31.3401 34.6659C31.3401 34.0538 31.4607 33.4477 31.6949 32.8821C31.9292 32.3166 32.2725 31.8027 32.7054 31.3699C33.1382 30.937 33.6521 30.5937 34.2176 30.3594C34.7831 30.1252 35.3893 30.0046 36.0014 30.0046C36.6136 30.0046 37.2197 30.1252 37.7852 30.3594C38.3508 30.5937 38.8646 30.937 39.2975 31.3699C39.7303 31.8027 40.0737 32.3166 40.3079 32.8821C40.5422 33.4477 40.6627 34.0538 40.6627 34.6659C40.6627 34.6799 40.6627 34.6959 40.6627 34.7093C40.6789 36.2375 40.2457 37.7369 39.417 39.0211C38.5883 40.3053 37.4006 41.3177 36.0014 41.9326ZM36.0014 31.9993C35.474 31.9993 34.9584 32.1557 34.5199 32.4487C34.0814 32.7417 33.7396 33.1582 33.5377 33.6454C33.3359 34.1327 33.2831 34.6689 33.386 35.1862C33.4889 35.7035 33.7429 36.1786 34.1158 36.5516C34.4887 36.9245 34.9639 37.1785 35.4812 37.2814C35.9985 37.3843 36.5346 37.3314 37.0219 37.1296C37.5092 36.9278 37.9257 36.586 38.2187 36.1475C38.5117 35.7089 38.6681 35.1933 38.6681 34.6659C38.6681 33.9587 38.3871 33.2804 37.887 32.7803C37.3869 32.2802 36.7087 31.9993 36.0014 31.9993ZM36.0014 35.9993C35.7377 35.9993 35.4799 35.9211 35.2607 35.7746C35.0414 35.6281 34.8705 35.4198 34.7696 35.1762C34.6687 34.9325 34.6423 34.6645 34.6937 34.4058C34.7451 34.1472 34.8721 33.9096 35.0586 33.7231C35.2451 33.5367 35.4827 33.4097 35.7413 33.3582C35.9999 33.3068 36.268 33.3332 36.5117 33.4341C36.7553 33.535 36.9635 33.7059 37.11 33.9252C37.2565 34.1444 37.3347 34.4022 37.3347 34.6659C37.3347 35.0196 37.1943 35.3587 36.9442 35.6087C36.6942 35.8588 36.355 35.9993 36.0014 35.9993Z" fill="white"/>
<g clip-path="url(#clip0_13830_98891)">
<path d="M61.8234 34.4672C62.2899 34.9337 63.0461 34.9337 63.5125 34.4672C63.9789 34.0008 63.9789 33.2446 63.5125 32.7782C63.0461 32.3117 62.2899 32.3117 61.8234 32.7782C61.357 33.2446 61.357 34.0008 61.8234 34.4672Z" fill="white"/>
<path fill-rule="evenodd" clip-rule="evenodd" d="M59.7121 30.6668C61.3446 29.0343 63.9914 29.0343 65.6239 30.6668C67.2563 32.2993 67.2563 34.9461 65.6239 36.5786C64.7146 37.4878 63.4904 37.8902 62.3039 37.7872L60.7678 39.3233C60.6558 39.4353 60.5039 39.4983 60.3455 39.4983L59.2536 39.4983L59.2536 40.5902C59.2536 40.92 58.9862 41.1873 58.6564 41.1873L57.5645 41.1873L57.5645 42.2792C57.5645 42.609 57.2971 42.8764 56.9673 42.8764L54.0114 42.8764C53.6816 42.8764 53.4143 42.609 53.4143 42.2792L53.4143 39.3233C53.4143 39.165 53.4772 39.0131 53.5892 38.9011L58.5035 33.9867C58.4004 32.8003 58.8028 31.5761 59.7121 30.6668ZM64.7793 31.5114C63.6133 30.3453 61.7227 30.3453 60.5566 31.5114C59.8505 32.2175 59.5715 33.1889 59.7213 34.1067C59.7522 34.2963 59.69 34.4893 59.5542 34.6252L54.6086 39.5707L54.6086 41.6821L56.3702 41.6821L56.3702 40.5902C56.3702 40.2603 56.6375 39.993 56.9673 39.993L58.0592 39.993L58.0592 38.9011C58.0592 38.5713 58.3266 38.3039 58.6564 38.3039L60.0981 38.3039L61.6655 36.7365C61.8014 36.6006 61.9943 36.5384 62.184 36.5694C63.1018 36.7192 64.0732 36.4402 64.7793 35.7341C65.9454 34.568 65.9454 32.6774 64.7793 31.5114Z" fill="white"/>
</g>
<path d="M85.3346 30.0007C85.3346 29.6325 85.6331 29.334 86.0013 29.334H88.0013C88.3695 29.334 88.668 29.6325 88.668 30.0007C88.668 30.3688 88.3695 30.6673 88.0013 30.6673H86.0013C85.6331 30.6673 85.3346 30.3688 85.3346 30.0007Z" fill="white"/>
<path fill-rule="evenodd" clip-rule="evenodd" d="M78.0013 31.334C77.2649 31.334 76.668 31.9309 76.668 32.6673V41.334C76.668 42.0704 77.2649 42.6673 78.0013 42.6673H90.0013C90.7377 42.6673 91.3346 42.0704 91.3346 41.334V32.6673C91.3346 31.9309 90.7377 31.334 90.0013 31.334H78.0013ZM90.0013 32.6673H78.0013L78.0013 41.334H90.0013V32.6673Z" fill="white"/>
<path d="M80.0013 29.334C79.6331 29.334 79.3346 29.6325 79.3346 30.0007C79.3346 30.3688 79.6331 30.6673 80.0013 30.6673H82.0013C82.3695 30.6673 82.668 30.3688 82.668 30.0007C82.668 29.6325 82.3695 29.334 82.0013 29.334H80.0013Z" fill="white"/>
<rect x="78.668" y="33.334" width="10.6667" height="7.33333" fill="#00B397"/>
<path d="M20 128C20 125.791 21.7909 124 24 124H96C98.2091 124 100 125.791 100 128V152C100 154.209 98.2091 156 96 156H24C21.7909 156 20 154.209 20 152V128Z" fill="#181B1E" fill-opacity="0.75"/>
<path d="M41.9961 138.653C41.9982 137.865 41.8452 137.086 41.5459 136.358C41.2467 135.63 40.8069 134.968 40.2518 134.41C39.1307 133.282 37.6078 132.647 36.0181 132.643C34.4284 132.638 32.9021 133.266 31.775 134.387C30.6479 135.508 30.0123 137.031 30.0081 138.621C29.994 140.467 30.5301 142.277 31.5481 143.818C32.5661 145.359 34.0198 146.562 35.7241 147.273C35.8112 147.313 35.9058 147.333 36.0014 147.333C36.0977 147.333 36.193 147.312 36.2807 147.273C37.9798 146.563 39.43 145.365 40.4474 143.831C41.4649 142.296 42.0039 140.494 41.9961 138.653ZM36.0014 145.933C34.596 145.314 33.4043 144.295 32.5752 143.002C31.7461 141.71 31.3165 140.201 31.3401 138.666C31.3401 138.054 31.4607 137.448 31.6949 136.882C31.9292 136.317 32.2725 135.803 32.7054 135.37C33.1382 134.937 33.6521 134.594 34.2176 134.359C34.7831 134.125 35.3893 134.005 36.0014 134.005C36.6136 134.005 37.2197 134.125 37.7852 134.359C38.3508 134.594 38.8646 134.937 39.2975 135.37C39.7303 135.803 40.0737 136.317 40.3079 136.882C40.5422 137.448 40.6627 138.054 40.6627 138.666C40.6627 138.68 40.6627 138.696 40.6627 138.709C40.6789 140.238 40.2457 141.737 39.417 143.021C38.5883 144.305 37.4006 145.318 36.0014 145.933ZM36.0014 135.999C35.474 135.999 34.9584 136.156 34.5199 136.449C34.0814 136.742 33.7396 137.158 33.5377 137.645C33.3359 138.133 33.2831 138.669 33.386 139.186C33.4889 139.703 33.7429 140.179 34.1158 140.552C34.4887 140.924 34.9639 141.178 35.4812 141.281C35.9985 141.384 36.5346 141.331 37.0219 141.13C37.5092 140.928 37.9257 140.586 38.2187 140.147C38.5117 139.709 38.6681 139.193 38.6681 138.666C38.6681 137.959 38.3871 137.28 37.887 136.78C37.3869 136.28 36.7087 135.999 36.0014 135.999ZM36.0014 139.999C35.7377 139.999 35.4799 139.921 35.2607 139.775C35.0414 139.628 34.8705 139.42 34.7696 139.176C34.6687 138.933 34.6423 138.664 34.6937 138.406C34.7451 138.147 34.8721 137.91 35.0586 137.723C35.2451 137.537 35.4827 137.41 35.7413 137.358C35.9999 137.307 36.268 137.333 36.5117 137.434C36.7553 137.535 36.9635 137.706 37.11 137.925C37.2565 138.144 37.3347 138.402 37.3347 138.666C37.3347 139.02 37.1943 139.359 36.9442 139.609C36.6942 139.859 36.355 139.999 36.0014 139.999Z" fill="white"/>
<path d="M61.5693 138.466C62.0357 138.933 62.792 138.933 63.2584 138.466C63.7248 138 63.7248 137.244 63.2584 136.777C62.792 136.311 62.0357 136.311 61.5693 136.777C61.1029 137.244 61.1029 138 61.5693 138.466Z" fill="white"/>
<path fill-rule="evenodd" clip-rule="evenodd" d="M65.3697 134.666C63.7373 133.033 61.0905 133.033 59.458 134.666C58.5487 135.575 58.1463 136.799 58.2494 137.986L57.9236 138.311L54.2648 134.653L53.322 135.595L63.9744 146.248L64.9172 145.305L61.724 142.112L62.0498 141.786C63.2363 141.889 64.4605 141.487 65.3697 140.578C67.0022 138.945 67.0022 136.298 65.3697 134.666ZM60.8795 141.267L61.4114 140.735C61.5473 140.6 61.7402 140.537 61.9299 140.568C62.8477 140.718 63.8191 140.439 64.5252 139.733C65.6913 138.567 65.6913 136.676 64.5252 135.51C63.3591 134.344 61.4686 134.344 60.3025 135.51C59.5964 136.216 59.3174 137.188 59.4672 138.106C59.4981 138.295 59.4359 138.488 59.3001 138.624L58.7681 139.156L60.8795 141.267Z" fill="white"/>
<path d="M59.0488 143.209L58.1839 142.344C57.9621 142.431 57.8051 142.647 57.8051 142.9V143.992H56.7132C56.3834 143.992 56.116 144.259 56.116 144.589V145.681H54.3545V143.57L56.882 141.042L56.0375 140.198L53.3351 142.9C53.2231 143.012 53.1602 143.164 53.1602 143.322V146.278C53.1602 146.608 53.4275 146.875 53.7573 146.875H56.7132C57.043 146.875 57.3104 146.608 57.3104 146.278V145.186H58.4023C58.7321 145.186 58.9995 144.919 58.9995 144.589V143.79C58.9995 143.595 59.016 143.401 59.0488 143.209Z" fill="white"/>
<path d="M85.3346 134.001C85.3346 133.632 85.6331 133.334 86.0013 133.334H88.0013C88.3695 133.334 88.668 133.632 88.668 134.001C88.668 134.369 88.3695 134.667 88.0013 134.667H86.0013C85.6331 134.667 85.3346 134.369 85.3346 134.001Z" fill="white"/>
<path fill-rule="evenodd" clip-rule="evenodd" d="M78.0013 135.334C77.2649 135.334 76.668 135.931 76.668 136.667V145.334C76.668 146.07 77.2649 146.667 78.0013 146.667H90.0013C90.7377 146.667 91.3346 146.07 91.3346 145.334V136.667C91.3346 135.931 90.7377 135.334 90.0013 135.334H78.0013ZM90.0013 136.667H78.0013L78.0013 145.334H90.0013V136.667Z" fill="white"/>
<path d="M80.0013 133.334C79.6331 133.334 79.3346 133.632 79.3346 134.001C79.3346 134.369 79.6331 134.667 80.0013 134.667H82.0013C82.3695 134.667 82.668 134.369 82.668 134.001C82.668 133.632 82.3695 133.334 82.0013 133.334H80.0013Z" fill="white"/>
<rect x="78.668" y="137.334" width="10.6667" height="7.33333" fill="#00B397"/>
<path d="M158 24C158 21.7909 159.791 20 162 20H234C236.209 20 238 21.7909 238 24V48C238 50.2091 236.209 52 234 52H162C159.791 52 158 50.2091 158 48V24Z" fill="#181B1E" fill-opacity="0.75"/>
<path d="M179.996 34.6526C179.998 33.8655 179.845 33.0856 179.546 32.3576C179.247 31.6295 178.807 30.9676 178.252 30.4095C177.131 29.2824 175.608 28.6468 174.018 28.6426C172.428 28.6384 170.902 29.2658 169.775 30.3869C168.648 31.508 168.012 33.0309 168.008 34.6206C167.994 36.4674 168.53 38.2766 169.548 39.8176C170.566 41.3586 172.02 42.5616 173.724 43.2733C173.811 43.3127 173.906 43.3329 174.001 43.3326C174.098 43.3328 174.193 43.3123 174.281 43.2726C175.98 42.5631 177.43 41.3651 178.447 39.8305C179.465 38.2959 180.004 36.4938 179.996 34.6526ZM174.001 41.9326C172.596 41.3139 171.404 40.2945 170.575 39.002C169.746 37.7095 169.316 36.2013 169.34 34.6659C169.34 34.0538 169.461 33.4477 169.695 32.8821C169.929 32.3166 170.273 31.8027 170.705 31.3699C171.138 30.937 171.652 30.5937 172.218 30.3594C172.783 30.1252 173.389 30.0046 174.001 30.0046C174.614 30.0046 175.22 30.1252 175.785 30.3594C176.351 30.5937 176.865 30.937 177.297 31.3699C177.73 31.8027 178.074 32.3166 178.308 32.8821C178.542 33.4477 178.663 34.0538 178.663 34.6659C178.663 34.6799 178.663 34.6959 178.663 34.7093C178.679 36.2375 178.246 37.7369 177.417 39.0211C176.588 40.3053 175.401 41.3177 174.001 41.9326ZM174.001 31.9993C173.474 31.9993 172.958 32.1557 172.52 32.4487C172.081 32.7417 171.74 33.1582 171.538 33.6454C171.336 34.1327 171.283 34.6689 171.386 35.1862C171.489 35.7035 171.743 36.1786 172.116 36.5516C172.489 36.9245 172.964 37.1785 173.481 37.2814C173.998 37.3843 174.535 37.3314 175.022 37.1296C175.509 36.9278 175.926 36.586 176.219 36.1475C176.512 35.7089 176.668 35.1933 176.668 34.6659C176.668 33.9587 176.387 33.2804 175.887 32.7803C175.387 32.2802 174.709 31.9993 174.001 31.9993ZM174.001 35.9993C173.738 35.9993 173.48 35.9211 173.261 35.7746C173.041 35.6281 172.87 35.4198 172.77 35.1762C172.669 34.9325 172.642 34.6645 172.694 34.4058C172.745 34.1472 172.872 33.9096 173.059 33.7231C173.245 33.5367 173.483 33.4097 173.741 33.3582C174 33.3068 174.268 33.3332 174.512 33.4341C174.755 33.535 174.964 33.7059 175.11 33.9252C175.257 34.1444 175.335 34.4022 175.335 34.6659C175.335 35.0196 175.194 35.3587 174.944 35.6087C174.694 35.8588 174.355 35.9993 174.001 35.9993Z" fill="white"/>
<g clip-path="url(#clip1_13830_98891)">
<path d="M199.823 34.4672C200.29 34.9337 201.046 34.9337 201.513 34.4672C201.979 34.0008 201.979 33.2446 201.513 32.7782C201.046 32.3117 200.29 32.3117 199.823 32.7782C199.357 33.2446 199.357 34.0008 199.823 34.4672Z" fill="white"/>
<path fill-rule="evenodd" clip-rule="evenodd" d="M197.712 30.6668C199.345 29.0343 201.991 29.0343 203.624 30.6668C205.256 32.2993 205.256 34.9461 203.624 36.5786C202.715 37.4878 201.49 37.8902 200.304 37.7872L198.768 39.3233C198.656 39.4353 198.504 39.4983 198.345 39.4983L197.254 39.4983L197.254 40.5902C197.254 40.92 196.986 41.1873 196.656 41.1873L195.565 41.1873L195.565 42.2792C195.565 42.609 195.297 42.8764 194.967 42.8764L192.011 42.8764C191.682 42.8764 191.414 42.609 191.414 42.2792L191.414 39.3233C191.414 39.165 191.477 39.0131 191.589 38.9011L196.504 33.9867C196.4 32.8003 196.803 31.5761 197.712 30.6668ZM202.779 31.5114C201.613 30.3453 199.723 30.3453 198.557 31.5114C197.851 32.2175 197.571 33.1889 197.721 34.1067C197.752 34.2963 197.69 34.4893 197.554 34.6252L192.609 39.5707L192.609 41.6821L194.37 41.6821L194.37 40.5902C194.37 40.2603 194.638 39.993 194.967 39.993L196.059 39.993L196.059 38.9011C196.059 38.5713 196.327 38.3039 196.656 38.3039L198.098 38.3039L199.666 36.7365C199.801 36.6006 199.994 36.5384 200.184 36.5694C201.102 36.7192 202.073 36.4402 202.779 35.7341C203.945 34.568 203.945 32.6774 202.779 31.5114Z" fill="white"/>
</g>
<path d="M223.335 30.0007C223.335 29.6325 223.633 29.334 224.001 29.334H226.001C226.369 29.334 226.668 29.6325 226.668 30.0007C226.668 30.3688 226.369 30.6673 226.001 30.6673H224.001C223.633 30.6673 223.335 30.3688 223.335 30.0007Z" fill="white"/>
<path fill-rule="evenodd" clip-rule="evenodd" d="M216.001 31.334C215.265 31.334 214.668 31.9309 214.668 32.6673V41.334C214.668 42.0704 215.265 42.6673 216.001 42.6673H228.001C228.738 42.6673 229.335 42.0704 229.335 41.334V32.6673C229.335 31.9309 228.738 31.334 228.001 31.334H216.001ZM228.001 32.6673H216.001L216.001 41.334H228.001V32.6673Z" fill="white"/>
<path d="M218.001 29.334C217.633 29.334 217.335 29.6325 217.335 30.0007C217.335 30.3688 217.633 30.6673 218.001 30.6673H220.001C220.369 30.6673 220.668 30.3688 220.668 30.0007C220.668 29.6325 220.369 29.334 220.001 29.334H218.001Z" fill="white"/>
<rect x="216.668" y="36" width="10.6667" height="4.66667" fill="#E64B17"/>
<path d="M158 128C158 125.791 159.791 124 162 124H234C236.209 124 238 125.791 238 128V152C238 154.209 236.209 156 234 156H162C159.791 156 158 154.209 158 152V128Z" fill="#181B1E" fill-opacity="0.75"/>
<path d="M179.996 138.653C179.998 137.865 179.845 137.086 179.546 136.358C179.247 135.63 178.807 134.968 178.252 134.41C177.131 133.282 175.608 132.647 174.018 132.643C172.428 132.638 170.902 133.266 169.775 134.387C168.648 135.508 168.012 137.031 168.008 138.621C167.994 140.467 168.53 142.277 169.548 143.818C170.566 145.359 172.02 146.562 173.724 147.273C173.811 147.313 173.906 147.333 174.001 147.333C174.098 147.333 174.193 147.312 174.281 147.273C175.98 146.563 177.43 145.365 178.447 143.831C179.465 142.296 180.004 140.494 179.996 138.653ZM174.001 145.933C172.596 145.314 171.404 144.295 170.575 143.002C169.746 141.71 169.316 140.201 169.34 138.666C169.34 138.054 169.461 137.448 169.695 136.882C169.929 136.317 170.273 135.803 170.705 135.37C171.138 134.937 171.652 134.594 172.218 134.359C172.783 134.125 173.389 134.005 174.001 134.005C174.614 134.005 175.22 134.125 175.785 134.359C176.351 134.594 176.865 134.937 177.297 135.37C177.73 135.803 178.074 136.317 178.308 136.882C178.542 137.448 178.663 138.054 178.663 138.666C178.663 138.68 178.663 138.696 178.663 138.709C178.679 140.238 178.246 141.737 177.417 143.021C176.588 144.305 175.401 145.318 174.001 145.933ZM174.001 135.999C173.474 135.999 172.958 136.156 172.52 136.449C172.081 136.742 171.74 137.158 171.538 137.645C171.336 138.133 171.283 138.669 171.386 139.186C171.489 139.703 171.743 140.179 172.116 140.552C172.489 140.924 172.964 141.178 173.481 141.281C173.998 141.384 174.535 141.331 175.022 141.13C175.509 140.928 175.926 140.586 176.219 140.147C176.512 139.709 176.668 139.193 176.668 138.666C176.668 137.959 176.387 137.28 175.887 136.78C175.387 136.28 174.709 135.999 174.001 135.999ZM174.001 139.999C173.738 139.999 173.48 139.921 173.261 139.775C173.041 139.628 172.87 139.42 172.77 139.176C172.669 138.933 172.642 138.664 172.694 138.406C172.745 138.147 172.872 137.91 173.059 137.723C173.245 137.537 173.483 137.41 173.741 137.358C174 137.307 174.268 137.333 174.512 137.434C174.755 137.535 174.964 137.706 175.11 137.925C175.257 138.144 175.335 138.402 175.335 138.666C175.335 139.02 175.194 139.359 174.944 139.609C174.694 139.859 174.355 139.999 174.001 139.999Z" fill="white"/>
<path d="M199.569 138.466C200.036 138.933 200.792 138.933 201.258 138.466C201.725 138 201.725 137.244 201.258 136.777C200.792 136.311 200.036 136.311 199.569 136.777C199.103 137.244 199.103 138 199.569 138.466Z" fill="white"/>
<path fill-rule="evenodd" clip-rule="evenodd" d="M203.37 134.666C201.737 133.033 199.09 133.033 197.458 134.666C196.549 135.575 196.146 136.799 196.249 137.986L195.924 138.311L192.265 134.653L191.322 135.595L201.974 146.248L202.917 145.305L199.724 142.112L200.05 141.786C201.236 141.889 202.46 141.487 203.37 140.578C205.002 138.945 205.002 136.298 203.37 134.666ZM198.879 141.267L199.411 140.735C199.547 140.6 199.74 140.537 199.93 140.568C200.848 140.718 201.819 140.439 202.525 139.733C203.691 138.567 203.691 136.676 202.525 135.51C201.359 134.344 199.469 134.344 198.303 135.51C197.596 136.216 197.317 137.188 197.467 138.106C197.498 138.295 197.436 138.488 197.3 138.624L196.768 139.156L198.879 141.267Z" fill="white"/>
<path d="M197.049 143.209L196.184 142.344C195.962 142.431 195.805 142.647 195.805 142.9V143.992H194.713C194.383 143.992 194.116 144.259 194.116 144.589V145.681H192.355V143.57L194.882 141.042L194.037 140.198L191.335 142.9C191.223 143.012 191.16 143.164 191.16 143.322V146.278C191.16 146.608 191.428 146.875 191.757 146.875H194.713C195.043 146.875 195.31 146.608 195.31 146.278V145.186H196.402C196.732 145.186 196.999 144.919 196.999 144.589V143.79C196.999 143.595 197.016 143.401 197.049 143.209Z" fill="white"/>
<path d="M223.335 134.001C223.335 133.632 223.633 133.334 224.001 133.334H226.001C226.369 133.334 226.668 133.632 226.668 134.001C226.668 134.369 226.369 134.667 226.001 134.667H224.001C223.633 134.667 223.335 134.369 223.335 134.001Z" fill="white"/>
<path fill-rule="evenodd" clip-rule="evenodd" d="M216.001 135.334C215.265 135.334 214.668 135.931 214.668 136.667V145.334C214.668 146.07 215.265 146.667 216.001 146.667H228.001C228.738 146.667 229.335 146.07 229.335 145.334V136.667C229.335 135.931 228.738 135.334 228.001 135.334H216.001ZM228.001 136.667H216.001L216.001 145.334H228.001V136.667Z" fill="white"/>
<path d="M218.001 133.334C217.633 133.334 217.335 133.632 217.335 134.001C217.335 134.369 217.633 134.667 218.001 134.667H220.001C220.369 134.667 220.668 134.369 220.668 134.001C220.668 133.632 220.369 133.334 220.001 133.334H218.001Z" fill="white"/>
<rect x="216.668" y="140" width="10.6667" height="4.66667" fill="#E64B17"/>
<path d="M296 24C296 21.7909 297.791 20 300 20H372C374.209 20 376 21.7909 376 24V48C376 50.2091 374.209 52 372 52H300C297.791 52 296 50.2091 296 48V24Z" fill="#181B1E" fill-opacity="0.75"/>
<path d="M317.996 34.6526C317.998 33.8655 317.845 33.0856 317.546 32.3576C317.247 31.6295 316.807 30.9676 316.252 30.4095C315.131 29.2824 313.608 28.6468 312.018 28.6426C310.428 28.6384 308.902 29.2658 307.775 30.3869C306.648 31.508 306.012 33.0309 306.008 34.6206C305.994 36.4674 306.53 38.2766 307.548 39.8176C308.566 41.3586 310.02 42.5616 311.724 43.2733C311.811 43.3127 311.906 43.3329 312.001 43.3326C312.098 43.3328 312.193 43.3123 312.281 43.2726C313.98 42.5631 315.43 41.3651 316.447 39.8305C317.465 38.2959 318.004 36.4938 317.996 34.6526ZM312.001 41.9326C310.596 41.3139 309.404 40.2945 308.575 39.002C307.746 37.7095 307.316 36.2013 307.34 34.6659C307.34 34.0538 307.461 33.4477 307.695 32.8821C307.929 32.3166 308.273 31.8027 308.705 31.3699C309.138 30.937 309.652 30.5937 310.218 30.3594C310.783 30.1252 311.389 30.0046 312.001 30.0046C312.614 30.0046 313.22 30.1252 313.785 30.3594C314.351 30.5937 314.865 30.937 315.297 31.3699C315.73 31.8027 316.074 32.3166 316.308 32.8821C316.542 33.4477 316.663 34.0538 316.663 34.6659C316.663 34.6799 316.663 34.6959 316.663 34.7093C316.679 36.2375 316.246 37.7369 315.417 39.0211C314.588 40.3053 313.401 41.3177 312.001 41.9326ZM312.001 31.9993C311.474 31.9993 310.958 32.1557 310.52 32.4487C310.081 32.7417 309.74 33.1582 309.538 33.6454C309.336 34.1327 309.283 34.6689 309.386 35.1862C309.489 35.7035 309.743 36.1786 310.116 36.5516C310.489 36.9245 310.964 37.1785 311.481 37.2814C311.998 37.3843 312.535 37.3314 313.022 37.1296C313.509 36.9278 313.926 36.586 314.219 36.1475C314.512 35.7089 314.668 35.1933 314.668 34.6659C314.668 33.9587 314.387 33.2804 313.887 32.7803C313.387 32.2802 312.709 31.9993 312.001 31.9993ZM312.001 35.9993C311.738 35.9993 311.48 35.9211 311.261 35.7746C311.041 35.6281 310.87 35.4198 310.77 35.1762C310.669 34.9325 310.642 34.6645 310.694 34.4058C310.745 34.1472 310.872 33.9096 311.059 33.7231C311.245 33.5367 311.483 33.4097 311.741 33.3582C312 33.3068 312.268 33.3332 312.512 33.4341C312.755 33.535 312.964 33.7059 313.11 33.9252C313.257 34.1444 313.335 34.4022 313.335 34.6659C313.335 35.0196 313.194 35.3587 312.944 35.6087C312.694 35.8588 312.355 35.9993 312.001 35.9993Z" fill="white"/>
<g clip-path="url(#clip2_13830_98891)">
<path d="M337.823 34.4672C338.29 34.9337 339.046 34.9337 339.513 34.4672C339.979 34.0008 339.979 33.2446 339.513 32.7782C339.046 32.3117 338.29 32.3117 337.823 32.7782C337.357 33.2446 337.357 34.0008 337.823 34.4672Z" fill="white"/>
<path fill-rule="evenodd" clip-rule="evenodd" d="M335.712 30.6668C337.345 29.0343 339.991 29.0343 341.624 30.6668C343.256 32.2993 343.256 34.9461 341.624 36.5786C340.715 37.4878 339.49 37.8902 338.304 37.7872L336.768 39.3233C336.656 39.4353 336.504 39.4983 336.345 39.4983L335.254 39.4983L335.254 40.5902C335.254 40.92 334.986 41.1873 334.656 41.1873L333.565 41.1873L333.565 42.2792C333.565 42.609 333.297 42.8764 332.967 42.8764L330.011 42.8764C329.682 42.8764 329.414 42.609 329.414 42.2792L329.414 39.3233C329.414 39.165 329.477 39.0131 329.589 38.9011L334.504 33.9867C334.4 32.8003 334.803 31.5761 335.712 30.6668ZM340.779 31.5114C339.613 30.3453 337.723 30.3453 336.557 31.5114C335.851 32.2175 335.571 33.1889 335.721 34.1067C335.752 34.2963 335.69 34.4893 335.554 34.6252L330.609 39.5707L330.609 41.6821L332.37 41.6821L332.37 40.5902C332.37 40.2603 332.638 39.993 332.967 39.993L334.059 39.993L334.059 38.9011C334.059 38.5713 334.327 38.3039 334.656 38.3039L336.098 38.3039L337.666 36.7365C337.801 36.6006 337.994 36.5384 338.184 36.5694C339.102 36.7192 340.073 36.4402 340.779 35.7341C341.945 34.568 341.945 32.6774 340.779 31.5114Z" fill="white"/>
</g>
<rect x="354.668" y="33.334" width="10.6667" height="7.33333" fill="#828282"/>
<path d="M361.335 30.0007C361.335 29.6325 361.633 29.334 362.001 29.334H364.001C364.369 29.334 364.668 29.6325 364.668 30.0007C364.668 30.3688 364.369 30.6673 364.001 30.6673H362.001C361.633 30.6673 361.335 30.3688 361.335 30.0007Z" fill="white"/>
<path d="M359.589 37.6873C359.607 37.7007 359.627 37.7073 359.649 37.7073H360.369C360.392 37.7073 360.409 37.7007 360.423 37.6873C360.441 37.6695 360.449 37.6495 360.449 37.6273L360.563 34.7473C360.563 34.694 360.536 34.6673 360.483 34.6673H359.536C359.483 34.6673 359.456 34.694 359.456 34.7473L359.569 37.6273C359.569 37.6495 359.576 37.6695 359.589 37.6873Z" fill="white"/>
<path d="M359.543 39.1673C359.654 39.274 359.794 39.3273 359.963 39.3273C360.132 39.3273 360.269 39.2718 360.376 39.1607C360.487 39.0495 360.543 38.9118 360.543 38.7473C360.543 38.5784 360.487 38.4407 360.376 38.334C360.269 38.2273 360.132 38.174 359.963 38.174C359.794 38.174 359.654 38.2273 359.543 38.334C359.436 38.4407 359.383 38.5784 359.383 38.7473C359.383 38.9162 359.436 39.0562 359.543 39.1673Z" fill="white"/>
<path fill-rule="evenodd" clip-rule="evenodd" d="M354.001 31.334C353.265 31.334 352.668 31.9309 352.668 32.6673V41.334C352.668 42.0704 353.265 42.6673 354.001 42.6673H366.001C366.738 42.6673 367.335 42.0704 367.335 41.334V32.6673C367.335 31.9309 366.738 31.334 366.001 31.334H354.001ZM366.001 32.6673H354.001L354.001 41.334H366.001V32.6673Z" fill="white"/>
<path d="M356.001 29.334C355.633 29.334 355.335 29.6325 355.335 30.0007C355.335 30.3688 355.633 30.6673 356.001 30.6673H358.001C358.369 30.6673 358.668 30.3688 358.668 30.0007C358.668 29.6325 358.369 29.334 358.001 29.334H356.001Z" fill="white"/>
<path d="M296 128C296 125.791 297.791 124 300 124H372C374.209 124 376 125.791 376 128V152C376 154.209 374.209 156 372 156H300C297.791 156 296 154.209 296 152V128Z" fill="#181B1E" fill-opacity="0.75"/>
<path d="M317.996 138.653C317.998 137.865 317.845 137.086 317.546 136.358C317.247 135.63 316.807 134.968 316.252 134.41C315.131 133.282 313.608 132.647 312.018 132.643C310.428 132.638 308.902 133.266 307.775 134.387C306.648 135.508 306.012 137.031 306.008 138.621C305.994 140.467 306.53 142.277 307.548 143.818C308.566 145.359 310.02 146.562 311.724 147.273C311.811 147.313 311.906 147.333 312.001 147.333C312.098 147.333 312.193 147.312 312.281 147.273C313.98 146.563 315.43 145.365 316.447 143.831C317.465 142.296 318.004 140.494 317.996 138.653ZM312.001 145.933C310.596 145.314 309.404 144.295 308.575 143.002C307.746 141.71 307.316 140.201 307.34 138.666C307.34 138.054 307.461 137.448 307.695 136.882C307.929 136.317 308.273 135.803 308.705 135.37C309.138 134.937 309.652 134.594 310.218 134.359C310.783 134.125 311.389 134.005 312.001 134.005C312.614 134.005 313.22 134.125 313.785 134.359C314.351 134.594 314.865 134.937 315.297 135.37C315.73 135.803 316.074 136.317 316.308 136.882C316.542 137.448 316.663 138.054 316.663 138.666C316.663 138.68 316.663 138.696 316.663 138.709C316.679 140.238 316.246 141.737 315.417 143.021C314.588 144.305 313.401 145.318 312.001 145.933ZM312.001 135.999C311.474 135.999 310.958 136.156 310.52 136.449C310.081 136.742 309.74 137.158 309.538 137.645C309.336 138.133 309.283 138.669 309.386 139.186C309.489 139.703 309.743 140.179 310.116 140.552C310.489 140.924 310.964 141.178 311.481 141.281C311.998 141.384 312.535 141.331 313.022 141.13C313.509 140.928 313.926 140.586 314.219 140.147C314.512 139.709 314.668 139.193 314.668 138.666C314.668 137.959 314.387 137.28 313.887 136.78C313.387 136.28 312.709 135.999 312.001 135.999ZM312.001 139.999C311.738 139.999 311.48 139.921 311.261 139.775C311.041 139.628 310.87 139.42 310.77 139.176C310.669 138.933 310.642 138.664 310.694 138.406C310.745 138.147 310.872 137.91 311.059 137.723C311.245 137.537 311.483 137.41 311.741 137.358C312 137.307 312.268 137.333 312.512 137.434C312.755 137.535 312.964 137.706 313.11 137.925C313.257 138.144 313.335 138.402 313.335 138.666C313.335 139.02 313.194 139.359 312.944 139.609C312.694 139.859 312.355 139.999 312.001 139.999Z" fill="white"/>
<path d="M337.569 138.466C338.036 138.933 338.792 138.933 339.258 138.466C339.725 138 339.725 137.244 339.258 136.777C338.792 136.311 338.036 136.311 337.569 136.777C337.103 137.244 337.103 138 337.569 138.466Z" fill="white"/>
<path fill-rule="evenodd" clip-rule="evenodd" d="M341.37 134.666C339.737 133.033 337.09 133.033 335.458 134.666C334.549 135.575 334.146 136.799 334.249 137.986L333.924 138.311L330.265 134.653L329.322 135.595L339.974 146.248L340.917 145.305L337.724 142.112L338.05 141.786C339.236 141.889 340.46 141.487 341.37 140.578C343.002 138.945 343.002 136.298 341.37 134.666ZM336.879 141.267L337.411 140.735C337.547 140.6 337.74 140.537 337.93 140.568C338.848 140.718 339.819 140.439 340.525 139.733C341.691 138.567 341.691 136.676 340.525 135.51C339.359 134.344 337.469 134.344 336.303 135.51C335.596 136.216 335.317 137.188 335.467 138.106C335.498 138.295 335.436 138.488 335.3 138.624L334.768 139.156L336.879 141.267Z" fill="white"/>
<path d="M335.049 143.209L334.184 142.344C333.962 142.431 333.805 142.647 333.805 142.9V143.992H332.713C332.383 143.992 332.116 144.259 332.116 144.589V145.681H330.355V143.57L332.882 141.042L332.037 140.198L329.335 142.9C329.223 143.012 329.16 143.164 329.16 143.322V146.278C329.16 146.608 329.428 146.875 329.757 146.875H332.713C333.043 146.875 333.31 146.608 333.31 146.278V145.186H334.402C334.732 145.186 334.999 144.919 334.999 144.589V143.79C334.999 143.595 335.016 143.401 335.049 143.209Z" fill="white"/>
<rect x="354.668" y="137.334" width="10.6667" height="7.33333" fill="#828282"/>
<path d="M361.335 134.001C361.335 133.632 361.633 133.334 362.001 133.334H364.001C364.369 133.334 364.668 133.632 364.668 134.001C364.668 134.369 364.369 134.667 364.001 134.667H362.001C361.633 134.667 361.335 134.369 361.335 134.001Z" fill="white"/>
<path d="M359.589 141.687C359.607 141.701 359.627 141.707 359.649 141.707H360.369C360.392 141.707 360.409 141.701 360.423 141.687C360.441 141.67 360.449 141.65 360.449 141.627L360.563 138.747C360.563 138.694 360.536 138.667 360.483 138.667H359.536C359.483 138.667 359.456 138.694 359.456 138.747L359.569 141.627C359.569 141.65 359.576 141.67 359.589 141.687Z" fill="white"/>
<path d="M359.543 143.167C359.654 143.274 359.794 143.327 359.963 143.327C360.132 143.327 360.269 143.272 360.376 143.161C360.487 143.05 360.543 142.912 360.543 142.747C360.543 142.578 360.487 142.441 360.376 142.334C360.269 142.227 360.132 142.174 359.963 142.174C359.794 142.174 359.654 142.227 359.543 142.334C359.436 142.441 359.383 142.578 359.383 142.747C359.383 142.916 359.436 143.056 359.543 143.167Z" fill="white"/>
<path fill-rule="evenodd" clip-rule="evenodd" d="M354.001 135.334C353.265 135.334 352.668 135.931 352.668 136.667V145.334C352.668 146.07 353.265 146.667 354.001 146.667H366.001C366.738 146.667 367.335 146.07 367.335 145.334V136.667C367.335 135.931 366.738 135.334 366.001 135.334H354.001ZM366.001 136.667H354.001L354.001 145.334H366.001V136.667Z" fill="white"/>
<path d="M356.001 133.334C355.633 133.334 355.335 133.632 355.335 134.001C355.335 134.369 355.633 134.667 356.001 134.667H358.001C358.369 134.667 358.668 134.369 358.668 134.001C358.668 133.632 358.369 133.334 358.001 133.334H356.001Z" fill="white"/>
<path d="M20 76C20 73.7909 21.7909 72 24 72H96C98.2091 72 100 73.7909 100 76V100C100 102.209 98.2091 104 96 104H24C21.7909 104 20 102.209 20 100V76Z" fill="#181B1E" fill-opacity="0.75"/>
<path fill-rule="evenodd" clip-rule="evenodd" d="M31.1602 85.9444C31.1204 86.1901 31.1006 86.4394 31.1006 86.6895C31.077 88.2246 31.5061 89.733 32.335 91.0254C33.164 92.3178 34.3565 93.3373 35.7617 93.9561C36.5232 93.6214 37.2206 93.167 37.833 92.6172L38.7627 93.5469C37.9682 94.2801 37.0491 94.8749 36.041 95.2959C35.9534 95.3355 35.8579 95.3566 35.7617 95.3565C35.6663 95.3568 35.5713 95.3362 35.4844 95.2969C33.7803 94.5852 32.3265 93.3817 31.3086 91.8408C30.2908 90.3 29.7546 88.4911 29.7686 86.6446C29.7702 86.0254 29.8678 85.416 30.0527 84.8369L31.1602 85.9444ZM35.7783 80.666C37.3678 80.6703 38.8907 81.3059 40.0117 82.4326C40.5667 82.9906 41.0064 83.653 41.3057 84.3809C41.6049 85.1088 41.7579 85.8888 41.7559 86.6758C41.763 88.3627 41.3094 90.0154 40.4512 91.461L41.6709 92.6807L40.7275 93.6231L29.332 82.2276L30.2744 81.2842L31.4688 82.4785C31.4908 82.4558 31.5127 82.4326 31.5352 82.4102C32.6622 81.2892 34.1888 80.6619 35.7783 80.666ZM35.7617 82.0283C35.1497 82.0284 34.543 82.1486 33.9775 82.3828C33.4122 82.6171 32.8985 82.9609 32.4658 83.3936C32.4522 83.4072 32.4383 83.4208 32.4248 83.4346L33.835 84.8447C33.9685 84.7053 34.1181 84.5801 34.2803 84.4717C34.7186 84.1789 35.2346 84.0226 35.7617 84.0225C36.4688 84.0225 37.1474 84.3038 37.6475 84.8037C38.1475 85.3038 38.4287 85.9823 38.4287 86.6895C38.4287 87.2169 38.2715 87.7324 37.9785 88.1709C37.8701 88.3331 37.744 88.4808 37.6045 88.6143L39.4951 90.5049C40.1159 89.3488 40.4368 88.0514 40.4229 86.7324V86.6895C40.4229 86.0773 40.3026 85.4708 40.0684 84.9053C39.8341 84.3399 39.4903 83.8263 39.0576 83.3936C38.6248 82.9608 38.1104 82.6171 37.5449 82.3828C36.9796 82.1488 36.3735 82.0284 35.7617 82.0283ZM35.502 85.3819C35.2435 85.4334 35.0047 85.5607 34.8184 85.7471C34.8048 85.7607 34.7931 85.7759 34.7803 85.7901L36.6602 87.6699C36.6745 87.657 36.6904 87.6456 36.7041 87.6319C36.9541 87.3818 37.0947 87.0431 37.0947 86.6895C37.0947 86.4258 37.0166 86.1675 36.8701 85.9483C36.7236 85.7292 36.5149 85.5589 36.2715 85.458C36.0281 85.3573 35.7603 85.3306 35.502 85.3819Z" fill="white"/>
<g clip-path="url(#clip3_13830_98891)">
<path d="M61.8234 86.4672C62.2899 86.9337 63.0461 86.9337 63.5125 86.4672C63.9789 86.0008 63.9789 85.2446 63.5125 84.7782C63.0461 84.3117 62.2899 84.3117 61.8234 84.7782C61.357 85.2446 61.357 86.0008 61.8234 86.4672Z" fill="white"/>
<path fill-rule="evenodd" clip-rule="evenodd" d="M59.7121 82.6668C61.3446 81.0343 63.9914 81.0343 65.6239 82.6668C67.2563 84.2993 67.2563 86.9461 65.6239 88.5786C64.7146 89.4878 63.4904 89.8902 62.3039 89.7872L60.7678 91.3233C60.6558 91.4353 60.5039 91.4983 60.3455 91.4983L59.2536 91.4983L59.2536 92.5902C59.2536 92.92 58.9862 93.1873 58.6564 93.1873L57.5645 93.1873L57.5645 94.2792C57.5645 94.609 57.2971 94.8764 56.9673 94.8764L54.0114 94.8764C53.6816 94.8764 53.4143 94.609 53.4143 94.2792L53.4143 91.3233C53.4143 91.165 53.4772 91.0131 53.5892 90.9011L58.5035 85.9867C58.4004 84.8003 58.8028 83.5761 59.7121 82.6668ZM64.7793 83.5114C63.6133 82.3453 61.7227 82.3453 60.5566 83.5114C59.8505 84.2175 59.5715 85.1889 59.7213 86.1067C59.7522 86.2963 59.69 86.4893 59.5542 86.6252L54.6086 91.5707L54.6086 93.6821L56.3702 93.6821L56.3702 92.5902C56.3702 92.2603 56.6375 91.993 56.9673 91.993L58.0592 91.993L58.0592 90.9011C58.0592 90.5713 58.3266 90.3039 58.6564 90.3039L60.0981 90.3039L61.6655 88.7365C61.8014 88.6006 61.9943 88.5384 62.184 88.5694C63.1018 88.7192 64.0732 88.4402 64.7793 87.7341C65.9454 86.568 65.9454 84.6774 64.7793 83.5114Z" fill="white"/>
</g>
<rect x="78.668" y="85.334" width="10.6667" height="7.33333" fill="#828282"/>
<path d="M85.3346 82.0007C85.3346 81.6325 85.6331 81.334 86.0013 81.334H88.0013C88.3695 81.334 88.668 81.6325 88.668 82.0007C88.668 82.3688 88.3695 82.6673 88.0013 82.6673H86.0013C85.6331 82.6673 85.3346 82.3688 85.3346 82.0007Z" fill="white"/>
<path d="M83.5894 89.6873C83.6072 89.7007 83.6272 89.7073 83.6494 89.7073H84.3694C84.3917 89.7073 84.4094 89.7007 84.4228 89.6873C84.4406 89.6695 84.4494 89.6495 84.4494 89.6273L84.5628 86.7473C84.5628 86.694 84.5361 86.6673 84.4828 86.6673H83.5361C83.4828 86.6673 83.4561 86.694 83.4561 86.7473L83.5694 89.6273C83.5694 89.6495 83.5761 89.6695 83.5894 89.6873Z" fill="white"/>
<path d="M83.5428 91.1673C83.6539 91.274 83.7939 91.3273 83.9628 91.3273C84.1317 91.3273 84.2694 91.2718 84.3761 91.1607C84.4872 91.0495 84.5428 90.9118 84.5428 90.7473C84.5428 90.5784 84.4872 90.4407 84.3761 90.334C84.2694 90.2273 84.1317 90.174 83.9628 90.174C83.7939 90.174 83.6539 90.2273 83.5428 90.334C83.4361 90.4407 83.3828 90.5784 83.3828 90.7473C83.3828 90.9162 83.4361 91.0562 83.5428 91.1673Z" fill="white"/>
<path fill-rule="evenodd" clip-rule="evenodd" d="M78.0013 83.334C77.2649 83.334 76.668 83.9309 76.668 84.6673V93.334C76.668 94.0704 77.2649 94.6673 78.0013 94.6673H90.0013C90.7377 94.6673 91.3346 94.0704 91.3346 93.334V84.6673C91.3346 83.9309 90.7377 83.334 90.0013 83.334H78.0013ZM90.0013 84.6673H78.0013L78.0013 93.334H90.0013V84.6673Z" fill="white"/>
<path d="M80.0013 81.334C79.6331 81.334 79.3346 81.6325 79.3346 82.0007C79.3346 82.3688 79.6331 82.6673 80.0013 82.6673H82.0013C82.3695 82.6673 82.668 82.3688 82.668 82.0007C82.668 81.6325 82.3695 81.334 82.0013 81.334H80.0013Z" fill="white"/>
<path d="M20 180C20 177.791 21.7909 176 24 176H96C98.2091 176 100 177.791 100 180V204C100 206.209 98.2091 208 96 208H24C21.7909 208 20 206.209 20 204V180Z" fill="#181B1E" fill-opacity="0.75"/>
<path fill-rule="evenodd" clip-rule="evenodd" d="M31.1602 189.944C31.1204 190.19 31.1006 190.439 31.1006 190.689C31.077 192.225 31.5061 193.733 32.335 195.025C33.164 196.318 34.3565 197.337 35.7617 197.956C36.5232 197.621 37.2206 197.167 37.833 196.617L38.7627 197.547C37.9682 198.28 37.0491 198.875 36.041 199.296C35.9534 199.336 35.8579 199.357 35.7617 199.356C35.6663 199.357 35.5713 199.336 35.4844 199.297C33.7803 198.585 32.3265 197.382 31.3086 195.841C30.2908 194.3 29.7546 192.491 29.7686 190.645C29.7702 190.025 29.8678 189.416 30.0527 188.837L31.1602 189.944ZM35.7783 184.666C37.3678 184.67 38.8907 185.306 40.0117 186.433C40.5667 186.991 41.0064 187.653 41.3057 188.381C41.6049 189.109 41.7579 189.889 41.7559 190.676C41.763 192.363 41.3094 194.015 40.4512 195.461L41.6709 196.681L40.7275 197.623L29.332 186.228L30.2744 185.284L31.4688 186.479C31.4908 186.456 31.5127 186.433 31.5352 186.41C32.6622 185.289 34.1888 184.662 35.7783 184.666ZM35.7617 186.028C35.1497 186.028 34.543 186.149 33.9775 186.383C33.4122 186.617 32.8985 186.961 32.4658 187.394C32.4522 187.407 32.4383 187.421 32.4248 187.435L33.835 188.845C33.9685 188.705 34.1181 188.58 34.2803 188.472C34.7186 188.179 35.2346 188.023 35.7617 188.022C36.4688 188.023 37.1474 188.304 37.6475 188.804C38.1475 189.304 38.4287 189.982 38.4287 190.689C38.4287 191.217 38.2715 191.732 37.9785 192.171C37.8701 192.333 37.744 192.481 37.6045 192.614L39.4951 194.505C40.1159 193.349 40.4368 192.051 40.4229 190.732V190.689C40.4229 190.077 40.3026 189.471 40.0684 188.905C39.8341 188.34 39.4903 187.826 39.0576 187.394C38.6248 186.961 38.1104 186.617 37.5449 186.383C36.9796 186.149 36.3735 186.028 35.7617 186.028ZM35.502 189.382C35.2435 189.433 35.0047 189.561 34.8184 189.747C34.8048 189.761 34.7931 189.776 34.7803 189.79L36.6602 191.67C36.6745 191.657 36.6904 191.646 36.7041 191.632C36.9541 191.382 37.0947 191.043 37.0947 190.689C37.0947 190.426 37.0166 190.168 36.8701 189.948C36.7236 189.729 36.5149 189.559 36.2715 189.458C36.0281 189.357 35.7603 189.331 35.502 189.382Z" fill="white"/>
<path d="M61.5693 190.466C62.0357 190.933 62.792 190.933 63.2584 190.466C63.7248 190 63.7248 189.244 63.2584 188.777C62.792 188.311 62.0357 188.311 61.5693 188.777C61.1029 189.244 61.1029 190 61.5693 190.466Z" fill="white"/>
<path fill-rule="evenodd" clip-rule="evenodd" d="M65.3697 186.666C63.7373 185.033 61.0905 185.033 59.458 186.666C58.5487 187.575 58.1463 188.799 58.2494 189.986L57.9236 190.311L54.2648 186.653L53.322 187.595L63.9744 198.248L64.9172 197.305L61.724 194.112L62.0498 193.786C63.2363 193.889 64.4605 193.487 65.3697 192.578C67.0022 190.945 67.0022 188.298 65.3697 186.666ZM60.8795 193.267L61.4114 192.735C61.5473 192.6 61.7402 192.537 61.9299 192.568C62.8477 192.718 63.8191 192.439 64.5252 191.733C65.6913 190.567 65.6913 188.676 64.5252 187.51C63.3591 186.344 61.4686 186.344 60.3025 187.51C59.5964 188.216 59.3174 189.188 59.4672 190.106C59.4981 190.295 59.4359 190.488 59.3001 190.624L58.7681 191.156L60.8795 193.267Z" fill="white"/>
<path d="M59.0488 195.209L58.1839 194.344C57.9621 194.431 57.8051 194.647 57.8051 194.9V195.992H56.7132C56.3834 195.992 56.116 196.259 56.116 196.589V197.681H54.3545V195.57L56.882 193.042L56.0375 192.198L53.3351 194.9C53.2231 195.012 53.1602 195.164 53.1602 195.322V198.278C53.1602 198.608 53.4275 198.875 53.7573 198.875H56.7132C57.043 198.875 57.3104 198.608 57.3104 198.278V197.186H58.4023C58.7321 197.186 58.9995 196.919 58.9995 196.589V195.79C58.9995 195.595 59.016 195.401 59.0488 195.209Z" fill="white"/>
<rect x="78.668" y="189.334" width="10.6667" height="7.33333" fill="#828282"/>
<path d="M85.3346 186.001C85.3346 185.632 85.6331 185.334 86.0013 185.334H88.0013C88.3695 185.334 88.668 185.632 88.668 186.001C88.668 186.369 88.3695 186.667 88.0013 186.667H86.0013C85.6331 186.667 85.3346 186.369 85.3346 186.001Z" fill="white"/>
<path d="M83.5894 193.687C83.6072 193.701 83.6272 193.707 83.6494 193.707H84.3694C84.3917 193.707 84.4094 193.701 84.4228 193.687C84.4406 193.67 84.4494 193.65 84.4494 193.627L84.5628 190.747C84.5628 190.694 84.5361 190.667 84.4828 190.667H83.5361C83.4828 190.667 83.4561 190.694 83.4561 190.747L83.5694 193.627C83.5694 193.65 83.5761 193.67 83.5894 193.687Z" fill="white"/>
<path d="M83.5428 195.167C83.6539 195.274 83.7939 195.327 83.9628 195.327C84.1317 195.327 84.2694 195.272 84.3761 195.161C84.4872 195.05 84.5428 194.912 84.5428 194.747C84.5428 194.578 84.4872 194.441 84.3761 194.334C84.2694 194.227 84.1317 194.174 83.9628 194.174C83.7939 194.174 83.6539 194.227 83.5428 194.334C83.4361 194.441 83.3828 194.578 83.3828 194.747C83.3828 194.916 83.4361 195.056 83.5428 195.167Z" fill="white"/>
<path fill-rule="evenodd" clip-rule="evenodd" d="M78.0013 187.334C77.2649 187.334 76.668 187.931 76.668 188.667V197.334C76.668 198.07 77.2649 198.667 78.0013 198.667H90.0013C90.7377 198.667 91.3346 198.07 91.3346 197.334V188.667C91.3346 187.931 90.7377 187.334 90.0013 187.334H78.0013ZM90.0013 188.667H78.0013L78.0013 197.334H90.0013V188.667Z" fill="white"/>
<path d="M80.0013 185.334C79.6331 185.334 79.3346 185.632 79.3346 186.001C79.3346 186.369 79.6331 186.667 80.0013 186.667H82.0013C82.3695 186.667 82.668 186.369 82.668 186.001C82.668 185.632 82.3695 185.334 82.0013 185.334H80.0013Z" fill="white"/>
<defs>
<clipPath id="clip0_13830_98891">
<rect width="16" height="16" fill="white" transform="translate(52 28)"/>
</clipPath>
<clipPath id="clip1_13830_98891">
<rect width="16" height="16" fill="white" transform="translate(190 28)"/>
</clipPath>
<clipPath id="clip2_13830_98891">
<rect width="16" height="16" fill="white" transform="translate(328 28)"/>
</clipPath>
<clipPath id="clip3_13830_98891">
<rect width="16" height="16" fill="white" transform="translate(52 80)"/>
</clipPath>
</defs>
</svg>
