<svg width="215" height="644" viewBox="0 0 215 644" fill="none" xmlns="http://www.w3.org/2000/svg">
<rect x="0.5" y="0.5" width="214" height="643" rx="4.5" stroke="#9747FF" stroke-dasharray="10 5"/>
<g filter="url(#filter0_di_13830_98806)">
<rect x="97" y="28" width="32" height="32" rx="4" fill="white"/>
<rect x="96" y="27" width="34" height="34" rx="5" stroke="#DCDCDC" stroke-width="2"/>
</g>
<path d="M107.609 48.304C107.587 48.3253 107.577 48.3467 107.577 48.368C107.587 48.3893 107.609 48.4 107.641 48.4H112.201C112.254 48.4 112.297 48.4213 112.329 48.464C112.371 48.496 112.393 48.5387 112.393 48.592V49.808C112.393 49.8613 112.371 49.9093 112.329 49.952C112.297 49.984 112.254 50 112.201 50H105.321C105.267 50 105.219 49.984 105.177 49.952C105.145 49.9093 105.129 49.8613 105.129 49.808V48.656C105.129 48.56 105.161 48.48 105.225 48.416C106.035 47.552 106.974 46.4907 108.041 45.232L108.793 44.352C109.774 43.2107 110.265 42.3467 110.265 41.76C110.265 41.3227 110.11 40.9653 109.801 40.688C109.491 40.4107 109.091 40.272 108.601 40.272C108.11 40.272 107.71 40.4107 107.401 40.688C107.102 40.9653 106.953 41.3333 106.953 41.792V42.208C106.953 42.2613 106.931 42.3093 106.889 42.352C106.857 42.384 106.814 42.4 106.761 42.4H105.273C105.219 42.4 105.171 42.384 105.129 42.352C105.097 42.3093 105.081 42.2613 105.081 42.208V41.52C105.102 40.944 105.267 40.4427 105.577 40.016C105.886 39.5893 106.302 39.2587 106.825 39.024C107.358 38.7893 107.95 38.672 108.601 38.672C109.315 38.672 109.939 38.8053 110.473 39.072C111.006 39.3387 111.417 39.7067 111.705 40.176C111.993 40.6347 112.137 41.152 112.137 41.728C112.137 42.6027 111.673 43.6107 110.745 44.752C110.233 45.392 109.39 46.352 108.217 47.632L107.609 48.304ZM120.581 45.152C120.816 45.6213 120.933 46.16 120.933 46.768C120.933 47.408 120.795 47.9893 120.517 48.512C120.24 49.0133 119.835 49.408 119.301 49.696C118.768 49.984 118.139 50.128 117.413 50.128C116.699 50.128 116.064 49.9893 115.509 49.712C114.955 49.424 114.539 49.008 114.261 48.464C113.984 47.9627 113.845 47.392 113.845 46.752C113.845 46.176 113.968 45.632 114.213 45.12C114.427 44.6827 114.731 44.352 115.125 44.128C115.179 44.096 115.184 44.0587 115.141 44.016C114.875 43.824 114.635 43.5573 114.421 43.216C114.144 42.768 114.005 42.272 114.005 41.728C114.005 41.056 114.203 40.4533 114.597 39.92C114.885 39.504 115.275 39.184 115.765 38.96C116.256 38.7253 116.805 38.608 117.413 38.608C118.043 38.608 118.592 38.7253 119.061 38.96C119.541 39.184 119.925 39.504 120.213 39.92C120.587 40.464 120.773 41.0667 120.773 41.728C120.773 42.3147 120.629 42.8267 120.341 43.264C120.139 43.5627 119.904 43.808 119.637 44C119.595 44.0427 119.595 44.08 119.637 44.112C120.043 44.3467 120.357 44.6933 120.581 45.152ZM116.037 41.024C115.909 41.3013 115.845 41.5467 115.845 41.76C115.845 42.1227 115.936 42.448 116.117 42.736C116.373 43.1733 116.8 43.392 117.397 43.392C117.973 43.392 118.411 43.168 118.709 42.72C118.869 42.4853 118.949 42.16 118.949 41.744C118.949 41.5093 118.891 41.264 118.773 41.008C118.635 40.7627 118.448 40.5707 118.213 40.432C117.979 40.2827 117.701 40.208 117.381 40.208C117.083 40.208 116.816 40.2827 116.581 40.432C116.347 40.5707 116.165 40.768 116.037 41.024ZM118.725 47.872C118.949 47.5627 119.061 47.1413 119.061 46.608C119.061 46.1173 118.976 45.7333 118.805 45.456C118.539 44.9653 118.069 44.72 117.397 44.72C116.768 44.72 116.309 44.9547 116.021 45.424C115.84 45.712 115.749 46.112 115.749 46.624C115.749 47.1147 115.845 47.5147 116.037 47.824C116.325 48.2933 116.784 48.528 117.413 48.528C118.011 48.528 118.448 48.3093 118.725 47.872Z" fill="#126550"/>
<g filter="url(#filter1_di_13830_98806)">
<rect x="97" y="96" width="32" height="32" rx="4" fill="#1A9375"/>
<rect x="96" y="95" width="34" height="34" rx="5" stroke="#126550" stroke-width="2"/>
</g>
<path d="M107.609 116.304C107.587 116.325 107.577 116.347 107.577 116.368C107.587 116.389 107.609 116.4 107.641 116.4H112.201C112.254 116.4 112.297 116.421 112.329 116.464C112.371 116.496 112.393 116.539 112.393 116.592V117.808C112.393 117.861 112.371 117.909 112.329 117.952C112.297 117.984 112.254 118 112.201 118H105.321C105.267 118 105.219 117.984 105.177 117.952C105.145 117.909 105.129 117.861 105.129 117.808V116.656C105.129 116.56 105.161 116.48 105.225 116.416C106.035 115.552 106.974 114.491 108.041 113.232L108.793 112.352C109.774 111.211 110.265 110.347 110.265 109.76C110.265 109.323 110.11 108.965 109.801 108.688C109.491 108.411 109.091 108.272 108.601 108.272C108.11 108.272 107.71 108.411 107.401 108.688C107.102 108.965 106.953 109.333 106.953 109.792V110.208C106.953 110.261 106.931 110.309 106.889 110.352C106.857 110.384 106.814 110.4 106.761 110.4H105.273C105.219 110.4 105.171 110.384 105.129 110.352C105.097 110.309 105.081 110.261 105.081 110.208V109.52C105.102 108.944 105.267 108.443 105.577 108.016C105.886 107.589 106.302 107.259 106.825 107.024C107.358 106.789 107.95 106.672 108.601 106.672C109.315 106.672 109.939 106.805 110.473 107.072C111.006 107.339 111.417 107.707 111.705 108.176C111.993 108.635 112.137 109.152 112.137 109.728C112.137 110.603 111.673 111.611 110.745 112.752C110.233 113.392 109.39 114.352 108.217 115.632L107.609 116.304ZM120.581 113.152C120.816 113.621 120.933 114.16 120.933 114.768C120.933 115.408 120.795 115.989 120.517 116.512C120.24 117.013 119.835 117.408 119.301 117.696C118.768 117.984 118.139 118.128 117.413 118.128C116.699 118.128 116.064 117.989 115.509 117.712C114.955 117.424 114.539 117.008 114.261 116.464C113.984 115.963 113.845 115.392 113.845 114.752C113.845 114.176 113.968 113.632 114.213 113.12C114.427 112.683 114.731 112.352 115.125 112.128C115.179 112.096 115.184 112.059 115.141 112.016C114.875 111.824 114.635 111.557 114.421 111.216C114.144 110.768 114.005 110.272 114.005 109.728C114.005 109.056 114.203 108.453 114.597 107.92C114.885 107.504 115.275 107.184 115.765 106.96C116.256 106.725 116.805 106.608 117.413 106.608C118.043 106.608 118.592 106.725 119.061 106.96C119.541 107.184 119.925 107.504 120.213 107.92C120.587 108.464 120.773 109.067 120.773 109.728C120.773 110.315 120.629 110.827 120.341 111.264C120.139 111.563 119.904 111.808 119.637 112C119.595 112.043 119.595 112.08 119.637 112.112C120.043 112.347 120.357 112.693 120.581 113.152ZM116.037 109.024C115.909 109.301 115.845 109.547 115.845 109.76C115.845 110.123 115.936 110.448 116.117 110.736C116.373 111.173 116.8 111.392 117.397 111.392C117.973 111.392 118.411 111.168 118.709 110.72C118.869 110.485 118.949 110.16 118.949 109.744C118.949 109.509 118.891 109.264 118.773 109.008C118.635 108.763 118.448 108.571 118.213 108.432C117.979 108.283 117.701 108.208 117.381 108.208C117.083 108.208 116.816 108.283 116.581 108.432C116.347 108.571 116.165 108.768 116.037 109.024ZM118.725 115.872C118.949 115.563 119.061 115.141 119.061 114.608C119.061 114.117 118.976 113.733 118.805 113.456C118.539 112.965 118.069 112.72 117.397 112.72C116.768 112.72 116.309 112.955 116.021 113.424C115.84 113.712 115.749 114.112 115.749 114.624C115.749 115.115 115.845 115.515 116.037 115.824C116.325 116.293 116.784 116.528 117.413 116.528C118.011 116.528 118.448 116.309 118.725 115.872Z" fill="white"/>
<g filter="url(#filter2_di_13830_98806)">
<rect x="98" y="516" width="32" height="32" rx="4" fill="#1A9375"/>
<rect x="97" y="515" width="34" height="34" rx="5" stroke="#126550" stroke-width="2"/>
</g>
<path d="M108.037 526.667C108.405 526.255 108.37 525.623 107.959 525.255C107.547 524.887 106.915 524.922 106.547 525.333C104.964 527.102 104 529.439 104 532C104 534.561 104.964 536.898 106.547 538.667C106.915 539.078 107.547 539.113 107.959 538.745C108.37 538.377 108.405 537.745 108.037 537.333C106.769 535.917 106 534.05 106 532C106 529.95 106.769 528.083 108.037 526.667Z" fill="white"/>
<path d="M121.453 525.333C121.085 524.922 120.453 524.887 120.041 525.255C119.63 525.623 119.595 526.255 119.963 526.667C121.231 528.083 122 529.95 122 532C122 534.05 121.231 535.917 119.963 537.333C119.595 537.745 119.63 538.377 120.041 538.745C120.453 539.113 121.085 539.078 121.453 538.667C123.036 536.898 124 534.561 124 532C124 529.439 123.036 527.102 121.453 525.333Z" fill="white"/>
<path d="M110.6 528.2C111.042 528.532 111.131 529.159 110.799 529.601C110.297 530.269 110 531.098 110 532C110 532.902 110.297 533.731 110.799 534.399C111.131 534.841 111.042 535.468 110.6 535.8C110.159 536.131 109.532 536.042 109.2 535.601C108.447 534.598 108 533.35 108 532C108 530.65 108.447 529.402 109.2 528.399C109.532 527.958 110.159 527.869 110.6 528.2Z" fill="white"/>
<path d="M117.4 528.2C117.841 527.869 118.468 527.958 118.8 528.399C119.553 529.402 120 530.65 120 532C120 533.35 119.553 534.598 118.8 535.601C118.468 536.042 117.841 536.131 117.4 535.8C116.958 535.468 116.869 534.841 117.201 534.399C117.703 533.731 118 532.902 118 532C118 531.098 117.703 530.269 117.201 529.601C116.869 529.159 116.958 528.532 117.4 528.2Z" fill="white"/>
<path d="M116 532C116 533.105 115.105 534 114 534C112.895 534 112 533.105 112 532C112 530.895 112.895 530 114 530C115.105 530 116 530.895 116 532Z" fill="white"/>
<g filter="url(#filter3_di_13830_98806)">
<rect x="98" y="584" width="32" height="32" rx="4" fill="#E50C0C"/>
<rect x="97" y="583" width="34" height="34" rx="5" stroke="#8B0505" stroke-width="2"/>
</g>
<path d="M108.037 594.667C108.405 594.255 108.37 593.623 107.959 593.255C107.547 592.887 106.915 592.922 106.547 593.333C104.964 595.102 104 597.439 104 600C104 602.561 104.964 604.898 106.547 606.667C106.915 607.078 107.547 607.113 107.959 606.745C108.37 606.377 108.405 605.745 108.037 605.333C106.769 603.917 106 602.05 106 600C106 597.95 106.769 596.083 108.037 594.667Z" fill="white"/>
<path d="M121.453 593.333C121.085 592.922 120.453 592.887 120.041 593.255C119.63 593.623 119.595 594.255 119.963 594.667C121.231 596.083 122 597.95 122 600C122 602.05 121.231 603.917 119.963 605.333C119.595 605.745 119.63 606.377 120.041 606.745C120.453 607.113 121.085 607.078 121.453 606.667C123.036 604.898 124 602.561 124 600C124 597.439 123.036 595.102 121.453 593.333Z" fill="white"/>
<path d="M110.6 596.2C111.042 596.532 111.131 597.159 110.799 597.601C110.297 598.269 110 599.098 110 600C110 600.902 110.297 601.731 110.799 602.399C111.131 602.841 111.042 603.468 110.6 603.8C110.159 604.131 109.532 604.042 109.2 603.601C108.447 602.598 108 601.35 108 600C108 598.65 108.447 597.402 109.2 596.399C109.532 595.958 110.159 595.869 110.6 596.2Z" fill="white"/>
<path d="M117.4 596.2C117.841 595.869 118.468 595.958 118.8 596.399C119.553 597.402 120 598.65 120 600C120 601.35 119.553 602.598 118.8 603.601C118.468 604.042 117.841 604.131 117.4 603.8C116.958 603.468 116.869 602.841 117.201 602.399C117.703 601.731 118 600.902 118 600C118 599.098 117.703 598.269 117.201 597.601C116.869 597.159 116.958 596.532 117.4 596.2Z" fill="white"/>
<path d="M116 600C116 601.105 115.105 602 114 602C112.895 602 112 601.105 112 600C112 598.895 112.895 598 114 598C115.105 598 116 598.895 116 600Z" fill="white"/>
<g filter="url(#filter4_di_13830_98806)">
<rect x="97" y="164" width="32" height="32" rx="4" fill="#1A9375"/>
<rect x="96" y="163" width="34" height="34" rx="5" stroke="#126550" stroke-width="2"/>
</g>
<path d="M123 175H118V170C118 169.735 117.895 169.48 117.707 169.293C117.52 169.105 117.265 169 117 169H109C108.735 169 108.48 169.105 108.293 169.293C108.105 169.48 108 169.735 108 170V175H103C102.735 175 102.48 175.105 102.293 175.293C102.105 175.48 102 175.735 102 176V190C102 190.265 102.105 190.52 102.293 190.707C102.48 190.895 102.735 191 103 191H123C123.265 191 123.52 190.895 123.707 190.707C123.895 190.52 124 190.265 124 190V176C124 175.735 123.895 175.48 123.707 175.293C123.52 175.105 123.265 175 123 175ZM104 177H108V189H104V177ZM110 176V171H116V189H114V187C114 186.735 113.895 186.48 113.707 186.293C113.52 186.105 113.265 186 113 186C112.735 186 112.48 186.105 112.293 186.293C112.105 186.48 112 186.735 112 187V189H110V176ZM122 189H118V177H122V189ZM114 175H112V173H114V175ZM114 179H112V177H114V179ZM114 183H112V181H114V183ZM105 178H107V180H105V178ZM105 182H107V184H105V182ZM105 186H107V188H105V186ZM121 180H119V178H121V180ZM121 184H119V182H121V184ZM121 188H119V186H121V188Z" fill="white"/>
<g filter="url(#filter5_di_13830_98806)">
<rect x="97" y="232" width="32" height="32" rx="4" fill="#17A5E6"/>
<rect x="96" y="231" width="34" height="34" rx="5" stroke="#007CBE" stroke-width="2"/>
</g>
<g clip-path="url(#clip0_13830_98806)">
<path d="M115.733 245.701C116.433 246.401 117.567 246.401 118.267 245.701C118.966 245.001 118.966 243.867 118.267 243.167C117.567 242.468 116.433 242.468 115.733 243.167C115.034 243.867 115.034 245.001 115.733 245.701Z" fill="white"/>
<path fill-rule="evenodd" clip-rule="evenodd" d="M112.566 240C115.015 237.551 118.985 237.551 121.434 240C123.883 242.449 123.883 246.419 121.434 248.868C120.07 250.232 118.234 250.835 116.454 250.681L114.15 252.985C113.982 253.153 113.754 253.247 113.516 253.247L111.878 253.247L111.878 254.885C111.878 255.38 111.477 255.781 110.983 255.781L109.345 255.781L109.345 257.419C109.345 257.914 108.944 258.315 108.449 258.315L104.015 258.315C103.52 258.315 103.119 257.914 103.119 257.419L103.119 252.985C103.119 252.747 103.214 252.52 103.382 252.352L110.753 244.98C110.599 243.2 111.202 241.364 112.566 240ZM120.167 241.267C118.418 239.518 115.582 239.518 113.833 241.267C112.774 242.326 112.355 243.783 112.58 245.16C112.626 245.445 112.533 245.734 112.329 245.938L104.911 253.356L104.911 256.523L107.553 256.523L107.553 254.885C107.553 254.391 107.954 253.989 108.449 253.989L110.087 253.989L110.087 252.352C110.087 251.857 110.488 251.456 110.983 251.456L113.145 251.456L115.496 249.105C115.7 248.901 115.99 248.808 116.274 248.854C117.651 249.079 119.108 248.66 120.167 247.601C121.916 245.852 121.916 243.016 120.167 241.267Z" fill="white"/>
</g>
<g filter="url(#filter6_d_13830_98806)">
<path d="M97 372C97 369.791 98.7909 368 101 368H125C127.209 368 129 369.791 129 372V387.783C129 389.162 128.29 390.444 127.12 391.175L115.12 398.675C113.823 399.486 112.177 399.486 110.88 398.675L98.88 391.175C97.7105 390.444 97 389.162 97 387.783V372Z" fill="#E6B117"/>
<path d="M125 367C127.761 367 130 369.239 130 372V387.783C130 389.507 129.112 391.11 127.65 392.023L115.65 399.523C114.029 400.537 111.971 400.537 110.35 399.523L98.3496 392.023C96.8878 391.11 96.0001 389.507 96 387.783V372C96 369.239 98.2386 367 101 367H125Z" stroke="#AF850C" stroke-width="2"/>
</g>
<path d="M107.499 383.501C108.174 383.501 108.721 382.941 108.721 382.251C108.721 381.56 108.174 381.001 107.499 381.001C106.824 381.001 106.276 381.56 106.276 382.251C106.276 382.941 106.824 383.501 107.499 383.501Z" fill="white"/>
<path d="M119.314 382.251C119.314 382.941 118.766 383.501 118.091 383.501C117.416 383.501 116.869 382.941 116.869 382.251C116.869 381.56 117.416 381.001 118.091 381.001C118.766 381.001 119.314 381.56 119.314 382.251Z" fill="white"/>
<path fill-rule="evenodd" clip-rule="evenodd" d="M110.465 374.334C109.103 374.334 107.831 375.03 107.075 376.189L106.112 377.667H104.647C104.197 377.667 103.832 378.04 103.832 378.501C103.832 378.961 104.197 379.334 104.647 379.334H105.026L104.516 380.115C104.07 380.8 103.832 381.604 103.832 382.427V386.001C103.832 386.921 104.562 387.667 105.462 387.667H107.906C108.806 387.667 109.536 386.921 109.536 386.001V385.584H116.462V386.001C116.462 386.921 117.191 387.667 118.091 387.667H120.536C121.436 387.667 122.165 386.921 122.165 386.001V382.427C122.165 381.604 121.927 380.8 121.481 380.115L120.972 379.334H121.351C121.801 379.334 122.165 378.961 122.165 378.501C122.165 378.04 121.801 377.667 121.351 377.667H119.885L118.922 376.189C118.166 375.03 116.894 374.334 115.532 374.334H110.465ZM108.431 377.114C108.885 376.418 109.648 376.001 110.465 376.001H115.532C116.349 376.001 117.113 376.418 117.566 377.114L118.435 378.447C118.139 378.598 117.793 378.7 117.345 378.771C116.464 378.91 115.267 378.917 113.39 378.917H113.015C111.138 378.917 109.941 378.91 109.059 378.771C108.456 378.675 108.037 378.523 107.677 378.271L108.431 377.114ZM112.43 380.588C112.689 380.586 112.946 380.584 113.202 380.584C113.459 380.584 113.716 380.586 113.974 380.588C115.182 380.597 116.405 380.606 117.595 380.418C118.27 380.311 118.836 380.132 119.343 379.84L120.125 381.04C120.393 381.45 120.536 381.933 120.536 382.427V386.001H118.091V384.959C118.091 384.384 117.635 383.917 117.073 383.917H108.925C108.362 383.917 107.906 384.384 107.906 384.959V386.001H105.462V382.427C105.462 381.933 105.605 381.45 105.872 381.04L106.773 379.657C107.354 380.061 108.004 380.29 108.81 380.418C110 380.606 111.223 380.597 112.43 380.588Z" fill="white"/>
<g filter="url(#filter7_d_13830_98806)">
<path d="M97 304C97 301.791 98.7909 300 101 300H125C127.209 300 129 301.791 129 304V319.783C129 321.162 128.29 322.444 127.12 323.175L115.12 330.675C113.823 331.486 112.177 331.486 110.88 330.675L98.88 323.175C97.7105 322.444 97 321.162 97 319.783V304Z" fill="#1A9375"/>
<path d="M125 299C127.761 299 130 301.239 130 304V319.783C130 321.507 129.112 323.11 127.65 324.023L115.65 331.523C114.029 332.537 111.971 332.537 110.35 331.523L98.3496 324.023C96.8878 323.11 96.0001 321.507 96 319.783V304C96 301.239 98.2386 299 101 299H125Z" stroke="#126550" stroke-width="2"/>
</g>
<path d="M107.499 315.501C108.174 315.501 108.721 314.941 108.721 314.251C108.721 313.56 108.174 313.001 107.499 313.001C106.824 313.001 106.276 313.56 106.276 314.251C106.276 314.941 106.824 315.501 107.499 315.501Z" fill="white"/>
<path d="M119.314 314.251C119.314 314.941 118.766 315.501 118.091 315.501C117.416 315.501 116.869 314.941 116.869 314.251C116.869 313.56 117.416 313.001 118.091 313.001C118.766 313.001 119.314 313.56 119.314 314.251Z" fill="white"/>
<path fill-rule="evenodd" clip-rule="evenodd" d="M110.465 306.334C109.103 306.334 107.831 307.03 107.075 308.189L106.112 309.667H104.647C104.197 309.667 103.832 310.04 103.832 310.501C103.832 310.961 104.197 311.334 104.647 311.334H105.026L104.516 312.115C104.07 312.8 103.832 313.604 103.832 314.427V318.001C103.832 318.921 104.562 319.667 105.462 319.667H107.906C108.806 319.667 109.536 318.921 109.536 318.001V317.584H116.462V318.001C116.462 318.921 117.191 319.667 118.091 319.667H120.536C121.436 319.667 122.165 318.921 122.165 318.001V314.427C122.165 313.604 121.927 312.8 121.481 312.115L120.972 311.334H121.351C121.801 311.334 122.165 310.961 122.165 310.501C122.165 310.04 121.801 309.667 121.351 309.667H119.885L118.922 308.189C118.166 307.03 116.894 306.334 115.532 306.334H110.465ZM108.431 309.114C108.885 308.418 109.648 308.001 110.465 308.001H115.532C116.349 308.001 117.113 308.418 117.566 309.114L118.435 310.447C118.139 310.598 117.793 310.7 117.345 310.771C116.464 310.91 115.267 310.917 113.39 310.917H113.015C111.138 310.917 109.941 310.91 109.059 310.771C108.456 310.675 108.037 310.523 107.677 310.271L108.431 309.114ZM112.43 312.588C112.689 312.586 112.946 312.584 113.202 312.584C113.459 312.584 113.716 312.586 113.974 312.588C115.182 312.597 116.405 312.606 117.595 312.418C118.27 312.311 118.836 312.132 119.343 311.84L120.125 313.04C120.393 313.45 120.536 313.933 120.536 314.427V318.001H118.091V316.959C118.091 316.384 117.635 315.917 117.073 315.917H108.925C108.362 315.917 107.906 316.384 107.906 316.959V318.001H105.462V314.427C105.462 313.933 105.605 313.45 105.872 313.04L106.773 311.657C107.354 312.061 108.004 312.29 108.81 312.418C110 312.606 111.223 312.597 112.43 312.588Z" fill="white"/>
<g filter="url(#filter8_d_13830_98806)">
<path d="M97 440C97 437.791 98.7909 436 101 436H125C127.209 436 129 437.791 129 440V455.783C129 457.162 128.29 458.444 127.12 459.175L115.12 466.675C113.823 467.486 112.177 467.486 110.88 466.675L98.88 459.175C97.7105 458.444 97 457.162 97 455.783V440Z" fill="#E64B17"/>
<path d="M125 435C127.761 435 130 437.239 130 440V455.783C130 457.507 129.112 459.11 127.65 460.023L115.65 467.523C114.029 468.537 111.971 468.537 110.35 467.523L98.3496 460.023C96.8878 459.11 96.0001 457.507 96 455.783V440C96 437.239 98.2386 435 101 435H125Z" stroke="#AE340B" stroke-width="2"/>
</g>
<path d="M107.499 451.501C108.174 451.501 108.721 450.941 108.721 450.251C108.721 449.56 108.174 449.001 107.499 449.001C106.824 449.001 106.276 449.56 106.276 450.251C106.276 450.941 106.824 451.501 107.499 451.501Z" fill="white"/>
<path d="M119.314 450.251C119.314 450.941 118.766 451.501 118.091 451.501C117.416 451.501 116.869 450.941 116.869 450.251C116.869 449.56 117.416 449.001 118.091 449.001C118.766 449.001 119.314 449.56 119.314 450.251Z" fill="white"/>
<path fill-rule="evenodd" clip-rule="evenodd" d="M110.465 442.334C109.103 442.334 107.831 443.03 107.075 444.189L106.112 445.667H104.647C104.197 445.667 103.832 446.04 103.832 446.501C103.832 446.961 104.197 447.334 104.647 447.334H105.026L104.516 448.115C104.07 448.8 103.832 449.604 103.832 450.427V454.001C103.832 454.921 104.562 455.667 105.462 455.667H107.906C108.806 455.667 109.536 454.921 109.536 454.001V453.584H116.462V454.001C116.462 454.921 117.191 455.667 118.091 455.667H120.536C121.436 455.667 122.165 454.921 122.165 454.001V450.427C122.165 449.604 121.927 448.8 121.481 448.115L120.972 447.334H121.351C121.801 447.334 122.165 446.961 122.165 446.501C122.165 446.04 121.801 445.667 121.351 445.667H119.885L118.922 444.189C118.166 443.03 116.894 442.334 115.532 442.334H110.465ZM108.431 445.114C108.885 444.418 109.648 444.001 110.465 444.001H115.532C116.349 444.001 117.113 444.418 117.566 445.114L118.435 446.447C118.139 446.598 117.793 446.7 117.345 446.771C116.464 446.91 115.267 446.917 113.39 446.917H113.015C111.138 446.917 109.941 446.91 109.059 446.771C108.456 446.675 108.037 446.523 107.677 446.271L108.431 445.114ZM112.43 448.588C112.689 448.586 112.946 448.584 113.202 448.584C113.459 448.584 113.716 448.586 113.974 448.588C115.182 448.597 116.405 448.606 117.595 448.418C118.27 448.311 118.836 448.132 119.343 447.84L120.125 449.04C120.393 449.45 120.536 449.933 120.536 450.427V454.001H118.091V452.959C118.091 452.384 117.635 451.917 117.073 451.917H108.925C108.362 451.917 107.906 452.384 107.906 452.959V454.001H105.462V450.427C105.462 449.933 105.605 449.45 105.872 449.04L106.773 447.657C107.354 448.061 108.004 448.29 108.81 448.418C110 448.606 111.223 448.597 112.43 448.588Z" fill="white"/>
<defs>
<filter id="filter0_di_13830_98806" x="91" y="26" width="44" height="44" filterUnits="userSpaceOnUse" color-interpolation-filters="sRGB">
<feFlood flood-opacity="0" result="BackgroundImageFix"/>
<feColorMatrix in="SourceAlpha" type="matrix" values="0 0 0 0 0 0 0 0 0 0 0 0 0 0 0 0 0 0 127 0" result="hardAlpha"/>
<feOffset dy="4"/>
<feGaussianBlur stdDeviation="2"/>
<feComposite in2="hardAlpha" operator="out"/>
<feColorMatrix type="matrix" values="0 0 0 0 0 0 0 0 0 0 0 0 0 0 0 0 0 0 0.25 0"/>
<feBlend mode="normal" in2="BackgroundImageFix" result="effect1_dropShadow_13830_98806"/>
<feBlend mode="normal" in="SourceGraphic" in2="effect1_dropShadow_13830_98806" result="shape"/>
<feColorMatrix in="SourceAlpha" type="matrix" values="0 0 0 0 0 0 0 0 0 0 0 0 0 0 0 0 0 0 127 0" result="hardAlpha"/>
<feOffset/>
<feGaussianBlur stdDeviation="6"/>
<feComposite in2="hardAlpha" operator="arithmetic" k2="-1" k3="1"/>
<feColorMatrix type="matrix" values="0 0 0 0 0 0 0 0 0 0 0 0 0 0 0 0 0 0 0.15 0"/>
<feBlend mode="normal" in2="shape" result="effect2_innerShadow_13830_98806"/>
</filter>
<filter id="filter1_di_13830_98806" x="91" y="94" width="44" height="44" filterUnits="userSpaceOnUse" color-interpolation-filters="sRGB">
<feFlood flood-opacity="0" result="BackgroundImageFix"/>
<feColorMatrix in="SourceAlpha" type="matrix" values="0 0 0 0 0 0 0 0 0 0 0 0 0 0 0 0 0 0 127 0" result="hardAlpha"/>
<feOffset dy="4"/>
<feGaussianBlur stdDeviation="2"/>
<feComposite in2="hardAlpha" operator="out"/>
<feColorMatrix type="matrix" values="0 0 0 0 0 0 0 0 0 0 0 0 0 0 0 0 0 0 0.25 0"/>
<feBlend mode="normal" in2="BackgroundImageFix" result="effect1_dropShadow_13830_98806"/>
<feBlend mode="normal" in="SourceGraphic" in2="effect1_dropShadow_13830_98806" result="shape"/>
<feColorMatrix in="SourceAlpha" type="matrix" values="0 0 0 0 0 0 0 0 0 0 0 0 0 0 0 0 0 0 127 0" result="hardAlpha"/>
<feOffset/>
<feGaussianBlur stdDeviation="6"/>
<feComposite in2="hardAlpha" operator="arithmetic" k2="-1" k3="1"/>
<feColorMatrix type="matrix" values="0 0 0 0 0 0 0 0 0 0 0 0 0 0 0 0 0 0 0.15 0"/>
<feBlend mode="normal" in2="shape" result="effect2_innerShadow_13830_98806"/>
</filter>
<filter id="filter2_di_13830_98806" x="92" y="514" width="44" height="44" filterUnits="userSpaceOnUse" color-interpolation-filters="sRGB">
<feFlood flood-opacity="0" result="BackgroundImageFix"/>
<feColorMatrix in="SourceAlpha" type="matrix" values="0 0 0 0 0 0 0 0 0 0 0 0 0 0 0 0 0 0 127 0" result="hardAlpha"/>
<feOffset dy="4"/>
<feGaussianBlur stdDeviation="2"/>
<feComposite in2="hardAlpha" operator="out"/>
<feColorMatrix type="matrix" values="0 0 0 0 0 0 0 0 0 0 0 0 0 0 0 0 0 0 0.25 0"/>
<feBlend mode="normal" in2="BackgroundImageFix" result="effect1_dropShadow_13830_98806"/>
<feBlend mode="normal" in="SourceGraphic" in2="effect1_dropShadow_13830_98806" result="shape"/>
<feColorMatrix in="SourceAlpha" type="matrix" values="0 0 0 0 0 0 0 0 0 0 0 0 0 0 0 0 0 0 127 0" result="hardAlpha"/>
<feOffset/>
<feGaussianBlur stdDeviation="6"/>
<feComposite in2="hardAlpha" operator="arithmetic" k2="-1" k3="1"/>
<feColorMatrix type="matrix" values="0 0 0 0 0 0 0 0 0 0 0 0 0 0 0 0 0 0 0.15 0"/>
<feBlend mode="normal" in2="shape" result="effect2_innerShadow_13830_98806"/>
</filter>
<filter id="filter3_di_13830_98806" x="92" y="582" width="44" height="44" filterUnits="userSpaceOnUse" color-interpolation-filters="sRGB">
<feFlood flood-opacity="0" result="BackgroundImageFix"/>
<feColorMatrix in="SourceAlpha" type="matrix" values="0 0 0 0 0 0 0 0 0 0 0 0 0 0 0 0 0 0 127 0" result="hardAlpha"/>
<feOffset dy="4"/>
<feGaussianBlur stdDeviation="2"/>
<feComposite in2="hardAlpha" operator="out"/>
<feColorMatrix type="matrix" values="0 0 0 0 0 0 0 0 0 0 0 0 0 0 0 0 0 0 0.25 0"/>
<feBlend mode="normal" in2="BackgroundImageFix" result="effect1_dropShadow_13830_98806"/>
<feBlend mode="normal" in="SourceGraphic" in2="effect1_dropShadow_13830_98806" result="shape"/>
<feColorMatrix in="SourceAlpha" type="matrix" values="0 0 0 0 0 0 0 0 0 0 0 0 0 0 0 0 0 0 127 0" result="hardAlpha"/>
<feOffset/>
<feGaussianBlur stdDeviation="6"/>
<feComposite in2="hardAlpha" operator="arithmetic" k2="-1" k3="1"/>
<feColorMatrix type="matrix" values="0 0 0 0 0 0 0 0 0 0 0 0 0 0 0 0 0 0 0.15 0"/>
<feBlend mode="normal" in2="shape" result="effect2_innerShadow_13830_98806"/>
</filter>
<filter id="filter4_di_13830_98806" x="91" y="162" width="44" height="44" filterUnits="userSpaceOnUse" color-interpolation-filters="sRGB">
<feFlood flood-opacity="0" result="BackgroundImageFix"/>
<feColorMatrix in="SourceAlpha" type="matrix" values="0 0 0 0 0 0 0 0 0 0 0 0 0 0 0 0 0 0 127 0" result="hardAlpha"/>
<feOffset dy="4"/>
<feGaussianBlur stdDeviation="2"/>
<feComposite in2="hardAlpha" operator="out"/>
<feColorMatrix type="matrix" values="0 0 0 0 0 0 0 0 0 0 0 0 0 0 0 0 0 0 0.25 0"/>
<feBlend mode="normal" in2="BackgroundImageFix" result="effect1_dropShadow_13830_98806"/>
<feBlend mode="normal" in="SourceGraphic" in2="effect1_dropShadow_13830_98806" result="shape"/>
<feColorMatrix in="SourceAlpha" type="matrix" values="0 0 0 0 0 0 0 0 0 0 0 0 0 0 0 0 0 0 127 0" result="hardAlpha"/>
<feOffset/>
<feGaussianBlur stdDeviation="6"/>
<feComposite in2="hardAlpha" operator="arithmetic" k2="-1" k3="1"/>
<feColorMatrix type="matrix" values="0 0 0 0 0 0 0 0 0 0 0 0 0 0 0 0 0 0 0.15 0"/>
<feBlend mode="normal" in2="shape" result="effect2_innerShadow_13830_98806"/>
</filter>
<filter id="filter5_di_13830_98806" x="91" y="230" width="44" height="44" filterUnits="userSpaceOnUse" color-interpolation-filters="sRGB">
<feFlood flood-opacity="0" result="BackgroundImageFix"/>
<feColorMatrix in="SourceAlpha" type="matrix" values="0 0 0 0 0 0 0 0 0 0 0 0 0 0 0 0 0 0 127 0" result="hardAlpha"/>
<feOffset dy="4"/>
<feGaussianBlur stdDeviation="2"/>
<feComposite in2="hardAlpha" operator="out"/>
<feColorMatrix type="matrix" values="0 0 0 0 0 0 0 0 0 0 0 0 0 0 0 0 0 0 0.25 0"/>
<feBlend mode="normal" in2="BackgroundImageFix" result="effect1_dropShadow_13830_98806"/>
<feBlend mode="normal" in="SourceGraphic" in2="effect1_dropShadow_13830_98806" result="shape"/>
<feColorMatrix in="SourceAlpha" type="matrix" values="0 0 0 0 0 0 0 0 0 0 0 0 0 0 0 0 0 0 127 0" result="hardAlpha"/>
<feOffset/>
<feGaussianBlur stdDeviation="6"/>
<feComposite in2="hardAlpha" operator="arithmetic" k2="-1" k3="1"/>
<feColorMatrix type="matrix" values="0 0 0 0 0 0 0 0 0 0 0 0 0 0 0 0 0 0 0.15 0"/>
<feBlend mode="normal" in2="shape" result="effect2_innerShadow_13830_98806"/>
</filter>
<filter id="filter6_d_13830_98806" x="91" y="366" width="44" height="43.2832" filterUnits="userSpaceOnUse" color-interpolation-filters="sRGB">
<feFlood flood-opacity="0" result="BackgroundImageFix"/>
<feColorMatrix in="SourceAlpha" type="matrix" values="0 0 0 0 0 0 0 0 0 0 0 0 0 0 0 0 0 0 127 0" result="hardAlpha"/>
<feOffset dy="4"/>
<feGaussianBlur stdDeviation="2"/>
<feComposite in2="hardAlpha" operator="out"/>
<feColorMatrix type="matrix" values="0 0 0 0 0 0 0 0 0 0 0 0 0 0 0 0 0 0 0.25 0"/>
<feBlend mode="normal" in2="BackgroundImageFix" result="effect1_dropShadow_13830_98806"/>
<feBlend mode="normal" in="SourceGraphic" in2="effect1_dropShadow_13830_98806" result="shape"/>
</filter>
<filter id="filter7_d_13830_98806" x="91" y="298" width="44" height="43.2832" filterUnits="userSpaceOnUse" color-interpolation-filters="sRGB">
<feFlood flood-opacity="0" result="BackgroundImageFix"/>
<feColorMatrix in="SourceAlpha" type="matrix" values="0 0 0 0 0 0 0 0 0 0 0 0 0 0 0 0 0 0 127 0" result="hardAlpha"/>
<feOffset dy="4"/>
<feGaussianBlur stdDeviation="2"/>
<feComposite in2="hardAlpha" operator="out"/>
<feColorMatrix type="matrix" values="0 0 0 0 0 0 0 0 0 0 0 0 0 0 0 0 0 0 0.25 0"/>
<feBlend mode="normal" in2="BackgroundImageFix" result="effect1_dropShadow_13830_98806"/>
<feBlend mode="normal" in="SourceGraphic" in2="effect1_dropShadow_13830_98806" result="shape"/>
</filter>
<filter id="filter8_d_13830_98806" x="91" y="434" width="44" height="43.2832" filterUnits="userSpaceOnUse" color-interpolation-filters="sRGB">
<feFlood flood-opacity="0" result="BackgroundImageFix"/>
<feColorMatrix in="SourceAlpha" type="matrix" values="0 0 0 0 0 0 0 0 0 0 0 0 0 0 0 0 0 0 127 0" result="hardAlpha"/>
<feOffset dy="4"/>
<feGaussianBlur stdDeviation="2"/>
<feComposite in2="hardAlpha" operator="out"/>
<feColorMatrix type="matrix" values="0 0 0 0 0 0 0 0 0 0 0 0 0 0 0 0 0 0 0.25 0"/>
<feBlend mode="normal" in2="BackgroundImageFix" result="effect1_dropShadow_13830_98806"/>
<feBlend mode="normal" in="SourceGraphic" in2="effect1_dropShadow_13830_98806" result="shape"/>
</filter>
<clipPath id="clip0_13830_98806">
<rect width="24" height="24" fill="white" transform="translate(101 236)"/>
</clipPath>
</defs>
</svg>
