<svg width="62" height="62" viewBox="0 0 62 62" fill="none" xmlns="http://www.w3.org/2000/svg">
<path d="M17.7505 1.04904e-05C16.2315 1.04904e-05 15 1.23037 15 2.7481V13.1298H19.2786V4.27482L42.7214 4.27481V13.1298H47V2.74809C47 1.23036 45.7685 0 44.2495 0L17.7505 1.04904e-05Z" fill="#126550"/>
<path d="M39.8699 28V32.1014H33.9654V52.1707H28.9045V32.1014H23V28H39.8699Z" fill="#126550"/>
<path fill-rule="evenodd" clip-rule="evenodd" d="M0 19.8474C0 18.3296 1.23145 17.0993 2.75053 17.0993L59.2495 17.0992C60.7686 17.0992 62 18.3296 62 19.8473V59.2519C62 60.7696 60.7686 62 59.2495 62L2.75053 62C1.23143 62 0 60.7697 0 59.2519V19.8474ZM4.2786 21.3741V57.7252L57.7214 57.7252V21.3741L4.2786 21.3741Z" fill="#126550"/>
</svg>
