<svg width="197" height="58" viewBox="0 0 197 58" fill="none" xmlns="http://www.w3.org/2000/svg">
<path d="M94.2265 0H101.955C103.304 0 103.858 0.601296 103.616 1.80389L95.2727 43.2933C94.3295 47.9834 92.2487 51.6213 89.0301 54.2069C85.8849 56.7323 81.9203 57.995 77.1363 57.995H67.0163C62.171 57.995 58.6835 56.7323 56.5541 54.2069C54.4246 51.6814 53.8374 48.0436 54.7927 43.2933L63.1177 1.89408C63.3716 0.63136 64.1425 0 65.4305 0H73.2505C74.5385 0 75.0556 0.63136 74.8017 1.89408L66.5855 42.7522C66.1986 44.6763 66.3191 46.0593 66.9472 46.9011C67.6486 47.6828 68.9501 48.0736 70.8514 48.0736H77.1994C79.1621 48.0736 80.6207 47.6828 81.5752 46.9011C82.6031 46.0593 83.3106 44.6763 83.6975 42.7522L91.9137 1.89408C92.1676 0.63136 92.9385 0 94.2265 0Z" fill="#007CBE"/>
<path d="M108.745 57.995H101.109C99.8208 57.995 99.3037 57.3637 99.5576 56.101L110.458 1.89408C110.712 0.63136 111.483 0 112.771 0H119.671C120.959 0 121.733 0.420908 121.993 1.26272L133.703 35.4464H134.071L140.818 1.89408C141.072 0.63136 141.843 0 143.131 0H150.767C152.055 0 152.572 0.63136 152.318 1.89408L141.418 56.101C141.164 57.3637 140.393 57.995 139.105 57.995H132.389C131.039 57.995 130.179 57.3937 129.807 56.1911L118.155 22.6388H117.787L111.058 56.101C110.804 57.3637 110.033 57.995 108.745 57.995Z" fill="#007CBE"/>
<path fill-rule="evenodd" clip-rule="evenodd" d="M150.325 57.995H158.145C159.433 57.995 160.204 57.3637 160.458 56.101L164.176 37.6111C164.309 36.9497 164.744 36.6189 165.48 36.6189H171.644L176.926 56.101C177.076 56.8826 177.371 57.3937 177.814 57.6343C178.256 57.8748 179.029 57.995 180.133 57.995H187.585C189.18 57.995 189.846 57.2735 189.584 55.8304L183.785 35.717L183.858 35.3562C189.764 33.1314 193.4 28.6217 194.766 21.8271L196.181 14.7919C197.124 10.1018 196.506 6.46393 194.327 3.87836C192.149 1.29279 188.667 0 183.883 0H161.987C160.699 0 159.928 0.63136 159.675 1.89408L148.774 56.101C148.52 57.3637 149.037 57.995 150.325 57.995ZM176.254 27.4191H167.238C166.563 27.4191 166.292 27.0884 166.425 26.427L169.545 10.9135C169.678 10.2521 170.082 9.92139 170.756 9.92139H179.772C181.735 9.92139 183.092 10.3423 183.842 11.1841C184.593 12.0259 184.781 13.3788 184.406 15.2429L182.992 22.278C182.629 24.0819 181.903 25.4048 180.813 26.2466C179.736 27.0283 178.216 27.4191 176.254 27.4191Z" fill="#007CBE"/>
<path d="M23.3954 9.92212H13.4754L11.5201 19.6455H21.4401L23.3954 9.92212Z" fill="#007CBE"/>
<path d="M1.59987 19.6455L11.5201 19.6455L9.56459 29.3689H1.64459C0.540022 29.3689 -0.178877 28.491 0.0388825 27.4081L1.59987 19.6455Z" fill="#007CBE"/>
<path d="M7.5823 0.19873C6.47773 0.19873 5.40577 1.07659 5.18801 2.15948L3.62702 9.92211H13.547L15.5023 0.19873H7.5823Z" fill="#007CBE"/>
<path d="M29.4199 29.3689L24.0443 56.1012C23.7904 57.3639 24.3381 57.9953 25.6874 57.9953H33.4154C34.7034 57.9953 35.4744 57.3639 35.7283 56.1012L44.8151 10.9138C44.9481 10.2523 45.3826 9.92163 46.1186 9.92163H56.6066C57.8946 9.92163 58.6655 9.29027 58.9195 8.02755L60.1528 1.89433C60.4067 0.631605 59.8897 0.000244141 58.6017 0.000244141H25.401L23.3954 9.92212L32.3186 9.92163C32.9932 9.92163 33.2641 10.2523 33.1311 10.9138L31.3752 19.6455H21.3933L19.4381 29.3689H29.4199Z" fill="#007CBE"/>
</svg>
