<svg width="225" height="84" viewBox="0 0 225 84" fill="none" xmlns="http://www.w3.org/2000/svg">
<path d="M82.543 2C81.0239 2 79.7924 3.23036 79.7924 4.74809V15.1298H84.071V6.27481H140.915V15.1298H145.194V4.74809C145.194 3.23036 143.962 2 142.443 2H82.543Z" fill="#126550"/>
<path d="M33.0701 33.0888V37.1902H27.1656V68.2595H22.1046V37.1902H16.2001V33.0888H33.0701Z" fill="#126550"/>
<path fill-rule="evenodd" clip-rule="evenodd" d="M49.1286 33.0888H55.3704C58.8569 33.0888 60.6001 34.7369 60.6001 38.033V63.3154C60.6001 66.6115 58.8569 68.2595 55.3704 68.2595H49.1286C45.6046 68.2595 43.8426 66.6115 43.8426 63.3154V38.033C43.8426 34.7369 45.6046 33.0888 49.1286 33.0888ZM55.5391 62.5288V38.8195C55.5391 38.1453 55.4267 37.7146 55.2017 37.5273C54.9768 37.3026 54.5269 37.1902 53.8521 37.1902H50.5906C49.9158 37.1902 49.466 37.3026 49.241 37.5273C49.0536 37.7146 48.9599 38.1453 48.9599 38.8195V62.5288C48.9599 63.203 49.0536 63.6525 49.241 63.8772C49.466 64.0645 49.9158 64.1581 50.5906 64.1581H53.8521C54.5269 64.1581 54.9768 64.0645 55.2017 63.8772C55.4267 63.6525 55.5391 63.203 55.5391 62.5288Z" fill="#126550"/>
<path fill-rule="evenodd" clip-rule="evenodd" d="M79.0771 33.0888H85.3189C88.8054 33.0888 90.5486 34.7369 90.5486 38.033V63.3154C90.5486 66.6115 88.8054 68.2595 85.3189 68.2595H79.0771C75.5531 68.2595 73.7911 66.6115 73.7911 63.3154V38.033C73.7911 34.7369 75.5531 33.0888 79.0771 33.0888ZM85.4876 62.5288V38.8195C85.4876 38.1453 85.3752 37.7146 85.1502 37.5273C84.9253 37.3026 84.4754 37.1902 83.8006 37.1902H80.5391C79.8643 37.1902 79.4145 37.3026 79.1895 37.5273C79.0021 37.7146 78.9084 38.1453 78.9084 38.8195V62.5288C78.9084 63.203 79.0021 63.6525 79.1895 63.8772C79.4145 64.0645 79.8643 64.1581 80.5391 64.1581H83.8006C84.4754 64.1581 84.9253 64.0645 85.1502 63.8772C85.3752 63.6525 85.4876 63.203 85.4876 62.5288Z" fill="#126550"/>
<path d="M109.082 64.1581H117.798V68.2595H104.021V33.0888H109.082V64.1581Z" fill="#126550"/>
<path fill-rule="evenodd" clip-rule="evenodd" d="M128.807 33.0888H141.01C144.534 33.0888 146.296 34.7369 146.296 38.033V46.9661C146.296 48.9512 145.546 50.1123 144.046 50.4494C145.546 50.824 146.296 51.9102 146.296 53.7081V63.3154C146.296 66.6115 144.534 68.2595 141.01 68.2595H128.807V33.0888ZM141.179 46.7414V38.7072C141.179 38.033 141.066 37.6022 140.841 37.4149C140.616 37.1902 140.166 37.0778 139.492 37.0778H133.868V48.3707H139.492C140.166 48.3707 140.616 48.277 140.841 48.0898C141.066 47.865 141.179 47.4156 141.179 46.7414ZM141.179 62.6412V53.989C141.179 53.3148 141.066 52.8841 140.841 52.6968C140.616 52.472 140.166 52.3597 139.492 52.3597H133.868V64.2705H139.492C140.166 64.2705 140.616 64.1769 140.841 63.9896C141.066 63.7649 141.179 63.3154 141.179 62.6412Z" fill="#126550"/>
<path fill-rule="evenodd" clip-rule="evenodd" d="M164.694 33.0888H170.936C174.422 33.0888 176.166 34.7369 176.166 38.033V63.3154C176.166 66.6115 174.422 68.2595 170.936 68.2595H164.694C161.17 68.2595 159.408 66.6115 159.408 63.3154V38.033C159.408 34.7369 161.17 33.0888 164.694 33.0888ZM171.105 62.5288V38.8195C171.105 38.1453 170.992 37.7146 170.767 37.5273C170.542 37.3026 170.092 37.1902 169.418 37.1902H166.156C165.481 37.1902 165.031 37.3026 164.807 37.5273C164.619 37.7146 164.525 38.1453 164.525 38.8195V62.5288C164.525 63.203 164.619 63.6525 164.807 63.8772C165.031 64.0645 165.481 64.1581 166.156 64.1581H169.418C170.092 64.1581 170.542 64.0645 170.767 63.8772C170.992 63.6525 171.105 63.203 171.105 62.5288Z" fill="#126550"/>
<path d="M199.929 50.2809L207.464 68.2595H201.84L197.117 54.8879L192.393 68.2595H186.939L194.361 50.2809L187.445 33.0888H193.068L197.117 45.7301L201.222 33.0888H206.733L199.929 50.2809Z" fill="#126550"/>
<path fill-rule="evenodd" clip-rule="evenodd" d="M6.75053 19.0992C5.23145 19.0992 4 20.3296 4 21.8473V79.2519C4 80.7696 5.23143 82 6.75053 82H218.236C219.755 82 220.986 80.7696 220.986 79.2519V21.8473C220.986 20.3296 219.755 19.0992 218.236 19.0992H6.75053ZM8.2786 77.7252V23.3741H216.708V77.7252H8.2786Z" fill="#126550"/>
</svg>
