<?xml version="1.0" encoding="UTF-8"?>
<svg xmlns="http://www.w3.org/2000/svg" viewBox="89 511 50 55" width="48" height="48" fill="none">
<g filter="url(#filter2_di_mm_sig)">
<rect x="98" y="516" width="32" height="32" rx="4" fill="#1A9375"/>
<rect x="97" y="515" width="34" height="34" rx="5" stroke="#126550" stroke-width="2"/>
</g>
<path d="M108.037 526.667C108.405 526.255 108.37 525.623 107.959 525.255C107.547 524.887 106.915 524.922 106.547 525.333C104.964 527.102 104 529.439 104 532C104 534.561 104.964 536.898 106.547 538.667C106.915 539.078 107.547 539.113 107.959 538.745C108.37 538.377 108.405 537.745 108.037 537.333C106.769 535.917 106 534.05 106 532C106 529.95 106.769 528.083 108.037 526.667Z" fill="white"/>
<path d="M121.453 525.333C121.085 524.922 120.453 524.887 120.041 525.255C119.63 525.623 119.595 526.255 119.963 526.667C121.231 528.083 122 529.95 122 532C122 534.05 121.231 535.917 119.963 537.333C119.595 537.745 119.63 538.377 120.041 538.745C120.453 539.113 121.085 539.078 121.453 538.667C123.036 536.898 124 534.561 124 532C124 529.439 123.036 527.102 121.453 525.333Z" fill="white"/>
<path d="M110.6 528.2C111.042 528.532 111.131 529.159 110.799 529.601C110.297 530.269 110 531.098 110 532C110 532.902 110.297 533.731 110.799 534.399C111.131 534.841 111.042 535.468 110.6 535.8C110.159 536.131 109.532 536.042 109.2 535.601C108.447 534.598 108 533.35 108 532C108 530.65 108.447 529.402 109.2 528.399C109.532 527.958 110.159 527.869 110.6 528.2Z" fill="white"/>
<path d="M117.4 528.2C117.841 527.869 118.468 527.958 118.8 528.399C119.553 529.402 120 530.65 120 532C120 533.35 119.553 534.598 118.8 535.601C118.468 536.042 117.841 536.131 117.4 535.8C116.958 535.468 116.869 534.841 117.201 534.399C117.703 533.731 118 532.902 118 532C118 531.098 117.703 530.269 117.201 529.601C116.869 529.159 116.958 528.532 117.4 528.2Z" fill="white"/>
<path d="M116 532C116 533.105 115.105 534 114 534C112.895 534 112 533.105 112 532C112 530.895 112.895 530 114 530C115.105 530 116 530.895 116 532Z" fill="white"/>
<defs>
<filter id="filter2_di_mm_sig" x="92" y="514" width="44" height="44" filterUnits="userSpaceOnUse" color-interpolation-filters="sRGB">
<feFlood flood-opacity="0" result="BackgroundImageFix"/>
<feColorMatrix in="SourceAlpha" type="matrix" values="0 0 0 0 0 0 0 0 0 0 0 0 0 0 0 0 0 0 127 0" result="hardAlpha"/>
<feOffset dy="4"/>
<feGaussianBlur stdDeviation="2"/>
<feComposite in2="hardAlpha" operator="out"/>
<feColorMatrix type="matrix" values="0 0 0 0 0 0 0 0 0 0 0 0 0 0 0 0 0 0 0.25 0"/>
<feBlend mode="normal" in2="BackgroundImageFix" result="effect1_dropShadow_mm_sig"/>
<feBlend mode="normal" in="SourceGraphic" in2="effect1_dropShadow_mm_sig" result="shape"/>
<feColorMatrix in="SourceAlpha" type="matrix" values="0 0 0 0 0 0 0 0 0 0 0 0 0 0 0 0 0 0 127 0" result="hardAlpha"/>
<feOffset/>
<feGaussianBlur stdDeviation="6"/>
<feComposite in2="hardAlpha" operator="arithmetic" k2="-1" k3="1"/>
<feColorMatrix type="matrix" values="0 0 0 0 0 0 0 0 0 0 0 0 0 0 0 0 0 0 0.15 0"/>
<feBlend mode="normal" in2="shape" result="effect2_innerShadow_mm_sig"/>
</filter>
</defs>
</svg>
