<?xml version="1.0" encoding="UTF-8"?>
<svg xmlns="http://www.w3.org/2000/svg" viewBox="89 579 50 55" width="48" height="48" fill="none">
<g filter="url(#filter3_di_mm_sge)">
<rect x="98" y="584" width="32" height="32" rx="4" fill="#E50C0C"/>
<rect x="97" y="583" width="34" height="34" rx="5" stroke="#8B0505" stroke-width="2"/>
</g>
<path d="M108.037 594.667C108.405 594.255 108.37 593.623 107.959 593.255C107.547 592.887 106.915 592.922 106.547 593.333C104.964 595.102 104 597.439 104 600C104 602.561 104.964 604.898 106.547 606.667C106.915 607.078 107.547 607.113 107.959 606.745C108.37 606.377 108.405 605.745 108.037 605.333C106.769 603.917 106 602.05 106 600C106 597.95 106.769 596.083 108.037 594.667Z" fill="white"/>
<path d="M121.453 593.333C121.085 592.922 120.453 592.887 120.041 593.255C119.63 593.623 119.595 594.255 119.963 594.667C121.231 596.083 122 597.95 122 600C122 602.05 121.231 603.917 119.963 605.333C119.595 605.745 119.63 606.377 120.041 606.745C120.453 607.113 121.085 607.078 121.453 606.667C123.036 604.898 124 602.561 124 600C124 597.439 123.036 595.102 121.453 593.333Z" fill="white"/>
<path d="M110.6 596.2C111.042 596.532 111.131 597.159 110.799 597.601C110.297 598.269 110 599.098 110 600C110 600.902 110.297 601.731 110.799 602.399C111.131 602.841 111.042 603.468 110.6 603.8C110.159 604.131 109.532 604.042 109.2 603.601C108.447 602.598 108 601.35 108 600C108 598.65 108.447 597.402 109.2 596.399C109.532 595.958 110.159 595.869 110.6 596.2Z" fill="white"/>
<path d="M117.4 596.2C117.841 595.869 118.468 595.958 118.8 596.399C119.553 597.402 120 598.65 120 600C120 601.35 119.553 602.598 118.8 603.601C118.468 604.042 117.841 604.131 117.4 603.8C116.958 603.468 116.869 602.841 117.201 602.399C117.703 601.731 118 600.902 118 600C118 599.098 117.703 598.269 117.201 597.601C116.869 597.159 116.958 596.532 117.4 596.2Z" fill="white"/>
<path d="M116 600C116 601.105 115.105 602 114 602C112.895 602 112 601.105 112 600C112 598.895 112.895 598 114 598C115.105 598 116 598.895 116 600Z" fill="white"/>
<defs>
<filter id="filter3_di_mm_sge" x="92" y="582" width="44" height="44" filterUnits="userSpaceOnUse" color-interpolation-filters="sRGB">
<feFlood flood-opacity="0" result="BackgroundImageFix"/>
<feColorMatrix in="SourceAlpha" type="matrix" values="0 0 0 0 0 0 0 0 0 0 0 0 0 0 0 0 0 0 127 0" result="hardAlpha"/>
<feOffset dy="4"/>
<feGaussianBlur stdDeviation="2"/>
<feComposite in2="hardAlpha" operator="out"/>
<feColorMatrix type="matrix" values="0 0 0 0 0 0 0 0 0 0 0 0 0 0 0 0 0 0 0.25 0"/>
<feBlend mode="normal" in2="BackgroundImageFix" result="effect1_dropShadow_mm_sge"/>
<feBlend mode="normal" in="SourceGraphic" in2="effect1_dropShadow_mm_sge" result="shape"/>
<feColorMatrix in="SourceAlpha" type="matrix" values="0 0 0 0 0 0 0 0 0 0 0 0 0 0 0 0 0 0 127 0" result="hardAlpha"/>
<feOffset/>
<feGaussianBlur stdDeviation="6"/>
<feComposite in2="hardAlpha" operator="arithmetic" k2="-1" k3="1"/>
<feColorMatrix type="matrix" values="0 0 0 0 0 0 0 0 0 0 0 0 0 0 0 0 0 0 0.15 0"/>
<feBlend mode="normal" in2="shape" result="effect2_innerShadow_mm_sge"/>
</filter>
</defs>
</svg>
