<svg width="24" height="24" viewBox="0 0 24 24" fill="none" xmlns="http://www.w3.org/2000/svg">
<path fill-rule="evenodd" clip-rule="evenodd" d="M2.36575 1.22688C2.60323 1.03206 2.91708 0.957188 3.21693 1.02382L4.93122 1.40478C5.47035 1.52458 5.81028 2.05876 5.69047 2.59789C5.57067 3.13703 5.03649 3.47696 4.49736 3.35715L4.02774 3.25279L4.04157 3.88283C4.05369 4.43498 3.61591 4.89241 3.06376 4.90453C2.51161 4.91665 2.05417 4.47887 2.04205 3.92672L2.00024 2.02196C1.9935 1.71486 2.12827 1.4217 2.36575 1.22688ZM6.30953 2.73546C6.42933 2.19633 6.96351 1.8564 7.50265 1.9762L10.9312 2.73811C11.4704 2.85792 11.8103 3.39209 11.6905 3.93123C11.5707 4.47036 11.0365 4.81029 10.4974 4.69048L7.06878 3.92858C6.52965 3.80877 6.18972 3.27459 6.30953 2.73546ZM12.3095 4.06879C12.4293 3.52966 12.9635 3.18973 13.5026 3.30954L16.9312 4.07144C17.4704 4.19125 17.8103 4.72543 17.6905 5.26456C17.5707 5.80369 17.0365 6.14362 16.4974 6.02382L13.0688 5.26191C12.5297 5.1421 12.1897 4.60793 12.3095 4.06879ZM18.3095 5.40213C18.4293 4.86299 18.9635 4.52306 19.5026 4.64287L21.2169 5.02382C21.7264 5.13703 22.0631 5.62298 21.9902 6.13974L21.7393 7.91752C21.6621 8.46438 21.1563 8.84515 20.6094 8.76798C20.0625 8.69081 19.6818 8.18492 19.7589 7.63806L19.8806 6.77566L19.0688 6.59524C18.5297 6.47544 18.1897 5.94126 18.3095 5.40213ZM3.08258 5.76216C3.63474 5.75004 4.09217 6.18782 4.10429 6.73997L4.18791 10.5495C4.20003 11.1016 3.76225 11.5591 3.2101 11.5712C2.65795 11.5833 2.20052 11.1455 2.18839 10.5934L2.10477 6.78386C2.09265 6.23171 2.53043 5.77428 3.08258 5.76216ZM20.5126 9.45426C21.0594 9.53144 21.4402 10.0373 21.363 10.5842L20.8613 14.1397C20.7841 14.6866 20.2782 15.0674 19.7313 14.9902C19.1845 14.913 18.8037 14.4071 18.8809 13.8603L19.3826 10.3047C19.4598 9.75786 19.9657 9.37709 20.5126 9.45426ZM3.22893 12.4288C3.78108 12.4167 4.23851 12.8545 4.25063 13.4066L4.33425 17.2162C4.34637 17.7683 3.90859 18.2257 3.35644 18.2379C2.80429 18.25 2.34686 17.8122 2.33474 17.2601L2.25111 13.4505C2.23899 12.8984 2.67677 12.4409 3.22893 12.4288ZM19.6345 15.6765C20.1814 15.7537 20.5621 16.2595 20.485 16.8064L20.2341 18.5842C20.176 18.996 19.8691 19.3288 19.4634 19.4201L17.2055 19.928C16.6667 20.0492 16.1317 19.7107 16.0104 19.1719C15.8892 18.6331 16.2278 18.098 16.7666 17.9768L18.3503 17.6205L18.5046 16.5269C18.5818 15.9801 19.0876 15.5993 19.6345 15.6765ZM14.5749 19.4948C14.6961 20.0336 14.3576 20.5687 13.8188 20.6899L9.3031 21.7058C8.76429 21.827 8.22922 21.4885 8.10801 20.9496C7.98679 20.4108 8.32533 19.8758 8.86414 19.7546L13.3798 18.7387C13.9186 18.6175 14.4537 18.956 14.5749 19.4948ZM3.37527 19.0955C3.92742 19.0834 4.38485 19.5212 4.39697 20.0733L4.41196 20.7561L5.47738 20.5165C6.0162 20.3952 6.55127 20.7338 6.67248 21.2726C6.7937 21.8114 6.45516 22.3465 5.91634 22.4677L3.65851 22.9756C3.36589 23.0415 3.05917 22.9725 2.82292 22.7877C2.58668 22.6029 2.44585 22.3218 2.43927 22.022L2.39745 20.1172C2.38533 19.565 2.82312 19.1076 3.37527 19.0955Z" fill="#111111"/>
</svg>
