<svg width="24" height="24" viewBox="0 0 24 24" fill="none" xmlns="http://www.w3.org/2000/svg">
<path d="M12.4207 3.10686C12.5531 3.16564 12.6718 3.25153 12.769 3.35899L17.769 9.35899C17.891 9.50504 17.9687 9.68286 17.9932 9.87156C18.0176 10.0603 17.9877 10.252 17.907 10.4243C17.8262 10.5966 17.698 10.7423 17.5373 10.8443C17.3767 10.9463 17.1903 11.0003 17 11H7C6.80971 11.0003 6.6233 10.9463 6.46265 10.8443C6.302 10.7423 6.17377 10.5966 6.09303 10.4243C6.01229 10.252 5.98238 10.0603 6.00682 9.87156C6.03126 9.68286 6.10903 9.50504 6.231 9.35899L11.231 3.35899C11.3282 3.25153 11.4469 3.16564 11.5793 3.10686C11.7118 3.04807 11.8551 3.0177 12 3.0177C12.1449 3.0177 12.2882 3.04807 12.4207 3.10686Z" fill="#CBCBCB"/>
<path d="M7 13H17C17.1903 12.9997 17.3767 13.0537 17.5373 13.1557C17.698 13.2577 17.8262 13.4034 17.907 13.5757C17.9877 13.748 18.0176 13.9397 17.9932 14.1284C17.9687 14.3171 17.891 14.4949 17.769 14.641L12.769 20.641C12.6752 20.7539 12.5576 20.8447 12.4247 20.9071C12.2918 20.9694 12.1468 21.0017 12 21.0017C11.8532 21.0017 11.7082 20.9694 11.5753 20.9071C11.4424 20.8447 11.3248 20.7539 11.231 20.641L6.231 14.641C6.10903 14.4949 6.03126 14.3171 6.00682 14.1284C5.98238 13.9397 6.01229 13.748 6.09303 13.5757C6.17377 13.4034 6.302 13.2577 6.46265 13.1557C6.6233 13.0537 6.80971 12.9997 7 13Z" fill="#CBCBCB"/>
</svg>
