<svg width="16" height="16" viewBox="0 0 16 16" fill="none" xmlns="http://www.w3.org/2000/svg">
<path d="M3.6013 9.99935C4.14131 9.99935 4.57908 9.55163 4.57908 8.99935C4.57908 8.44706 4.14131 7.99935 3.6013 7.99935C3.06129 7.99935 2.62352 8.44706 2.62352 8.99935C2.62352 9.55163 3.06129 9.99935 3.6013 9.99935Z" fill="#79716B"/>
<path d="M13.0532 8.99935C13.0532 9.55163 12.6154 9.99935 12.0754 9.99935C11.5354 9.99935 11.0976 9.55163 11.0976 8.99935C11.0976 8.44706 11.5354 7.99935 12.0754 7.99935C12.6154 7.99935 13.0532 8.44706 13.0532 8.99935Z" fill="#79716B"/>
<path fill-rule="evenodd" clip-rule="evenodd" d="M5.97452 2.66602C4.88478 2.66602 3.86714 3.22302 3.26265 4.15035L2.49195 5.33268H1.31982C0.959813 5.33268 0.667969 5.63116 0.667969 5.99935C0.667969 6.36754 0.959813 6.66602 1.31982 6.66602H1.62281L1.21536 7.29108C0.858433 7.83864 0.667969 8.482 0.667969 9.14008V11.9993C0.667969 12.7357 1.25166 13.3327 1.97167 13.3327H3.92723C4.64724 13.3327 5.23093 12.7357 5.23093 11.9993V11.666H10.7717V11.9993C10.7717 12.7357 11.3554 13.3327 12.0754 13.3327H14.0309C14.7509 13.3327 15.3346 12.7357 15.3346 11.9993V9.14008C15.3346 8.482 15.1442 7.83864 14.7872 7.29108L14.3798 6.66602H14.6828C15.0428 6.66602 15.3346 6.36754 15.3346 5.99935C15.3346 5.63116 15.0428 5.33268 14.6828 5.33268H13.5107L12.74 4.15035C12.1355 3.22302 11.1178 2.66602 10.0281 2.66602H5.97452ZM4.3474 4.88995C4.71009 4.33355 5.32068 3.99935 5.97452 3.99935H10.0281C10.6819 3.99935 11.2925 4.33355 11.6552 4.88995L12.3503 5.95629C12.1138 6.07711 11.837 6.15886 11.4787 6.21552C10.7734 6.32707 9.81557 6.33245 8.31431 6.33268H8.01422C6.51296 6.33245 5.55513 6.32707 4.84981 6.21552C4.36682 6.13914 4.03196 6.01716 3.74418 5.81535L4.3474 4.88995ZM7.54671 7.66913C7.75319 7.66758 7.9592 7.66603 8.16426 7.66603C8.36933 7.66603 8.57528 7.66758 8.78177 7.66913C9.7481 7.67639 10.7261 7.68374 11.678 7.53319C12.2186 7.4477 12.6711 7.30473 13.0769 7.07094L13.7025 8.03068C13.9167 8.35922 14.0309 8.74523 14.0309 9.14008V11.9993H12.0754V11.166C12.0754 10.7058 11.7106 10.3327 11.2606 10.3327H4.74204C4.29203 10.3327 3.92723 10.7058 3.92723 11.166V11.9993H1.97167V9.14008C1.97167 8.74523 2.08595 8.35922 2.30011 8.03068L3.021 6.92476C3.4856 7.24724 4.00536 7.43115 4.65057 7.53319C5.60246 7.68374 6.58037 7.67639 7.54671 7.66913Z" fill="#79716B"/>
</svg>
