<svg width="16" height="16" viewBox="0 0 16 16" fill="none" xmlns="http://www.w3.org/2000/svg">
<path d="M9.33464 2.00065C9.33464 1.63246 9.63311 1.33398 10.0013 1.33398H12.0013C12.3695 1.33398 12.668 1.63246 12.668 2.00065C12.668 2.36884 12.3695 2.66732 12.0013 2.66732H10.0013C9.63311 2.66732 9.33464 2.36884 9.33464 2.00065Z" fill="#111111"/>
<path fill-rule="evenodd" clip-rule="evenodd" d="M2.0013 3.33398C1.26492 3.33398 0.667969 3.93094 0.667969 4.66732V13.334C0.667969 14.0704 1.26492 14.6673 2.0013 14.6673H14.0013C14.7377 14.6673 15.3346 14.0704 15.3346 13.334V4.66732C15.3346 3.93094 14.7377 3.33398 14.0013 3.33398H2.0013ZM14.0013 4.66732H2.0013L2.0013 13.334H14.0013V4.66732Z" fill="#111111"/>
<path d="M4.0013 1.33398C3.63311 1.33398 3.33464 1.63246 3.33464 2.00065C3.33464 2.36884 3.63311 2.66732 4.0013 2.66732H6.0013C6.36949 2.66732 6.66797 2.36884 6.66797 2.00065C6.66797 1.63246 6.36949 1.33398 6.0013 1.33398H4.0013Z" fill="#111111"/>
<rect x="2.66797" y="5.33398" width="10.6667" height="7.33333" fill="#00B397"/>
</svg>
