<svg width="20" height="20" viewBox="0 0 20 20" fill="none" xmlns="http://www.w3.org/2000/svg">
<path fill-rule="evenodd" clip-rule="evenodd" d="M17.5 5.83341H2.49998L2.49998 16.6667H17.5V5.83341ZM2.49998 4.16675C1.57951 4.16675 0.833313 4.91294 0.833313 5.83341V16.6667C0.833313 17.5872 1.5795 18.3334 2.49998 18.3334H17.5C18.4205 18.3334 19.1666 17.5872 19.1666 16.6667V5.83341C19.1666 4.91294 18.4205 4.16675 17.5 4.16675H2.49998Z" fill="#111111"/>
<path d="M11.6666 2.50008C11.6666 2.03984 12.0397 1.66675 12.5 1.66675H15C15.4602 1.66675 15.8333 2.03984 15.8333 2.50008C15.8333 2.96032 15.4602 3.33341 15 3.33341H12.5C12.0397 3.33341 11.6666 2.96032 11.6666 2.50008Z" fill="#111111"/>
<path d="M4.16665 2.50008C4.16665 2.03984 4.53974 1.66675 4.99998 1.66675H7.49998C7.96022 1.66675 8.33331 2.03984 8.33331 2.50008C8.33331 2.96032 7.96022 3.33341 7.49998 3.33341H4.99998C4.53974 3.33341 4.16665 2.96032 4.16665 2.50008Z" fill="#111111"/>
<rect x="3.33331" y="12.5" width="13.3333" height="3.33333" fill="#E50C0C"/>
</svg>
