<svg width="20" height="20" viewBox="0 0 20 20" fill="none" xmlns="http://www.w3.org/2000/svg">
<path d="M15.8334 16.6668H4.16669V17.5002C4.16669 17.9604 3.79359 18.3335 3.33335 18.3335H2.50002C2.03979 18.3335 1.66669 17.9604 1.66669 17.5002V9.16683L3.73377 4.34363C3.9964 3.73082 4.59897 3.3335 5.26568 3.3335H14.7344C15.4011 3.3335 16.0036 3.73082 16.2663 4.34363L18.3334 9.16683V17.5002C18.3334 17.9604 17.9603 18.3335 17.5 18.3335H16.6667C16.2064 18.3335 15.8334 17.9604 15.8334 17.5002V16.6668ZM16.6667 10.8335H3.33335V15.0002H16.6667V10.8335ZM3.47997 9.16683H16.5201L14.7344 5.00016H5.26568L3.47997 9.16683ZM5.41669 14.1668C4.72633 14.1668 4.16669 13.6072 4.16669 12.9168C4.16669 12.2265 4.72633 11.6668 5.41669 11.6668C6.10705 11.6668 6.66669 12.2265 6.66669 12.9168C6.66669 13.6072 6.10705 14.1668 5.41669 14.1668ZM14.5834 14.1668C13.893 14.1668 13.3334 13.6072 13.3334 12.9168C13.3334 12.2265 13.893 11.6668 14.5834 11.6668C15.2737 11.6668 15.8334 12.2265 15.8334 12.9168C15.8334 13.6072 15.2737 14.1668 14.5834 14.1668Z" fill="#111111"/>
</svg>
