<svg width="20" height="20" viewBox="0 0 20 20" fill="none" xmlns="http://www.w3.org/2000/svg">
<path d="M7.49998 6.66667C7.49998 6.20643 7.87308 5.83333 8.33331 5.83333H11.6666C12.1269 5.83333 12.5 6.20643 12.5 6.66667V10C12.5 10.4602 12.1269 10.8333 11.6666 10.8333H8.33331C7.87308 10.8333 7.49998 10.4602 7.49998 10V6.66667Z" fill="#111111"/>
<path fill-rule="evenodd" clip-rule="evenodd" d="M11.6666 0H12.5V1.66667H13.3333V0H14.1666V1.66667C14.6269 1.66667 15 2.03976 15 2.5C15.9205 2.5 16.6666 3.24619 16.6666 4.16667V18.3333C16.6666 19.2538 15.9205 20 15 20H4.99998C4.07951 20 3.33331 19.2538 3.33331 18.3333V4.16667C3.33331 3.24619 4.07951 2.5 4.99998 2.5H10.8333C10.8333 2.03976 11.2064 1.66667 11.6666 1.66667V0ZM15 4.16667H4.99998V5.83333C5.46022 5.83333 5.83331 6.20643 5.83331 6.66667V8.33333C5.83331 8.79357 5.46022 9.16667 4.99998 9.16667V13.3333C5.46022 13.3333 5.83331 13.7064 5.83331 14.1667V15.8333C5.83331 16.2936 5.46022 16.6667 4.99998 16.6667V18.3333H15V16.6667C14.5397 16.6667 14.1666 16.2936 14.1666 15.8333V14.1667C14.1666 13.7064 14.5397 13.3333 15 13.3333V9.16667C14.5397 9.16667 14.1666 8.79357 14.1666 8.33333V6.66667C14.1666 6.20643 14.5397 5.83333 15 5.83333V4.16667Z" fill="#111111"/>
</svg>
