<svg width="20" height="20" viewBox="0 0 20 20" fill="none" xmlns="http://www.w3.org/2000/svg">
<g clip-path="url(#clip0_15308_392087)">
<path d="M12.2777 8.08382C12.8607 8.66685 13.806 8.66685 14.389 8.08382C14.9721 7.50078 14.9721 6.5555 14.389 5.97247C13.806 5.38944 12.8607 5.38944 12.2777 5.97247C11.6947 6.5555 11.6947 7.50078 12.2777 8.08382Z" fill="#111111"/>
<path fill-rule="evenodd" clip-rule="evenodd" d="M9.63852 3.33329C11.6791 1.29267 14.9876 1.29267 17.0282 3.33329C19.0688 5.3739 19.0688 8.68239 17.0282 10.723C15.8917 11.8596 14.3614 12.3626 12.8784 12.2337L10.9581 14.1539C10.8181 14.2939 10.6282 14.3726 10.4303 14.3726L9.0654 14.3726L9.0654 15.7374C9.0654 16.1497 8.73119 16.4839 8.31892 16.4839L6.95405 16.4839L6.95405 17.8488C6.95405 18.2611 6.61984 18.5953 6.20758 18.5953L2.51272 18.5953C2.10045 18.5953 1.76625 18.2611 1.76625 17.8488L1.76625 14.1539C1.76625 13.956 1.84489 13.7661 1.98488 13.6261L8.12782 7.48317C7.99895 6.00008 8.50195 4.46985 9.63852 3.33329ZM15.9726 4.38896C14.515 2.93138 12.1518 2.93138 10.6942 4.38896C9.81156 5.27159 9.46277 6.48589 9.65002 7.63312C9.68871 7.87017 9.61097 8.11136 9.44113 8.2812L3.25919 14.4631L3.25919 17.1023L5.4611 17.1023L5.4611 15.7375C5.4611 15.3252 5.79531 14.991 6.20758 14.991L7.57245 14.991L7.57245 13.6261C7.57245 13.2138 7.90666 12.8796 8.31892 12.8796L10.1211 12.8796L12.0803 10.9204C12.2502 10.7505 12.4913 10.6728 12.7284 10.7115C13.8756 10.8987 15.0899 10.55 15.9726 9.66733C17.4301 8.20975 17.4301 5.84654 15.9726 4.38896Z" fill="#111111"/>
</g>
<defs>
<clipPath id="clip0_15308_392087">
<rect width="20" height="20" fill="white"/>
</clipPath>
</defs>
</svg>
