<svg width="20" height="20" viewBox="0 0 20 20" fill="none" xmlns="http://www.w3.org/2000/svg">
<path d="M10.0041 18.3356C5.40168 18.3356 1.67072 14.6047 1.67072 10.0022C1.67072 5.3999 5.40168 1.66895 10.0041 1.66895C14.6064 1.66895 18.3374 5.3999 18.3374 10.0022C18.3374 14.6047 14.6064 18.3356 10.0041 18.3356ZM10.0041 16.6689C13.686 16.6689 16.6707 13.6842 16.6707 10.0022C16.6707 6.32038 13.686 3.33561 10.0041 3.33561C6.32215 3.33561 3.33738 6.32038 3.33738 10.0022C3.33738 13.6842 6.32215 16.6689 10.0041 16.6689ZM7.08738 11.6689H11.6707C11.9008 11.6689 12.0874 11.4824 12.0874 11.2522C12.0874 11.0222 11.9008 10.8356 11.6707 10.8356H8.3374C7.18679 10.8356 6.25405 9.9029 6.25405 8.75224C6.25405 7.60168 7.18679 6.66895 8.3374 6.66895H9.17073V5.00228H10.8374V6.66895H12.9207V8.33557H8.3374C8.10727 8.33557 7.92072 8.52215 7.92072 8.75224C7.92072 8.9824 8.10727 9.1689 8.3374 9.1689H11.6707C12.8213 9.1689 13.7541 10.1017 13.7541 11.2522C13.7541 12.4029 12.8213 13.3356 11.6707 13.3356H10.8374V15.0022H9.17073V13.3356H7.08738V11.6689Z" fill="#111111"/>
</svg>
