<svg width="20" height="20" viewBox="0 0 20 20" fill="none" xmlns="http://www.w3.org/2000/svg">
<path d="M6.70789 1.8251C7.23427 1.72097 7.77786 1.6665 8.33333 1.6665C8.88881 1.6665 9.43239 1.72097 9.95877 1.8251C10.4103 1.91442 10.7039 2.35283 10.6145 2.80432C10.5252 3.2558 10.0868 3.5494 9.63532 3.46008C9.2149 3.37691 8.77964 3.33317 8.33333 3.33317C7.88703 3.33317 7.45177 3.37691 7.03134 3.46008C6.57986 3.5494 6.14145 3.2558 6.05213 2.80432C5.96281 2.35283 6.25641 1.91442 6.70789 1.8251Z" fill="#111111"/>
<path d="M11.808 3.2995C12.064 2.91705 12.5816 2.81458 12.9641 3.07062C13.8725 3.67878 14.6544 4.46072 15.2625 5.36912C15.5186 5.75156 15.4161 6.26915 15.0337 6.52519C14.6512 6.78123 14.1336 6.67876 13.8776 6.29632C13.3906 5.56895 12.7642 4.94253 12.0369 4.45557C11.6544 4.19953 11.5519 3.68194 11.808 3.2995Z" fill="#111111"/>
<path d="M4.85869 3.2995C5.11473 3.68194 5.01226 4.19953 4.62982 4.45557C3.90245 4.94253 3.27603 5.56895 2.78907 6.29632C2.53303 6.67876 2.01544 6.78123 1.63299 6.52519C1.25055 6.26915 1.14808 5.75156 1.40412 5.36912C2.01228 4.46072 2.79421 3.67878 3.70262 3.07062C4.08506 2.81458 4.60265 2.91705 4.85869 3.2995Z" fill="#111111"/>
<path d="M1.13781 7.71863C1.5893 7.80795 1.8829 8.24636 1.79358 8.69785C1.71041 9.11827 1.66667 9.55353 1.66667 9.99984C1.66667 10.4461 1.71041 10.8814 1.79358 11.3018C1.8829 11.7533 1.5893 12.1917 1.13781 12.281C0.686326 12.3704 0.247917 12.0768 0.158599 11.6253C0.0544653 11.0989 0 10.5553 0 9.99984C0 9.44436 0.0544653 8.90078 0.158599 8.3744C0.247917 7.92291 0.686326 7.62931 1.13781 7.71863Z" fill="#111111"/>
<path d="M15.0337 13.4745C15.4161 13.7305 15.5186 14.2481 15.2625 14.6306C14.6544 15.539 13.8725 16.3209 12.9641 16.9291C12.5816 17.1851 12.064 17.0826 11.808 16.7002C11.5519 16.3177 11.6544 15.8001 12.0369 15.5441C12.7642 15.0571 13.3906 14.4307 13.8776 13.7034C14.1336 13.3209 14.6512 13.2184 15.0337 13.4745Z" fill="#111111"/>
<path d="M1.63299 13.4745C2.01544 13.2184 2.53303 13.3209 2.78907 13.7034C3.27603 14.4307 3.90245 15.0571 4.62982 15.5441C5.01226 15.8001 5.11473 16.3177 4.85869 16.7002C4.60265 17.0826 4.08506 17.1851 3.70262 16.9291C2.79421 16.3209 2.01228 15.539 1.40412 14.6306C1.14808 14.2481 1.25055 13.7305 1.63299 13.4745Z" fill="#111111"/>
<path d="M6.05213 17.1954C6.14145 16.7439 6.57985 16.4503 7.03134 16.5396C7.45177 16.6228 7.88703 16.6665 8.33333 16.6665C8.77964 16.6665 9.2149 16.6228 9.63532 16.5396C10.0868 16.4503 10.5252 16.7439 10.6145 17.1954C10.7039 17.6468 10.4103 18.0853 9.95877 18.1746C9.43239 18.2787 8.88881 18.3332 8.33333 18.3332C7.77786 18.3332 7.23427 18.2787 6.70789 18.1746C6.25641 18.0853 5.96281 17.6468 6.05213 17.1954Z" fill="#111111"/>
<path d="M8.33333 9.99984C8.33333 9.5396 8.70643 9.1665 9.16667 9.1665H17.1548L16.0774 8.08909C15.752 7.76366 15.752 7.23602 16.0774 6.91058C16.4028 6.58514 16.9305 6.58514 17.2559 6.91058L19.1667 8.82133C19.8175 9.4722 19.8175 10.5275 19.1667 11.1783L17.2559 13.0891C16.9305 13.4145 16.4028 13.4145 16.0774 13.0891C15.752 12.7637 15.752 12.236 16.0774 11.9106L17.1548 10.8332H9.16667C8.70643 10.8332 8.33333 10.4601 8.33333 9.99984Z" fill="#111111"/>
</svg>
