<svg width="20" height="20" viewBox="0 0 20 20" fill="none" xmlns="http://www.w3.org/2000/svg">
<g clip-path="url(#clip0_15308_392062)">
<path d="M11.25 12.5H7.49996C4.2783 12.5 1.66663 15.1117 1.66663 18.3333" stroke="black" stroke-width="2" stroke-linecap="round"/>
<circle cx="8.74996" cy="6.25008" r="3.58333" stroke="black" stroke-width="2"/>
<path d="M17.5065 12.5H14.1602C13.7036 12.5 13.3334 12.8702 13.3334 13.3268C13.3334 13.5446 13.4192 13.7535 13.5723 13.9083L14.1764 14.519C14.5617 14.9086 14.5617 15.5358 14.1764 15.9254L13.6224 16.4856C13.4372 16.6728 13.3334 16.9255 13.3334 17.1888V17.3333C13.3334 17.8856 13.7811 18.3333 14.3334 18.3333H17.3334C17.8857 18.3333 18.3334 17.8856 18.3334 17.3333V17.1888C18.3334 16.9255 18.2295 16.6728 18.0444 16.4856L17.4904 15.9254C17.105 15.5358 17.105 14.9086 17.4904 14.519L18.0944 13.9083C18.2475 13.7535 18.3334 13.5446 18.3334 13.3268C18.3334 12.8702 17.9632 12.5 17.5065 12.5Z" stroke="black" stroke-width="1.5" stroke-linecap="round"/>
</g>
<defs>
<clipPath id="clip0_15308_392062">
<rect width="20" height="20" fill="white"/>
</clipPath>
</defs>
</svg>
