<svg width="20" height="20" viewBox="0 0 20 20" fill="none" xmlns="http://www.w3.org/2000/svg">
<path d="M5.03064 5.55585C5.33758 5.21291 5.30839 4.68608 4.96545 4.37914C4.62252 4.0722 4.09569 4.10139 3.78875 4.44433C2.46969 5.9181 1.66663 7.8663 1.66663 10.0001C1.66663 12.1339 2.46969 14.0821 3.78875 15.5559C4.09569 15.8988 4.62252 15.928 4.96545 15.621C5.30839 15.3141 5.33758 14.7873 5.03064 14.4443C3.9745 13.2643 3.33329 11.7081 3.33329 10.0001C3.33329 8.2921 3.9745 6.73586 5.03064 5.55585Z" fill="#111111"/>
<path d="M16.2112 4.44433C15.9042 4.10139 15.3774 4.07221 15.0345 4.37914C14.6915 4.68608 14.6623 5.21291 14.9693 5.55585C16.0254 6.73586 16.6666 8.2921 16.6666 10.0001C16.6666 11.7081 16.0254 13.2643 14.9693 14.4443C14.6623 14.7873 14.6915 15.3141 15.0345 15.621C15.3774 15.928 15.9042 15.8988 16.2112 15.5559C17.5302 14.0821 18.3333 12.1339 18.3333 10.0001C18.3333 7.8663 17.5302 5.9181 16.2112 4.44433Z" fill="#111111"/>
<path d="M7.1668 6.83378C7.53479 7.11019 7.60903 7.63258 7.33263 8.00057C6.91423 8.5576 6.66663 9.24872 6.66663 10.0001C6.66663 10.7514 6.91423 11.4426 7.33263 11.9996C7.60903 12.3676 7.53479 12.89 7.1668 13.1664C6.79881 13.4428 6.27642 13.3686 6.00002 13.0006C5.37227 12.1648 4.99996 11.1247 4.99996 10.0001C4.99996 8.87544 5.37227 7.83534 6.00002 6.9996C6.27642 6.63161 6.79881 6.55737 7.1668 6.83378Z" fill="#111111"/>
<path d="M12.8331 6.83378C13.2011 6.55737 13.7235 6.63161 13.9999 6.9996C14.6277 7.83534 15 8.87544 15 10.0001C15 11.1247 14.6277 12.1648 13.9999 13.0006C13.7235 13.3686 13.2011 13.4428 12.8331 13.1664C12.4651 12.89 12.3909 12.3676 12.6673 11.9996C13.0857 11.4426 13.3333 10.7514 13.3333 10.0001C13.3333 9.24872 13.0857 8.5576 12.6673 8.00057C12.3909 7.63258 12.4651 7.11019 12.8331 6.83378Z" fill="#111111"/>
<path d="M11.6666 10.0001C11.6666 10.9206 10.9204 11.6668 9.99996 11.6668C9.07948 11.6668 8.33329 10.9206 8.33329 10.0001C8.33329 9.07961 9.07948 8.33342 9.99996 8.33342C10.9204 8.33342 11.6666 9.07961 11.6666 10.0001Z" fill="#111111"/>
</svg>
