<svg width="20" height="20" viewBox="0 0 20 20" fill="none" xmlns="http://www.w3.org/2000/svg">
<path d="M3.40261 2.75153C3.05877 2.37984 3.08136 1.79979 3.45305 1.45596C3.82474 1.11212 4.40479 1.13471 4.74862 1.5064L5.62743 2.45641C7.03204 1.93468 8.51959 1.6669 10.0205 1.6669C11.6776 1.6669 13.3185 1.99334 14.8494 2.6276C16.3803 3.26185 17.7713 4.19148 18.943 5.3634C19.0948 5.52057 19.1787 5.73107 19.1768 5.94957C19.1749 6.16807 19.0873 6.37708 18.9328 6.53158C18.7783 6.68609 18.5693 6.77373 18.3508 6.77563C18.1323 6.77753 17.9218 6.69353 17.7646 6.54173C16.7477 5.52463 15.5404 4.7178 14.2117 4.16734C12.8829 3.61687 11.4587 3.33355 10.0205 3.33355C8.95059 3.33355 7.88853 3.49032 6.86773 3.7972L8.84317 5.93269C9.23248 5.87946 9.6258 5.85257 10.0205 5.85257C11.1617 5.85257 12.2918 6.0774 13.3462 6.51422C14.4006 6.95104 15.3586 7.59129 16.1655 8.3984C16.3217 8.55477 16.4095 8.7668 16.4094 8.98786C16.4093 9.20892 16.3214 9.4209 16.165 9.57715C16.0087 9.73341 15.7966 9.82115 15.5756 9.82107C15.3545 9.82099 15.1425 9.7331 14.9863 9.57673C14.3342 8.92448 13.5601 8.40708 12.708 8.05407C11.9473 7.73891 11.1379 7.5603 10.3167 7.52562L15.2312 12.8383C15.575 13.21 15.5525 13.79 15.1808 14.1339C14.8091 14.4777 14.229 14.4551 13.8852 14.0834L3.40261 2.75153Z" fill="#111111"/>
<path d="M8.9811 15.5556C8.84375 15.7612 8.77044 16.0028 8.77044 16.2501C8.77044 16.5816 8.90213 16.8995 9.13655 17.1339C9.37097 17.3684 9.68892 17.5001 10.0204 17.5001C10.2677 17.5001 10.5093 17.4268 10.7149 17.2894C10.9205 17.152 11.0807 16.9568 11.1753 16.7284C11.2699 16.5 11.2946 16.2487 11.2464 16.0062C11.1982 15.7637 11.0791 15.541 10.9043 15.3662C10.7295 15.1914 10.5068 15.0723 10.2643 15.0241C10.0218 14.9759 9.77049 15.0006 9.54208 15.0952C9.31367 15.1898 9.11845 15.35 8.9811 15.5556Z" fill="#111111"/>
<path d="M3.80873 5.03247C3.87834 5.10772 3.86411 5.2273 3.77988 5.28572C3.24344 5.65774 2.74006 6.07787 2.27629 6.54173C2.19942 6.62133 2.10746 6.68481 2.00579 6.72849C1.90412 6.77216 1.79477 6.79515 1.68412 6.79611C1.57347 6.79707 1.46374 6.77599 1.36133 6.73409C1.25891 6.69218 1.16587 6.63031 1.08762 6.55206C1.00938 6.47382 0.947502 6.38078 0.905602 6.27836C0.863701 6.17595 0.842615 6.06622 0.843578 5.95557C0.84454 5.84492 0.867529 5.73557 0.911203 5.6339C0.954876 5.53223 1.01836 5.44027 1.09795 5.3634C1.58838 4.87285 2.11724 4.42475 2.67871 4.023C2.74642 3.97455 2.83946 3.98467 2.896 4.04579L3.80873 5.03247Z" fill="#111111"/>
<path d="M5.74593 7.12662C5.69294 7.06934 5.60722 7.05634 5.54037 7.09657C4.93587 7.46033 4.37653 7.89719 3.87545 8.3984C3.7192 8.55477 3.63146 8.7668 3.63153 8.98786C3.63161 9.20892 3.7195 9.4209 3.87587 9.57715C4.03224 9.73341 4.24427 9.82115 4.46533 9.82107C4.68639 9.82099 4.89836 9.7331 5.05462 9.57673C5.52182 9.10939 6.05171 8.71127 6.62802 8.39325C6.72469 8.33991 6.74783 8.2097 6.67286 8.12865L5.74593 7.12662Z" fill="#111111"/>
<path d="M9.84383 11.5565C9.89276 11.6094 9.856 11.6966 9.78414 11.7019C9.05491 11.7565 8.36419 12.0622 7.83212 12.5709C7.75496 12.6487 7.66321 12.7106 7.56211 12.7529C7.46101 12.7952 7.35255 12.8172 7.24295 12.8176V12.8151C7.07809 12.8152 6.91689 12.7664 6.77976 12.6749C6.64262 12.5834 6.53571 12.4533 6.47255 12.301C6.40939 12.1487 6.39281 11.9811 6.42493 11.8194C6.45704 11.6577 6.53639 11.5092 6.65295 11.3926C7.09513 10.9503 7.62012 10.5994 8.19792 10.36C8.29793 10.3186 8.39918 10.2806 8.50149 10.2462C8.56244 10.2257 8.62947 10.2438 8.67314 10.291L9.84383 11.5565Z" fill="#111111"/>
</svg>
