<svg width="24" height="24" viewBox="0 0 24 24" fill="none" xmlns="http://www.w3.org/2000/svg">
<path fill-rule="evenodd" clip-rule="evenodd" d="M21 7H3L3 20H21V7ZM3 5C1.89543 5 1 5.89543 1 7V20C1 21.1046 1.89543 22 3 22H21C22.1046 22 23 21.1046 23 20V7C23 5.89543 22.1046 5 21 5H3Z" fill="#111111"/>
<path d="M14 3C14 2.44772 14.4477 2 15 2H18C18.5523 2 19 2.44772 19 3C19 3.55228 18.5523 4 18 4H15C14.4477 4 14 3.55228 14 3Z" fill="#111111"/>
<path d="M5 3C5 2.44772 5.44772 2 6 2H9C9.55228 2 10 2.44772 10 3C10 3.55228 9.55228 4 9 4H6C5.44772 4 5 3.55228 5 3Z" fill="#111111"/>
<rect x="4" y="15" width="16" height="4" fill="#E50C0C"/>
</svg>
