<svg width="24" height="24" viewBox="0 0 24 24" fill="none" xmlns="http://www.w3.org/2000/svg">
<path d="M14 3C14 2.44772 14.4477 2 15 2H18C18.5523 2 19 2.44772 19 3C19 3.55228 18.5523 4 18 4H15C14.4477 4 14 3.55228 14 3Z" fill="#111111"/>
<path fill-rule="evenodd" clip-rule="evenodd" d="M3 5C1.89543 5 1 5.89543 1 7V20C1 21.1046 1.89543 22 3 22H21C22.1046 22 23 21.1046 23 20V7C23 5.89543 22.1046 5 21 5H3ZM21 7H3L3 20H21V7Z" fill="#111111"/>
<path d="M6 2C5.44772 2 5 2.44772 5 3C5 3.55228 5.44772 4 6 4H9C9.55228 4 10 3.55228 10 3C10 2.44772 9.55228 2 9 2H6Z" fill="#111111"/>
<rect x="4" y="8" width="16" height="11" fill="#00B397"/>
</svg>
