<svg width="76" height="104" viewBox="0 0 76 104" fill="none" xmlns="http://www.w3.org/2000/svg">
<path d="M68.3562 20.3275L73.8327 14.8898C64.227 5.35585 51.2008 0 37.6189 0C24.037 0 11.0108 5.35585 1.40503 14.8898L6.87734 20.3275C15.0304 12.234 26.0877 7.6873 37.617 7.6873C49.1458 7.6873 60.2031 12.234 68.3562 20.3275Z" fill="#00B397"/>
<path d="M54.4435 33.9297C52.2104 31.7279 49.5627 29.9844 46.6512 28.7988C43.7396 27.6132 40.6212 27.0087 37.4746 27.0199C34.3277 27.031 31.2139 27.6577 28.3108 28.8639C25.4081 30.0702 22.7727 31.8324 20.5558 34.0501L26.0492 39.4464C27.5504 37.945 29.335 36.7518 31.3008 35.9354C33.2666 35.1188 35.3754 34.6948 37.5062 34.6874C39.6369 34.6801 41.7485 35.0897 43.72 35.8927C45.6912 36.6957 47.4842 37.8765 48.9962 39.3675L54.4435 33.9297Z" fill="#00B397"/>
<path d="M51.8192 16.2836C56.3866 18.1437 60.5396 20.8789 64.0415 24.3331L58.6069 29.7874C55.825 27.0435 52.5262 24.8707 48.8985 23.3932C45.2704 21.9157 41.385 21.1623 37.4639 21.1762C33.5431 21.1901 29.6631 21.9709 26.0458 23.4741C22.4289 24.9773 19.1454 27.1733 16.3835 29.9368L10.8862 24.5199C14.3635 21.0412 18.4969 18.2768 23.0504 16.3847C27.6042 14.4925 32.4885 13.5097 37.425 13.4924C42.3612 13.475 47.2523 14.4235 51.8192 16.2836Z" fill="#00B397"/>
<path d="M65.7142 26.147L60.2796 31.5723C64.9046 36.8873 67.43 43.688 67.3865 50.7119C67.4827 77.0245 35.3342 90.3824 16.5258 71.8401C11.215 66.6035 8.07962 59.5765 7.74231 52.1525C7.40462 44.7284 9.88923 37.4494 14.7031 31.7591L9.19731 26.3338C3.54962 32.6764 0 41.0985 0 50.9651C0.0111538 55.8616 0.996927 60.7073 2.90116 65.2237C4.80539 69.7401 7.59 73.8382 11.0954 77.2819L37.7715 103.541L64.2385 77.0618C77.1189 63.9409 79.7485 41.7919 65.7142 26.147Z" fill="#00B397"/>
<path fill-rule="evenodd" clip-rule="evenodd" d="M44.0458 51.0648C44.6823 51.2826 45.2154 51.7262 45.5427 52.3103L45.5761 52.3349L45.3838 52.9825C45.3824 52.9857 45.3807 52.9886 45.3786 52.9912C45.3767 52.9935 45.3745 52.9955 45.3719 52.9971C45.3669 53.001 45.3608 53.0029 45.3546 53.0033H44.1004C44.0961 53.0033 44.0919 53.004 44.0881 53.006C44.0842 53.0075 44.0808 53.0102 44.0781 53.0133C44.075 53.0164 44.0731 53.0202 44.0719 53.024C44.0708 53.0283 44.0704 53.0325 44.0711 53.0367L44.1084 63.173C44.1115 64.2584 43.8927 65.3331 43.465 66.3319C43.255 66.6667 42.9454 66.9279 42.5784 67.0791C42.3615 67.188 42.1365 67.2811 41.9054 67.3573C41.2452 68.0012 38.2095 67.8599 37.7958 67.8406C37.7695 67.8394 37.7537 67.8387 37.75 67.8387C37.6873 67.8429 34.3011 68.0668 33.5946 67.3862C33.3623 67.3115 33.1361 67.22 32.9173 67.1122C32.55 66.9645 32.2388 66.7059 32.0269 66.3735C31.5923 65.3773 31.3661 64.3042 31.3623 63.2188L31.3288 53.0779C31.3277 53.0698 31.3238 53.0625 31.3177 53.0571C31.3115 53.0518 31.3034 53.0491 31.2954 53.0491H30.0411C30.0342 53.0491 30.0273 53.0467 30.0219 53.0421C30.0165 53.0375 30.0127 53.031 30.0119 53.024L29.8111 52.385C29.8088 52.3811 29.8077 52.3769 29.8077 52.3723C29.8077 52.368 29.8088 52.3638 29.8111 52.3599C30.0911 51.6874 30.8815 51.2849 31.2996 51.1148C31.3004 51.113 31.301 51.1112 31.3015 51.1093C31.3022 51.1063 31.3027 51.1033 31.3027 51.1002C31.3027 51.0952 31.3015 51.0902 31.2996 51.0856V45.9509C31.2912 44.1585 34.0797 42.4671 34.2704 42.3514L34.2761 42.348C34.3054 42.2814 35.0746 41.4099 37.6496 41.3976C40.2152 41.3849 40.9757 42.2543 41.0351 42.3222C41.1689 42.3972 44.0458 44.0913 44.0458 45.9013V51.036C44.0438 51.0402 44.0427 51.0452 44.0427 51.0502C44.0427 51.0534 44.0431 51.0566 44.044 51.0597C44.0445 51.0614 44.0451 51.0632 44.0458 51.0648ZM42.6831 48.3834C42.7373 47.1421 39.4723 46.9555 37.6331 46.9555C35.7934 46.9636 32.5454 47.1795 32.5954 48.3957C32.6538 49.5704 33.5777 52.393 33.67 52.6712C33.6738 52.692 33.7035 52.692 33.7035 52.692C33.7157 52.6907 33.7324 52.6889 33.7534 52.6867C34.1974 52.639 36.5281 52.389 37.6538 52.385C38.8327 52.3807 41.3327 52.6339 41.6046 52.6631C41.6092 52.667 41.615 52.6693 41.6211 52.6693C41.6259 52.6693 41.6307 52.6679 41.6348 52.6655C41.6359 52.6648 41.637 52.664 41.6381 52.6631C41.73 52.385 42.6331 49.5581 42.6831 48.3834ZM32.8773 63.1168C32.8819 63.1145 32.8854 63.1111 32.8881 63.1068C32.9088 62.5297 33.0469 58.47 33.0469 55.9463C33.0385 53.6427 32.3069 50.762 32.0896 49.9525C32.0896 49.9448 32.0865 49.9375 32.0811 49.9321C32.0754 49.9263 32.0681 49.9232 32.0604 49.9232C32.0527 49.9232 32.045 49.9263 32.0396 49.9321C32.0342 49.9375 32.0311 49.9448 32.0311 49.9525L32.0727 62.3388V62.3596L32.8381 63.1068C32.8404 63.1111 32.8442 63.1145 32.8484 63.1168C32.8531 63.1195 32.8581 63.1207 32.8631 63.1207C32.8661 63.1207 32.8691 63.1203 32.8719 63.1193C32.8738 63.1187 32.8756 63.1179 32.8773 63.1168ZM37.7042 66.4774C40.6681 66.4774 41.9304 65.8421 42.2442 65.647C42.25 65.6447 42.2558 65.6416 42.2604 65.637C42.2627 65.6349 42.2649 65.6325 42.2668 65.6299C42.2686 65.6275 42.2702 65.6248 42.2715 65.622C42.2746 65.6163 42.2761 65.6097 42.2761 65.6036C42.2765 65.597 42.2754 65.5909 42.2734 65.5847C42.2711 65.5786 42.2677 65.5732 42.2634 65.5685C42.2592 65.5639 42.2538 65.5601 42.2481 65.5574C42.2423 65.5547 42.2358 65.5532 42.2296 65.5528C42.2231 65.5524 42.2165 65.5535 42.2108 65.5558L33.1558 65.5889C33.1504 65.5916 33.1461 65.5959 33.1431 65.6013C33.14 65.6063 33.1385 65.612 33.1385 65.6178C33.1385 65.624 33.14 65.6297 33.1431 65.6347C33.145 65.6379 33.1475 65.6408 33.1504 65.6433C33.152 65.6447 33.1538 65.6459 33.1558 65.647C33.4777 65.8587 34.74 66.4774 37.7042 66.4774ZM43.3142 62.3469C43.3165 62.3404 43.3165 62.3331 43.3142 62.3261L43.2765 49.9525C43.2765 49.9448 43.2734 49.9375 43.2681 49.9321C43.2648 49.9286 43.2607 49.9261 43.2563 49.9246C43.2534 49.9237 43.2503 49.9232 43.2473 49.9232C43.2396 49.9232 43.2323 49.9263 43.2265 49.9321C43.2211 49.9375 43.2181 49.9448 43.2181 49.9525C43.005 50.7659 42.3027 53.6466 42.3027 55.9506C42.315 58.4619 42.4781 62.5212 42.5073 63.1026C42.51 63.1068 42.5138 63.1103 42.5181 63.113C42.5227 63.1153 42.5277 63.1164 42.5327 63.1164C42.5377 63.1164 42.5427 63.1153 42.5469 63.113C42.5515 63.1103 42.555 63.1068 42.5577 63.1026L43.3142 62.3469Z" fill="#00B397"/>
<path d="M60.7992 99.5006C60.7992 100.452 60.4733 101.26 59.8215 101.932C59.1698 102.603 58.3811 102.935 57.4491 102.935C56.5171 102.935 55.7219 102.603 55.0571 101.938C54.3988 101.273 54.0664 100.465 54.0664 99.5136C54.0664 98.562 54.3923 97.7278 55.0506 97.0565C55.7089 96.3851 56.504 96.0527 57.4491 96.0527C58.3942 96.0527 59.1698 96.3851 59.8215 97.0565C60.4733 97.7278 60.7992 98.5425 60.7992 99.5006ZM60.2647 99.5006C60.2647 98.7054 59.9845 98.0146 59.4305 97.4345C58.8765 96.8544 58.2247 96.5611 57.4752 96.5611C56.68 96.5611 56.0022 96.8544 55.4416 97.4345C54.8811 98.0146 54.6009 98.712 54.6009 99.5201C54.6009 100.328 54.8811 101.013 55.4416 101.586C56.0022 102.16 56.667 102.447 57.4491 102.447C58.2312 102.447 58.8765 102.16 59.437 101.58C59.991 101 60.2712 100.309 60.2712 99.5006H60.2647ZM59.3262 98.6012C59.3262 98.9792 59.1893 99.2855 58.9286 99.5071C58.6614 99.7287 58.3616 99.8395 58.0161 99.8395L59.2545 101.482H58.4919L57.2666 99.846H56.5692V101.482H55.9631V97.4214H57.9575C58.4072 97.4214 58.7461 97.5323 58.9808 97.7539C59.2154 97.9755 59.3392 98.2622 59.3392 98.6012H59.3262ZM58.6874 98.6012C58.6874 98.1905 58.3746 97.982 57.7489 97.982H56.5562V99.3051H57.788C58.3811 99.3051 58.6809 99.0704 58.6809 98.6012H58.6874Z" fill="#00B397"/>
<path d="M55.0037 97.0168C54.3389 97.6946 54 98.5354 54 99.5196C54 100.504 54.3389 101.312 55.0103 101.983C55.6816 102.655 56.4963 103 57.4413 103C58.3864 103 59.2011 102.655 59.8594 101.977C60.5177 101.299 60.8566 100.471 60.8566 99.5065C60.8566 98.5419 60.5242 97.7011 59.8594 97.0233C59.2011 96.3454 58.3864 96 57.4413 96C56.4963 96 55.6685 96.3454 55.0037 97.0233V97.0168ZM55.095 101.899C54.4497 101.247 54.1173 100.445 54.1173 99.5196C54.1173 98.594 54.4432 97.7598 55.0885 97.1015C55.7272 96.4497 56.5223 96.1173 57.4413 96.1173C58.3603 96.1173 59.136 96.4497 59.7747 97.1015C60.4134 97.7598 60.7328 98.568 60.7328 99.5065C60.7328 100.445 60.4069 101.24 59.7747 101.892C59.136 102.544 58.3538 102.876 57.4413 102.876C56.5289 102.876 55.7402 102.544 55.095 101.899Z" fill="#00B397"/>
<path d="M55.3929 97.389C54.8258 97.9821 54.5391 98.6926 54.5391 99.5138C54.5391 100.335 54.8258 101.045 55.3929 101.626C55.9599 102.206 56.6508 102.505 57.4394 102.505C58.2281 102.505 58.9059 102.206 59.4664 101.619C60.0335 101.032 60.3137 100.322 60.3137 99.5007C60.3137 98.6795 60.027 97.9821 59.4664 97.389C58.8994 96.7959 58.2281 96.4961 57.4655 96.4961C56.6573 96.4961 55.9534 96.7959 55.3864 97.389H55.3929ZM55.4776 101.541C54.9301 100.98 54.6564 100.302 54.6564 99.5138C54.6564 98.7251 54.9301 98.0408 55.4776 97.4737C56.0251 96.9067 56.6899 96.6199 57.472 96.6199C58.202 96.6199 58.8473 96.9067 59.3882 97.4737C59.9292 98.0408 60.2029 98.7251 60.2029 99.5007C60.2029 100.276 59.9292 100.974 59.3882 101.534C58.8473 102.095 58.1955 102.382 57.4459 102.382C56.6964 102.382 56.0251 102.101 55.4841 101.541H55.4776Z" fill="#00B397"/>
<path d="M55.8893 97.3613V101.552H56.6193V99.9163H57.258L58.4377 101.526L59.2459 101.552H59.3633C59.3633 101.552 58.2161 100.027 58.1119 99.8902C58.4247 99.8706 58.7115 99.7664 58.9592 99.5578C59.2394 99.3232 59.3828 99.0038 59.3828 98.6062C59.3828 98.2477 59.259 97.9479 59.0048 97.7133C58.7571 97.4786 58.3986 97.3613 57.9359 97.3613H55.8828H55.8893ZM57.9424 97.4786C58.3726 97.4786 58.705 97.5829 58.9266 97.798C59.1482 98.0066 59.2655 98.2803 59.2655 98.6062C59.2655 98.9712 59.1416 99.2515 58.8875 99.4665C58.6333 99.6816 58.34 99.7859 58.0141 99.7859H57.8968C57.8968 99.7859 59.0048 101.265 59.1351 101.428H58.4899L57.3102 99.8185L56.5607 99.7924H56.502V101.428H56.0132V97.4786H57.9489H57.9424Z" fill="#00B397"/>
<path d="M56.5026 97.9219V99.3623H57.7931C58.4253 99.3623 58.7447 99.1081 58.7447 98.5997C58.7447 98.3716 58.66 98.2021 58.484 98.0848C58.321 97.974 58.0734 97.9219 57.7475 97.9219H56.4961H56.5026ZM57.754 98.0392C58.0538 98.0392 58.2754 98.0848 58.4253 98.1826C58.5622 98.2738 58.6339 98.4107 58.6339 98.5932C58.6339 99.0299 58.3602 99.2384 57.7996 99.2384H56.6264V98.0327H57.7605L57.754 98.0392Z" fill="#00B397"/>
</svg>
