<svg width="24" height="24" viewBox="0 0 24 24" fill="none" xmlns="http://www.w3.org/2000/svg">
<g clip-path="url(#clip0_6251_755)">
<path d="M14.7332 9.70063C15.4328 10.4003 16.5672 10.4003 17.2668 9.70063C17.9664 9.00099 17.9664 7.86665 17.2668 7.16701C16.5672 6.46737 15.4328 6.46737 14.7332 7.16701C14.0336 7.86665 14.0336 9.00099 14.7332 9.70063Z" fill="#111111"/>
<path fill-rule="evenodd" clip-rule="evenodd" d="M11.5662 3.99999C14.0149 1.55126 17.9851 1.55125 20.4338 3.99999C22.8826 6.44873 22.8826 10.4189 20.4338 12.8676C19.07 14.2315 17.2337 14.8351 15.454 14.6805L13.1497 16.9848C12.9817 17.1528 12.7538 17.2471 12.5163 17.2471L10.8784 17.2471L10.8784 18.885C10.8784 19.3797 10.4774 19.7808 9.98266 19.7808L8.34481 19.7808L8.34481 21.4186C8.34481 21.9133 7.94376 22.3144 7.44904 22.3144L3.01521 22.3144C2.5205 22.3144 2.11945 21.9133 2.11945 21.4186L2.11945 16.9848C2.11945 16.7472 2.21382 16.5194 2.38181 16.3514L9.75333 8.97985C9.59869 7.20014 10.2023 5.36387 11.5662 3.99999ZM19.167 5.2668C17.4179 3.5177 14.5821 3.5177 12.833 5.2668C11.7738 6.32596 11.3553 7.78312 11.58 9.15979C11.6264 9.44426 11.5331 9.73368 11.3293 9.93749L3.91098 17.3558L3.91098 20.5228L6.55327 20.5228L6.55327 18.885C6.55328 18.3903 6.95432 17.9892 7.44904 17.9892L9.08689 17.9892L9.08689 16.3514C9.08689 15.8567 9.48794 15.4556 9.98266 15.4556L12.1452 15.4556L14.4963 13.1045C14.7001 12.9007 14.9896 12.8074 15.274 12.8538C16.6507 13.0785 18.1079 12.66 19.167 11.6008C20.9161 9.85174 20.9161 7.0159 19.167 5.2668Z" fill="#111111"/>
</g>
<defs>
<clipPath id="clip0_6251_755">
<rect width="24" height="24" fill="white"/>
</clipPath>
</defs>
</svg>
