<svg width="16" height="16" viewBox="0 0 16 16" fill="none" xmlns="http://www.w3.org/2000/svg">
<path d="M11.7451 3.97808L12.7141 3.00916L13.6569 3.95197L12.6879 4.92089C13.509 5.94734 14 7.24935 14 8.66602C14 11.9797 11.3137 14.666 8 14.666C4.68629 14.666 2 11.9797 2 8.66602C2 5.35231 4.68629 2.66602 8 2.66602C9.41667 2.66602 10.7187 3.157 11.7451 3.97808ZM8 13.3327C10.5773 13.3327 12.6667 11.2433 12.6667 8.66602C12.6667 6.08869 10.5773 3.99935 8 3.99935C5.42267 3.99935 3.33333 6.08869 3.33333 8.66602C3.33333 11.2433 5.42267 13.3327 8 13.3327ZM7.33333 5.33268H8.66667V9.33268H7.33333V5.33268ZM5.33333 0.666016H10.6667V1.99935H5.33333V0.666016Z" fill="#79716B"/>
</svg>
