<svg width="24" height="24" viewBox="0 0 24 24" fill="none" xmlns="http://www.w3.org/2000/svg">
<path d="M20.992 9.98012C20.9951 8.7994 20.7657 7.62963 20.3168 6.53759C19.8678 5.44554 19.2082 4.45261 18.3756 3.61549C16.6939 1.92485 14.4095 0.971485 12.025 0.96512C9.64043 0.958755 7.351 1.89991 5.66036 3.58155C3.96972 5.26319 3.01635 7.54756 3.00999 9.93212C2.98887 12.7023 3.79305 15.4161 5.32002 17.7276C6.847 20.0391 9.02763 21.8436 11.584 22.9111C11.7147 22.9703 11.8565 23.0006 12 23.0001C12.1445 23.0004 12.2873 22.9697 12.419 22.9101C14.9676 21.8458 17.1428 20.0489 18.669 17.747C20.1952 15.4451 21.0037 12.742 20.992 9.98012V9.98012ZM12 20.9001C9.89193 19.972 8.10429 18.443 6.86066 16.5043C5.61702 14.5655 4.9726 12.3032 5.00799 10.0001C5.00799 9.08192 5.18884 8.17271 5.54022 7.3244C5.8916 6.47609 6.40663 5.7053 7.0559 5.05603C7.70516 4.40676 8.47596 3.89173 9.32427 3.54035C10.1726 3.18897 11.0818 3.00812 12 3.00812C12.9182 3.00812 13.8274 3.18897 14.6757 3.54035C15.524 3.89173 16.2948 4.40676 16.9441 5.05603C17.5933 5.7053 18.1084 6.47609 18.4598 7.3244C18.8111 8.17271 18.992 9.08192 18.992 10.0001C18.992 10.0211 18.992 10.0451 18.992 10.0651C19.0162 12.3575 18.3665 14.6066 17.1234 16.5328C15.8804 18.4591 14.0988 19.9777 12 20.9001V20.9001ZM12 6.00012C11.2089 6.00012 10.4355 6.23472 9.77771 6.67424C9.11991 7.11377 8.60722 7.73848 8.30447 8.46939C8.00172 9.20029 7.92251 10.0046 8.07685 10.7805C8.23119 11.5564 8.61215 12.2691 9.17156 12.8285C9.73097 13.388 10.4437 13.7689 11.2196 13.9233C11.9956 14.0776 12.7998 13.9984 13.5307 13.6956C14.2616 13.3929 14.8863 12.8802 15.3259 12.2224C15.7654 11.5646 16 10.7912 16 10.0001C16 8.93925 15.5786 7.92184 14.8284 7.17169C14.0783 6.42155 13.0609 6.00012 12 6.00012ZM12 12.0001C11.6044 12.0001 11.2177 11.8828 10.8888 11.6631C10.5599 11.4433 10.3036 11.1309 10.1522 10.7655C10.0009 10.4 9.96125 9.9979 10.0384 9.60994C10.1156 9.22198 10.3061 8.86561 10.5858 8.58591C10.8655 8.3062 11.2218 8.11572 11.6098 8.03855C11.9978 7.96138 12.3999 8.00099 12.7654 8.15236C13.1308 8.30374 13.4432 8.56008 13.6629 8.88898C13.8827 9.21788 14 9.60456 14 10.0001C14 10.5306 13.7893 11.0393 13.4142 11.4143C13.0391 11.7894 12.5304 12.0001 12 12.0001Z" fill="#111111"/>
</svg>
