<svg width="19" height="23" viewBox="0 0 19 23" fill="none" xmlns="http://www.w3.org/2000/svg">
<path d="M2.74414 7.918C2.68448 8.28657 2.65332 8.66008 2.65332 9.03519C2.61796 11.3382 3.26228 13.6004 4.50586 15.5391C5.74949 17.4777 7.53752 19.0075 9.64551 19.9356C10.7879 19.4335 11.8342 18.7518 12.7529 17.9268L14.1475 19.3213C12.9557 20.4213 11.5768 21.3137 10.0645 21.9453C9.93306 22.0048 9.78972 22.0353 9.64551 22.0352C9.50234 22.0357 9.35996 22.0053 9.22949 21.9463C6.67321 20.8788 4.49181 19.0741 2.96484 16.7627C1.43789 14.4513 0.634162 11.737 0.655273 8.96683C0.657781 8.038 0.804553 7.12461 1.08203 6.25589L2.74414 7.918ZM9.66992 3.15757e-05C12.0543 0.00650358 14.339 0.959946 16.0205 2.65042C16.853 3.48744 17.513 4.48043 17.9619 5.5723C18.4107 6.66417 18.6398 7.83417 18.6367 9.01468C18.6475 11.545 17.9671 14.025 16.6797 16.1934L18.5078 18.0215L17.0938 19.4356L0 2.34183L1.41406 0.927766L3.20508 2.71878C3.2383 2.68461 3.27183 2.6499 3.30566 2.61624C4.99622 0.934912 7.28563 -0.00628359 9.66992 3.15757e-05ZM9.64551 2.043C8.72754 2.043 7.81785 2.22403 6.96973 2.57523C6.12157 2.92655 5.35037 3.44175 4.70117 4.09085C4.68061 4.11142 4.65992 4.13251 4.63965 4.15335L6.75488 6.26859C6.95522 6.05932 7.17952 5.8716 7.42285 5.70902C8.08057 5.26965 8.85453 5.03519 9.64551 5.03519C10.7061 5.0354 11.7237 5.45711 12.4736 6.20706C13.2235 6.95716 13.6455 7.97454 13.6455 9.03519C13.6455 9.8262 13.4101 10.6001 12.9707 11.2578C12.8082 11.501 12.6183 11.7227 12.4092 11.9229L15.2441 14.7578C16.1753 13.0237 16.6576 11.078 16.6367 9.09964V9.03519C16.6367 8.11705 16.4558 7.20767 16.1045 6.35941C15.7532 5.51124 15.238 4.74005 14.5889 4.09085C13.9398 3.44188 13.1692 2.92656 12.3213 2.57523C11.4732 2.22395 10.5634 2.04311 9.64551 2.043ZM10.4102 7.18753C10.0449 7.03628 9.64265 6.99622 9.25488 7.07327C8.86701 7.15043 8.51015 7.34152 8.23047 7.62113C8.20999 7.64161 8.18943 7.66233 8.16992 7.68363L10.9932 10.5069C11.0147 10.4873 11.0389 10.4699 11.0596 10.4493C11.4344 10.0742 11.6455 9.56542 11.6455 9.03519C11.6455 8.63971 11.5273 8.25271 11.3076 7.92386C11.0879 7.5952 10.7754 7.33888 10.4102 7.18753Z" fill="#111111"/>
</svg>
