<svg width="21" height="21" viewBox="0 0 21 21" fill="none" xmlns="http://www.w3.org/2000/svg">
<path d="M12.6137 7.53719C13.3134 8.23683 14.4477 8.23683 15.1474 7.53719C15.847 6.83755 15.847 5.70321 15.1474 5.00357C14.4477 4.30393 13.3134 4.30393 12.6137 5.00357C11.9141 5.70321 11.9141 6.83755 12.6137 7.53719Z" fill="#111111"/>
<path fill-rule="evenodd" clip-rule="evenodd" d="M18.3144 1.83655C15.8656 -0.612184 11.8955 -0.612184 9.44672 1.83655C8.08285 3.20043 7.47925 5.0367 7.63389 6.81641L7.14518 7.30512L1.65698 1.81693L0.242769 3.23114L16.2214 19.2098L17.6356 17.7955L12.8458 13.0058L13.3345 12.517C15.1142 12.6717 16.9505 12.0681 18.3144 10.7042C20.7631 8.25547 20.7631 4.28529 18.3144 1.83655ZM11.579 11.7389L12.3769 10.9411C12.5807 10.7373 12.8701 10.644 13.1546 10.6904C14.5313 10.9151 15.9884 10.4966 17.0476 9.4374C18.7967 7.6883 18.7967 4.85246 17.0476 3.10336C15.2985 1.35426 12.4626 1.35426 10.7135 3.10336C9.65437 4.16252 9.23583 5.61968 9.46053 6.99636C9.50696 7.28082 9.41367 7.57025 9.20986 7.77405L8.41199 8.57193L11.579 11.7389Z" fill="#111111"/>
<path d="M8.83298 14.6513L7.53566 13.3539C7.20296 13.4847 6.96745 13.8088 6.96745 14.1879V15.8258H5.3296C4.83488 15.8258 4.43383 16.2268 4.43383 16.7216V18.3594H1.79154V15.1924L5.58282 11.4011L4.31601 10.1343L0.262365 14.1879C0.0943755 14.3559 0 14.5838 0 14.8213V19.2552C0 19.7499 0.40105 20.1509 0.895769 20.1509H5.3296C5.82432 20.1509 6.22537 19.7499 6.22537 19.2552V17.6173H7.86321C8.35793 17.6173 8.75898 17.2163 8.75898 16.7215V15.5224C8.75898 15.2305 8.78374 14.939 8.83298 14.6513Z" fill="#111111"/>
</svg>
