<svg width="177" height="129" viewBox="0 0 177 129" fill="none" xmlns="http://www.w3.org/2000/svg">
<g clip-path="url(#clip0_13859_96396)">
<path d="M0 0H10.3721H11.6979H22.9417H26.5091H38.0496H39.6644H51.0177H53.4041H59.3835H60.8741H76.5536H78.0436H90.5819H93.2107H101.446H102.871H125.802H126.962H140.616H141.996H157.695H161.593H176.871V17.235V18.7113V31.117V33.7831V40.7522V42.3088V43.8857V51.0048V56.4704V59.1398V60.5117V68.4562V71.4935V84.2037V88.2157V95.882V97.2135V107.184V108.459V113.928V117.285V129H171.501H170.338H151.29H150.062H133.602H129.456H106.093H103.129H100.075H97.173H82.8799H82.3034H69.8076H64.3544H54.6669H49.5764H44.8213H43.6354H32.4717H30.5824H28.54H26.6269H14.257H12.7361H2.46672H1.03422H0V114.899V113.124V109.012V101.202V88.1896V86.6959V76.3683V72.4623V65.94V63.8419V38.8222V37.2717V27.1343V25.6811V24.8425V21.9543V2.89146V1.52464V0Z" fill="#302F31"/>
<path d="M102.871 0H125.801C125.689 0.705431 126.022 3.17009 126.088 4.03401C126.567 10.2871 127.309 16.5368 127.929 22.7711L128.578 29.8068C128.573 29.7601 128.881 33.054 128.895 32.8079C128.827 33.9691 131.579 35.8497 131.378 36.2281C130.174 38.5068 124.803 45.7785 123.451 47.5836C120.692 47.8353 117.27 48.9214 114.604 48.8541C112.616 40.0284 110.47 31.2199 108.525 22.3804C108.275 21.2461 108.018 20.0986 107.735 18.9726L104.572 6.75194C104.065 4.81888 103.2 1.89277 102.871 0Z" fill="#585858"/>
<path d="M165.643 11.3369C168.61 18.3375 172.772 25.4126 176.05 32.303C176.246 32.7178 176.609 33.4513 176.873 33.7827V40.7517C176.013 41.4368 172.816 43.1614 171.685 43.7168C168.563 45.248 164.277 48.5659 160.965 48.8853C159.136 47.3404 155.795 40.6036 154.452 38.1109C153.533 38.448 152.351 38.7484 151.391 39.018C148.823 35.7041 145.954 32.5058 143.309 29.1906C144.395 27.4908 145.619 25.2913 146.886 23.7785C147.633 22.8866 149.607 22.1803 150.586 21.5244C151.773 20.7293 152.951 19.8438 154.139 19.0278L161.042 14.3764C162.152 13.6277 164.817 12.1262 165.643 11.3369Z" fill="#585858"/>
<path d="M160.559 0.883789C162.326 4.33319 164.019 7.81839 165.641 11.3372C164.815 12.1264 162.151 13.628 161.041 14.3767L154.137 19.0281C152.949 19.844 151.771 20.7295 150.585 21.5247C149.606 22.1805 147.632 22.8869 146.885 23.7788C145.617 25.2915 144.393 27.4911 143.307 29.1909C145.952 32.5061 148.821 35.7044 151.39 39.0183C152.35 38.7487 153.531 38.4483 154.451 38.1111C155.794 40.6038 159.135 47.3407 160.964 48.8855C164.276 48.5662 168.562 45.2482 171.683 43.7171C172.814 43.1617 176.012 41.437 176.871 40.752V42.3087C175.316 43.3898 172.956 44.6012 171.246 45.6153C167.091 48.0512 162.963 50.5302 158.86 53.0517C157.413 53.9383 154.188 55.8169 153.1 56.8561C151.766 54.5269 150.815 51.3199 149.46 49.5227L148.257 48.9338C145.097 49.9654 145.6 48.8031 144.37 46.9657C143.09 45.0543 132.958 49.944 131.998 51.0188C128.463 54.9769 128.42 57.9684 122.309 57.9518C122.716 56.0991 123.286 53.5144 124.239 51.862C126.634 47.707 129.901 43.6648 132.706 39.7433L151.06 14.185L156.926 6.07851C158.058 4.5175 159.582 2.51007 160.559 0.883789Z" fill="#585858"/>
<path d="M103.969 120.539C105.84 119.439 123.923 111.425 125.136 111.27C125.661 112.064 127.014 115.3 127.498 116.384L132.546 127.656C131.821 127.909 130.036 128.52 129.458 129H106.095C105.276 126.44 104.909 123.041 103.969 120.539Z" fill="#585858"/>
<path d="M141.996 0H157.695C155.157 3.69964 152.251 7.5563 149.62 11.2421L132.344 35.3216C131.638 34.6063 130.804 33.8009 130.191 33.0226C129.751 30.9072 129.721 27.5929 129.48 25.235C131.655 25.0052 133.887 24.8779 136.009 24.3864C138.29 22.2863 141.48 18.8316 143.029 16.2126C142.717 12.6053 141.549 9.53758 141.078 6.06411C140.957 5.16889 141.796 1.17858 141.996 0Z" fill="#585858"/>
<path d="M169.737 99.9092C169.896 101.094 176.053 115.703 176.872 117.285V129H171.502C169.442 123.872 167.031 118.568 164.881 113.448C163.829 110.944 161.903 106.112 160.707 103.862C162.093 103.369 163.921 102.437 165.334 101.857C166.63 101.325 168.582 100.58 169.737 99.9092Z" fill="#585858"/>
<path d="M153.684 58.0512C155.01 56.783 156.929 55.7083 158.511 54.7312C161.975 52.6028 165.464 50.5121 168.973 48.4596C170.275 47.6903 172.895 46.2909 173.962 45.4639C174.94 48.927 175.811 53.2181 176.872 56.4701V59.1395C171.912 60.3529 166.849 61.8598 161.911 63.1983C160.952 63.4584 157.072 64.4611 156.39 64.7834C155.404 62.6167 154.865 60.5071 153.684 58.0512Z" fill="#585858"/>
<path d="M148.203 121.732C151.631 120.258 155.046 118.76 158.453 117.238C160.071 116.525 162.582 115.548 164.096 114.722C164.589 116.215 169.612 128.033 170.34 129H151.292C150.403 127.055 148.963 123.73 148.203 121.732Z" fill="#585858"/>
<path d="M161.594 0H176.872V17.235C175.811 17.9677 172.395 19.2482 171.027 19.7881C169.736 16.596 167.739 12.7799 166.211 9.57588C164.95 6.93189 163.021 2.4505 161.594 0Z" fill="#585858"/>
<path d="M0 27.1348C3.55705 29.2038 7.07898 31.3327 10.5643 33.5204C11.8369 34.3101 14.1274 35.6376 15.2151 36.4465C16.0673 35.4466 19.377 30.8501 20.0372 30.5824C20.9649 31.0043 21.7841 32.0892 22.7858 32.76C21.0817 35.1767 19.3497 37.5737 17.5901 39.9504C16.1193 41.9056 14.1362 44.3614 12.8999 46.4109C11.9813 45.5698 10.6502 44.6635 9.62199 43.9205C7.525 42.3879 5.39292 40.9039 3.22747 39.4696C2.55842 39.0198 0.528343 37.7235 0 37.2721L0 27.1348Z" fill="#585858"/>
<path d="M60.875 0H76.5544C77.4565 1.4108 79.4863 5.19417 80.1555 6.65306C77.9109 7.97246 75.4997 9.60542 73.2706 11.0026C71.6122 12.042 68.678 13.8466 67.2008 15.0867C65.8857 11.8865 64.444 8.70766 63.1054 5.51593C62.3656 3.75157 61.4472 1.80919 60.875 0Z" fill="#585858"/>
<path d="M12.4802 72.3086C13.8545 73.5445 14.2408 73.9275 15.3016 75.4031C14.2152 78.3242 11.6827 81.9325 10.0809 84.7082C9.14527 86.3294 7.48608 89.6401 6.47969 90.9475C4.31116 89.5436 2.15123 88.1265 0 86.6961V76.3684C3.73906 74.8945 8.56411 73.6104 12.4802 72.3086Z" fill="#585858"/>
<path d="M11.6963 0H22.9401C24.5767 2.32885 25.9648 5.05063 27.5342 7.44975C27.944 8.07636 30.227 11.5683 30.0195 12.0887C29.0434 12.7225 25.4784 12.7114 24.2959 12.4099C18.9725 11.0526 14.1318 8.1314 9.09375 5.94903C10.0235 3.99381 10.8914 2.00982 11.6963 0Z" fill="#585858"/>
<path d="M0 38.8223C3.50124 41.1298 8.92894 44.7333 12.0211 47.4602C8.25606 52.7743 3.96885 58.6642 0 63.842V38.8223Z" fill="#585858"/>
<path d="M160.785 75.7382C164.019 74.6072 168.83 73.8478 171.719 72.6582C172.772 76.6632 174.729 81.3297 175.794 85.5777C174.161 86.7593 170.863 87.7963 168.957 88.6581C168.369 88.9243 167.298 89.3224 166.804 89.6609C166.188 88.5411 165.608 86.8957 165.075 85.7017C163.647 82.5079 162.342 78.8304 160.785 75.7382Z" fill="#585858"/>
<path d="M4.20759 16.6572C4.87558 17.3093 5.56838 17.9461 6.2801 18.55C10.5065 22.1367 14.6221 26.0066 18.8932 29.5277C17.5951 31.445 16.1777 33.0576 14.9384 34.8787C14.0282 34.0484 10.0605 31.6263 8.75244 30.8713C6.14215 29.3647 2.62342 26.9486 0 25.6812V24.8426C1.47386 22.2496 2.73262 19.3213 4.20759 16.6572Z" fill="#585858"/>
<path d="M176.871 60.5117V68.4562C173.476 69.3276 170.086 70.2221 166.702 71.1397C164.829 71.6352 161.383 72.2999 159.903 73.1336C159.158 71.1567 157.77 67.7458 156.82 65.8749C158.827 65.574 162.468 64.4562 164.572 63.8621C168.658 62.6975 172.759 61.5806 176.871 60.5117Z" fill="#585858"/>
<path d="M92.4233 91.666C95.3377 93.9618 95.3513 95.9035 96.1507 99.3231L97.7753 106.259C99.0678 111.592 100.327 116.934 101.553 122.283C102.05 124.425 102.705 126.888 103.128 129H100.074C99.6757 128.104 99.2821 126.267 99.0287 125.258L97.3474 118.587L93.6213 103.462C92.8406 100.298 92.0365 97.1387 91.3283 93.9582C91.0768 92.8278 91.6679 92.3768 92.4233 91.666Z" fill="#585858"/>
<path d="M19.9141 121.861C21.3523 120.304 24.7206 115.686 26.0538 114.63C29.0907 117.417 32.7363 120.077 36.0426 122.586C34.191 124.604 32.4147 127.093 30.5835 129H28.5411C25.6697 126.652 22.8166 124.138 19.9141 121.861Z" fill="#585858"/>
<path d="M13.0767 48.0996C14.0086 48.8342 14.9024 49.4599 15.8722 50.1372C14.2937 52.7893 12.4541 55.4055 10.8884 58.085C7.94678 63.1193 5.72522 63.869 6.88012 70.1269C5.51981 70.5724 0.862593 71.8968 0 72.4621V65.9398C1.93372 63.4308 3.95797 60.7473 5.75753 58.1428C8.04663 54.8299 10.9836 51.4946 13.0767 48.0996Z" fill="#585858"/>
<path d="M53.4037 0H59.383C60.5706 2.47541 61.7848 5.73371 62.925 8.30343C63.7675 10.202 65.3061 13.5542 65.9279 15.4368C65.758 15.9057 63.4108 17.3644 62.7481 17.8705C62.3642 17.1115 59.6728 13.4431 58.9879 12.4676C56.4294 8.82384 53.867 4.99094 51.2383 1.41259L53.4037 0Z" fill="#585858"/>
<path d="M82.9724 117.105C83.2103 117.584 87.0198 121.933 87.6441 122.654C85.7822 124.528 83.6017 126.062 81.6473 127.767C81.8098 128.081 82.1245 128.732 82.3053 129H69.8095L68.9727 128.249C73.5524 124.542 78.2605 120.626 82.9724 117.105Z" fill="#585858"/>
<path d="M93.2094 0H101.445C101.795 0.872535 101.99 1.87842 102.196 2.79868C100.009 3.67596 96.5282 5.52361 94.2648 6.60213C92.052 7.65203 89.8479 8.71986 87.6525 9.80552C86.7251 10.2646 85.09 11.0238 84.2936 11.5702C83.4819 10.2334 82.5598 8.35551 81.8164 6.93779C83.5346 6.06098 85.2507 4.87948 86.8952 3.86327C88.9948 2.56576 91.1008 1.28293 93.2094 0Z" fill="#585858"/>
<path d="M2.3634 104.65C4.97887 106.529 7.51396 108.475 10.1104 110.37C10.7415 110.831 12.8175 112.411 13.3861 112.666C11.8053 114.978 9.48396 117.623 8.11147 119.836C5.63888 117.581 2.18579 115.2 0 113.124V109.012C0.871898 107.59 1.61565 106.14 2.3634 104.65Z" fill="#585858"/>
<path d="M26.5078 0H38.0483C39.0645 1.29705 40.8408 4.31544 41.7739 5.82221C40.854 6.26126 39.1583 7.34926 38.2474 7.91295C36.5727 8.94946 34.745 10.0407 33.1207 11.1369C31.013 7.46421 28.4999 3.66802 26.5078 0Z" fill="#585858"/>
<path d="M166.805 89.6603C167.299 89.3218 168.369 88.9237 168.958 88.6575C170.864 87.7957 174.162 86.7587 175.794 85.5771C175.966 86.0339 176.649 87.9138 176.871 88.2156V95.8819C175.326 96.673 172.315 97.3544 170.245 98.4234C169.833 96.4853 167.576 91.8931 166.805 89.6603Z" fill="#585858"/>
<path d="M126.961 0H140.616C140.607 1.39558 140.011 4.20302 139.798 5.76392C138.513 5.73331 135.619 6.15185 134.241 6.32701C132.084 6.60111 129.824 6.78842 127.693 7.08631C127.314 4.71718 127.345 2.29243 126.961 0Z" fill="#585858"/>
<path d="M0 2.8916C1.94469 3.9068 5.47566 5.642 7.47381 6.47197C6.98215 7.52187 6.55765 8.56407 6.09293 9.62282C4.42798 13.416 2.45668 17.0837 0.623416 20.7981C0.442325 21.1651 0.231782 21.6225 0 21.9544V2.8916Z" fill="#585858"/>
<path d="M44.3281 118.963C48.0684 120.178 52.0392 121.779 55.8251 122.492C53.152 124.812 51.8089 126.857 49.5762 129H44.8211C44.9768 126.644 44.4186 121.588 44.3281 118.963Z" fill="#585858"/>
<path d="M133.602 129C134.646 127.434 140.587 125.283 142.561 124.287C143.646 123.74 145.78 122.774 146.937 122.333C147.89 124.142 149.097 127.57 150.062 129H133.602Z" fill="#585858"/>
<path d="M0 114.898C2.48081 116.45 5.0928 119.167 7.43496 120.795L3.32761 125.951C2.63805 126.824 1.56942 128.104 1.03422 129H0V114.898Z" fill="#585858"/>
<path d="M8.38975 121.589C10.4749 122.932 13.0548 125.438 14.6852 126.382C14.2025 127.012 13.0982 128.379 12.7342 129H2.46484C3.36541 128.107 4.7537 126.26 5.57654 125.219C6.32841 124.268 7.7541 122.578 8.38975 121.589Z" fill="#585858"/>
<path d="M176.869 97.2139V107.184C176.625 107.34 174.955 107.892 174.357 108.168C173.806 106.435 171.581 100.863 170.695 99.4071C172.587 98.8752 175.11 98.0216 176.869 97.2139Z" fill="#585858"/>
<path d="M82.8789 129C83.3575 127.666 87.1916 124.769 88.5477 123.457C89.033 124.044 91.2499 126.487 91.4783 126.885C93.083 126.677 94.6829 126.434 96.277 126.157C96.4953 126.938 96.7963 128.388 97.1721 129H82.8789Z" fill="#585858"/>
<path d="M0 88.1895L5.84239 92.0591C4.30309 94.5038 1.62278 99.029 0 101.202V88.1895Z" fill="#585858"/>
<path d="M78.043 0H90.5813C89.8649 0.594776 88.8031 1.18129 88.0119 1.70542C85.8572 3.13268 83.3671 4.47849 81.3046 6.00385C80.2332 3.99404 79.1459 1.9927 78.043 0Z" fill="#585858"/>
<path d="M19.103 122.862C21.471 124.684 24.3683 127.456 26.6277 129H14.2578C14.8966 128.402 18.6607 123.63 19.103 122.862Z" fill="#585858"/>
<path d="M37.0285 123.359C38.7087 124.975 42.8202 127.045 43.6363 129H32.4727C33.4331 127.581 35.8616 124.556 37.0285 123.359Z" fill="#585858"/>
<path d="M0 0H10.3721C9.56773 1.76152 8.67354 3.66509 8.02032 5.48788C6.33306 4.4421 1.84979 2.28069 0 1.52464V0Z" fill="#585858"/>
<path d="M176.87 18.7109V31.1166C176.285 30.1947 175.449 28.4366 174.94 27.4303L171.633 20.8745C173.516 20.2917 175.081 19.5295 176.87 18.7109Z" fill="#585858"/>
<path d="M39.6641 0H51.0174C50.5086 0.447069 48.6269 1.54542 47.9505 1.95446C46.2491 2.97133 44.5627 4.0131 42.8918 5.07945C41.7938 3.46715 40.7056 1.66316 39.6641 0Z" fill="#585858"/>
<path d="M176.872 84.2034C176.47 83.692 173.007 72.6572 173.087 72.4335C173.977 72.0518 175.899 71.6442 176.872 71.4932V84.2034Z" fill="#585858"/>
<path d="M59.7443 124.033C60.4519 124.906 63.5823 128.351 64.3554 129H54.668C56.137 127.512 58.1477 125.28 59.7443 124.033Z" fill="#585858"/>
<path d="M176.872 51.0048C176.523 50.5493 175.311 45.4402 175.408 44.7935C175.718 44.4073 176.408 44.1201 176.872 43.8857V51.0048Z" fill="#585858"/>
<path d="M176.871 113.927C176.507 113.476 175.108 109.839 174.996 109.234C175.089 109.147 176.609 108.584 176.871 108.459V113.927Z" fill="#585858"/>
<path d="M20.3546 80.0207C19.3919 79.0037 18.4425 78.4626 19.3301 76.9146C20.9613 74.0698 22.798 69.8351 25.8366 68.322C27.5762 67.4557 29.8353 67.0232 31.6806 66.3584C32.3106 66.8535 32.5738 67.1568 33.1012 67.7449C35.1859 69.5339 36.8864 71.7667 38.7891 73.7265C42.2838 77.3262 45.9452 80.7759 49.4111 84.4058C49.7899 84.8025 50.201 85.2438 50.6103 85.604C49.4157 87.0376 48.0672 88.2141 46.8002 89.5666C45.8679 90.5619 45.0083 91.6207 44.0711 92.6277C41.794 95.074 39.3061 97.4315 37.0694 99.9026C35.3166 97.94 33.4987 96.1206 31.7293 94.1937C30.4296 92.7783 29.1354 91.0288 27.8659 89.5512C25.9182 87.2841 23.9585 85.0019 22.1984 82.5864C21.9369 82.2275 20.4697 80.286 20.3546 80.0207Z" fill="#585858"/>
<path d="M134.754 92.2935C134.474 91.8599 134.036 90.5699 133.724 90.0126C132.114 87.1293 130.002 80.6829 128.038 78.4421C126.691 76.9062 117.773 75.0265 117.445 74.5604C117.999 73.7819 118.708 72.862 119.173 72.0458C119.605 71.2877 120.087 69.6454 120.56 68.9902C122.581 69.8218 125.157 70.624 127.247 71.3326L136.604 74.5536C139.674 75.6016 145.567 77.856 148.48 78.452L152.432 87.9178C153.548 90.2359 154.657 93.1522 155.785 95.3042C150.633 97.9475 144.983 100.262 139.823 102.853C138.631 100.458 137.548 97.9816 136.389 95.5741C136.09 94.9559 135.074 92.7487 134.754 92.2935Z" fill="#585858"/>
<path d="M33.0352 65.9594C34.2794 65.3618 36.3142 64.7745 37.7033 64.3227L44.1545 62.2003C46.4085 61.4804 48.8135 60.4502 51.1385 60.0669C52.1584 59.8987 53.1786 59.9244 54.1628 60.2665C57.059 61.2732 62.8425 67.63 65.9837 69.7945L64.9137 70.781C61.878 73.8476 58.7122 77.2991 55.7348 80.45C54.6073 81.6431 52.3373 83.7279 51.465 84.9063C49.5375 82.4166 46.6263 79.7538 44.3733 77.5273C41.0129 74.2552 37.7627 70.872 34.6279 67.3832C33.8971 66.8913 33.6376 66.5943 33.0352 65.9594Z" fill="#585858"/>
<path d="M30.9995 13.3076C31.5359 13.8208 34.8268 19.6814 35.5112 20.8327L48.3015 42.1728C45.6763 43.4514 43.2357 45.009 40.8172 46.6328C40.3894 46.3305 39.9006 45.9143 39.4858 45.5799C35.3422 41.7347 30.7756 38.0508 26.5243 34.2947C24.5923 32.5878 22.7683 31.1444 20.8828 29.3386C22.9621 26.3924 23.472 24.8491 24.3924 21.3391C25.0675 18.7644 25.7673 16.4641 26.2696 13.8169C27.8151 13.8836 29.4849 13.6147 30.9995 13.3076Z" fill="#585858"/>
<path d="M31.9138 107.518C35.2625 103.619 38.2741 100.71 41.6871 97.0319L46.9375 91.4344C47.9626 90.3346 50.4698 87.6313 51.6419 86.7598C53.4074 88.5131 55.2007 90.2736 56.9185 92.0718C58.5346 93.7634 60.031 95.5837 61.7147 97.2119C58.7491 100.407 56.2509 102.848 53.0284 105.772C50.5694 108.002 46.1972 111.979 44.335 114.582L44.2051 114.714C43.7022 114.882 41.0289 113.833 40.4131 113.616C37.5273 112.6 34.99 111.055 32.6567 109.092C32.3524 108.836 31.6296 108.29 31.4766 107.954L31.9138 107.518Z" fill="#585858"/>
<path d="M23.7482 33.7256C24.0258 33.735 33.6185 42.1105 34.774 43.0982C34.1167 43.7754 32.8658 45.6543 32.2459 46.5161C30.4954 48.9492 28.4478 51.537 26.9749 54.1105C25.5638 56.5755 27.5634 60.5607 28.4702 63.3287C27.0986 63.7183 25.5591 64.2733 24.1637 64.6996L9.69513 69.1496L8.01057 69.6739C7.11558 65.074 8.42108 64.2987 10.7311 60.6569C12.7749 57.4572 14.7923 54.2405 16.7829 51.0073C18.5793 52.0281 21.3086 52.9413 23.4023 52.9185C24.0886 52.1721 26.6637 48.8012 26.6229 48.255C26.4925 46.5111 19.0116 43.2237 18.0382 41.8696C18.1109 41.2707 22.9999 34.4991 23.7482 33.7256Z" fill="#585858"/>
<path d="M66.1409 71.2358C66.5758 70.9155 66.5188 70.8491 66.9706 70.8301C68.4192 71.8943 77.7119 79.7579 78.2511 80.5943C78.1078 80.9968 77.9251 81.1312 77.5272 81.3777C77.066 82.0983 72.7106 86.3714 71.9224 87.1457C68.8283 90.1983 65.7518 93.2688 62.6928 96.3567C60.9361 94.4765 59.2061 92.5671 57.3962 90.7383C55.715 89.0395 53.9608 87.4402 52.332 85.6881C54.1331 83.4235 65.5947 72.7066 66.1409 71.2358Z" fill="#585858"/>
<path d="M142.864 47.6406C143.726 47.8942 144.512 49.9316 145.921 50.7755C147.225 50.7957 147.502 50.6988 148.75 50.3741C149.32 51.61 149.769 53.0559 150.397 54.3168C152.166 57.8637 153.879 61.3329 155.174 65.0977C153.724 65.2639 146.433 67.3468 144.953 67.8934C143.721 67.3064 142.718 66.4368 141.759 65.4803C139.415 62.6254 139.131 61.6034 135.334 60.6031C132.402 59.8304 129.702 58.9963 126.68 58.4327C130.216 56.2283 130.45 54.9335 132.734 52.0625C133.634 50.9333 141.289 47.9339 142.864 47.6406Z" fill="#585858"/>
<path d="M80.6366 7.81152C81.3729 8.33737 88.6571 22.8321 90.1061 25.0779C88.1227 25.8584 86.3438 26.8058 84.4286 27.6906C81.7507 28.9277 79.1467 30.1202 76.5051 31.4379L75.6766 31.7952C71.5689 27.5617 69.5794 21.399 67.4766 16.1228C69.3755 15.0977 70.983 13.9223 72.7887 12.7682L80.6366 7.81152Z" fill="#585858"/>
<path d="M78.4808 82.3514C78.7828 82.0317 79.0069 81.7138 79.4326 81.6484C80.0359 81.6855 81.0861 82.9352 81.571 83.3729C82.8061 84.488 84.2353 85.5069 85.3341 86.752C86.4936 88.0638 87.3371 89.6236 87.8002 91.312C86.8297 92.5119 84.9755 94.2327 83.8203 95.3242C83.6755 95.5637 82.0378 97.1831 81.7552 97.4598C79.839 99.3369 77.943 101.332 75.9991 103.171C74.7722 104.331 73.5264 105.032 72.3028 106.376C69.1088 103.411 66.6384 100.067 63.7695 97.2007C68.4774 92.3062 73.6521 87.1787 78.4808 82.3514Z" fill="#585858"/>
<path d="M13.9875 93.9054C13.5597 93.6054 11.716 92.4852 11.6545 92.0362C11.2402 88.9173 14.054 85.7617 15.4433 83.1219C15.9103 82.2346 17.2647 79.6662 18.0166 79.3721L18.2855 79.52C18.6315 79.9529 19.2846 80.8232 19.5193 81.3216C20.4317 82.3235 21.303 83.6145 22.191 84.6932L29.8652 93.9576C31.9323 96.4138 34.2905 98.4385 36.2172 100.966C34.3067 102.893 32.7328 104.455 30.9745 106.546C30.7956 106.735 30.6369 106.845 30.4305 107.001C30.3451 107.003 30.243 107.006 30.1243 107.008C27.2191 104.747 23.3306 101.284 20.4632 99.1766C19.8289 98.8635 16.2342 95.8651 15.6813 95.3046C15.1374 94.8877 14.5215 94.3499 13.9875 93.9054Z" fill="#585858"/>
<path d="M122.019 59.2259C126.269 59.0365 132.118 61.1299 136.271 62.2161C139.323 63.0144 141.161 68.4396 144.548 68.9946C146.995 69.3955 153.486 66.2201 155.55 66.3374C155.895 66.7928 158.442 72.6245 158.549 73.1942L158.416 73.3332C156.842 73.8184 149.644 75.8746 148.515 75.5463C144.456 74.3651 139.725 72.5745 135.692 71.1855L126.16 67.962C124.709 67.4567 122.4 66.6832 121.07 66.0123C121.253 63.7879 121.815 61.514 122.019 59.2259Z" fill="#585858"/>
<path d="M62.7971 98.2236C63.9685 99.2434 64.7741 100.36 65.8272 101.425C67.7025 103.321 69.5158 105.407 71.3735 107.291C70.2681 108.492 61.5566 117.209 60.6912 117.554C60.3731 117.794 60.0426 118.04 59.6864 118.22C58.8629 118.628 57.9478 118.817 57.03 118.768C54.5355 118.656 48.1829 116.227 45.4804 115.312L45.3984 115.106L45.6588 114.807C49.2552 110.784 54.135 106.459 58.0867 102.716C59.5994 101.283 61.241 99.5301 62.7971 98.2236Z" fill="#585858"/>
<path d="M138.951 104.674C139.479 105.172 145.743 119.523 146.374 121.245C142.375 122.989 137.576 125.058 133.713 127.02C133.328 126.443 132.32 124.074 131.996 123.333L128.519 115.418C127.939 114.109 126.914 111.662 126.148 110.539C127.181 110.157 128.298 109.577 129.297 109.09C132.454 107.553 135.83 106.26 138.951 104.674Z" fill="#585858"/>
<path d="M8.59946 6.96582C14.2428 9.87468 18.9747 12.2419 25.0949 14.0129C23.9435 17.621 22.6512 24.7253 20.6211 27.523L19.8114 28.5472L9.10411 19.1813C8.72222 18.8445 4.9127 15.4175 4.89453 15.3796C5.12902 14.5002 5.7904 13.3955 6.16597 12.5331C6.93388 10.7698 7.9557 8.7542 8.59946 6.96582Z" fill="#585858"/>
<path d="M42.4439 6.89453C42.6933 7.01369 52.5349 22.5102 53.1533 23.6758C51.0873 25.1748 46.6829 27.887 44.3856 29.2267C44.2671 29.2561 44.0535 29.2545 44.0319 29.2226C41.8126 25.9529 35.5027 14.7588 33.7148 12.2175C36.563 10.4936 39.624 8.55505 42.4439 6.89453Z" fill="#585858"/>
<path d="M113.071 101.161C112.525 99.7989 104.867 83.5038 105.075 83.6623C101.975 85.767 97.9988 87.9413 95.0586 90.1377C97.2042 91.9355 97.7249 93.6781 98.3933 96.3615L98.6661 97.3907C99.0388 98.7859 99.5412 100.915 99.7944 102.333C100.112 103.716 100.468 105.492 100.923 106.806C101.784 106.214 104.484 104.986 105.525 104.516C107.869 103.458 110.655 101.988 113.071 101.161Z" fill="#585858"/>
<path d="M35.5976 43.917C37.1184 45.0082 38.1068 46.0728 39.4914 47.2484C41.3243 48.8046 42.9563 50.2539 44.6985 51.912C44.5636 53.8898 44.417 56.1968 44.0273 58.1384C41.296 59.1118 37.8669 60.3684 35.0974 61.1648C33.311 61.7782 31.5289 62.4039 29.7513 63.0417C29.1916 61.3559 28.1266 58.5143 27.7076 56.9629C27.1612 54.9399 31.4928 49.6441 32.6833 48.0445C33.6883 46.6928 34.6601 45.3165 35.5976 43.917Z" fill="#585858"/>
<path d="M68.3487 22.1475C68.5917 22.4381 69.6813 25.0534 70.0425 25.7185C70.8876 27.2747 71.7042 28.7363 72.7361 30.1928C69.6936 31.8865 66.4633 33.3626 63.3371 34.9032C59.3784 36.854 55.4652 38.826 51.445 40.6542L51.1566 40.7604C50.693 40.5816 47.9109 35.7415 47.332 34.9282C48.9452 33.7804 51.4536 32.5105 53.2049 31.4192C58.2003 28.3063 63.4701 25.4242 68.3487 22.1475Z" fill="#585858"/>
<path d="M82.8214 54.8877C83.1147 55.0568 83.4841 55.9533 83.8257 56.2732C87.3436 59.5662 90.3532 64.1132 93.8824 67.2872C92.5697 68.3199 87.3529 72.7256 86.2786 73.8974L85.1985 72.7692C84.0515 71.5602 82.3839 70.2626 81.1149 69.1462C78.4839 66.8314 75.6381 64.4794 73.1562 62.0071C75.4641 59.7226 80.1966 56.9924 82.8214 54.8877Z" fill="#585858"/>
<path d="M139.552 6.72461C140.154 7.31428 141.39 13.3793 141.528 14.4907C141.699 15.8641 141.518 16.585 140.561 17.6845C139.35 19.0767 136.604 22.4281 135.098 23.1876C134.564 23.4577 130.646 23.8275 129.781 23.9295L129.552 23.7949C129.393 19.1862 128.401 13.0404 127.676 8.3566C128.934 8.34539 138.434 7.11744 139.552 6.72461Z" fill="#585858"/>
<path d="M73.1591 31.4951C73.3482 31.5206 73.5373 31.546 73.7265 31.5715C76.1348 34.0794 78.1873 37.0571 80.63 39.5426C80.3094 39.7568 79.8986 39.9623 79.5562 40.153C75.3873 42.475 71.3257 44.9911 67.209 47.4114L65.9671 48.0876C63.941 44.737 62.3919 41.1144 60.4492 37.7166C61.781 37.1809 63.006 36.459 64.2899 35.8513C67.2055 34.4709 70.2188 32.7669 73.1591 31.4951Z" fill="#585858"/>
<path d="M89.6948 72.5352C90.3557 72.8613 94.5987 77.6371 96.2057 78.6775C97.2451 77.9843 99.9779 75.8113 100.803 74.9186C102 76.6056 103.92 78.5848 105.418 80.0223C103.187 81.5595 100.438 83.2286 98.1317 84.672C96.2796 85.7616 94.5955 87.088 92.6985 88.1476C90.3466 86.3497 88.147 83.8688 85.8393 81.9733C84.6541 80.9998 83.4255 79.9511 82.2773 78.9362C84.4069 76.6168 87.437 74.6308 89.6948 72.5352Z" fill="#585858"/>
<path d="M113.317 102.328L113.429 102.332C114.199 103.062 117.236 110.812 118.559 112.735C117.101 113.068 114.286 114.424 112.775 115.098C110.429 116.143 107.912 117.217 105.614 118.33L103.664 119.225C103.6 118.654 103.453 117.913 103.305 117.358C102.494 114.32 101.999 111.015 101.137 108.013C105.136 106.198 109.369 104.226 113.317 102.328Z" fill="#585858"/>
<path d="M159.45 75.9736C159.504 75.9973 159.558 76.0209 159.611 76.0446C161.303 79.9585 164.167 87.1709 165.825 90.6476C164.702 91.2236 157.521 94.8782 156.801 94.6775C154.587 89.3802 151.995 83.7772 149.98 78.4662C152.33 77.995 154.614 77.2258 156.952 76.6941C157.773 76.5071 158.677 76.3027 159.45 75.9736Z" fill="#585858"/>
<path d="M21.0834 104.514C21.3073 104.579 27.3597 109.634 27.9294 110.109C23.8718 114.856 19.4369 120.202 15.7148 125.164L15.469 125.394C14.7711 125.253 10.6885 121.537 9.16406 120.624C9.69478 119.771 10.4436 118.77 11.0703 117.979C14.5163 113.631 17.6584 108.85 21.0834 104.514Z" fill="#585858"/>
<path d="M50.0819 2.12012C50.4241 2.25026 52.1706 4.9539 52.6099 5.57176C55.676 9.88529 58.5744 14.2729 61.8088 18.4665C60.2034 19.6329 56.7831 21.5607 54.9808 22.6411L54.481 22.9519C54.0739 22.7909 52.5736 20.1721 52.2359 19.6351L46.8805 11.2892C45.9154 9.7839 44.6288 7.60352 43.582 6.26301C45.712 4.87572 48.0051 3.53975 50.0819 2.12012Z" fill="#585858"/>
<path d="M133.57 92.9404C134.016 93.1381 134.923 95.511 135.183 96.073C136.348 98.5439 137.492 101.025 138.616 103.515C135.943 104.344 133.024 106.109 130.387 107.179C129 107.743 127.331 108.509 126.032 109.23L125.901 109.279L125.703 109.176C125.538 108.334 124.986 107.537 124.657 106.698C123.576 103.947 122.294 101.396 121.062 98.7395C123.136 97.886 125.179 96.8258 127.223 95.8797C129.197 94.9656 131.702 94.0185 133.57 92.9404Z" fill="#585858"/>
<path d="M112.118 44.708C112.575 45.0025 113.671 50.6288 113.935 51.6938C112.022 53.459 108.022 55.9876 105.812 57.6343C104.636 58.5111 102.747 59.9938 101.641 60.7579C100.993 59.9318 100.071 58.9505 99.3318 58.206C97.8581 56.7283 96.3386 54.9881 94.7812 53.674C97.588 51.4862 103.324 48.3772 106.676 46.8429C108.279 46.109 110.439 45.6036 112.118 44.708Z" fill="#585858"/>
<path d="M8.41073 95.7652C10.7055 95.5247 13.2701 98.3882 15.1146 99.7432C16.7271 100.928 18.4251 102.386 19.9991 103.647C18.1391 106.27 16.2333 109.019 14.2772 111.559L14.203 111.645C14.1311 111.659 14.0446 111.676 13.9434 111.695C13.0181 111.057 11.7318 109.978 10.8958 109.325C8.35889 107.357 5.76083 105.47 3.10547 103.666C3.95626 102.071 7.09076 96.5822 8.41073 95.7652Z" fill="#585858"/>
<path d="M116.215 75.5264C119.456 76.8382 123.706 77.4713 126.835 79.2066C127.916 79.8055 128.886 82.3618 129.426 83.5842C127.828 84.4256 124.825 85.667 123.12 86.4125C121.024 87.4301 119.071 88.1288 116.902 89.2812C115.736 85.9828 113.762 82.144 112.391 78.8733C113.777 77.9572 115.212 76.851 116.215 75.5264Z" fill="#585858"/>
<path d="M95.5218 34.4463L95.6289 34.5079C96.17 35.9163 99.3118 40.5451 100.289 42.0152C96.7137 44.0155 93.2063 46.1351 89.7728 48.3706L88.7719 47.2838C88.225 46.7464 87.0896 45.2527 86.5518 44.6029L82.6172 39.9367C86.8346 38.2219 91.3248 36.2498 95.5218 34.4463Z" fill="#585858"/>
<path d="M65.2512 49.8965L65.4953 49.9156C66.7629 51.9815 68.1794 54.1037 69.4984 56.1447C70.4989 57.6928 71.6111 59.138 72.5634 60.7413C70.7371 62.2728 68.6368 63.9668 66.7761 65.4904L65.8605 64.6725C63.4734 63.3869 60.1096 59.1869 58.5194 56.9379C56.6167 54.2471 58.3063 54.0276 60.297 52.8586L65.2512 49.8965Z" fill="#585858"/>
<path d="M72.2874 111.832C73.5505 112.681 77.7105 117.545 78.7414 118.754L68.4823 126.973C68.2782 127.18 68.2481 127.195 67.9603 127.238C66.9452 126.582 63.4999 122.552 62.2852 121.406C62.6766 120.92 63.0689 120.572 63.5185 120.144C66.4397 117.365 69.4187 114.665 72.2874 111.832Z" fill="#585858"/>
<path d="M89.3953 50.2295C90.5482 50.6984 99.2486 59.9263 100.815 61.4679C98.9682 62.9622 96.6519 64.7493 94.986 66.4195L94.895 66.479C94.599 66.386 84.8393 55.4403 83.7578 54.202C85.2272 53.369 87.8417 51.3066 89.3953 50.2295Z" fill="#585858"/>
<path d="M90.3247 26.3182L90.5012 26.3086C90.936 26.49 94.2884 32.4009 94.8568 33.3364C94.2151 33.6505 81.35 39.0671 81.7584 39.0509L81.6169 38.8542C80.3268 37.1534 77.9541 34.5308 76.4883 32.9187C81.0844 30.6103 85.7154 28.5927 90.3247 26.3182Z" fill="#585858"/>
<path d="M88.7726 95.8389C88.8445 95.9073 91.488 106.94 91.8695 108.172C90.0203 110.013 87.7116 111.431 85.922 113.165C85.2183 112.636 84.5414 111.93 83.9095 111.305C82.9414 110.106 79.8283 106.305 78.8398 105.406C80.392 103.945 81.8739 102.317 83.4374 100.867C85.2626 99.1746 87.0254 97.6287 88.7726 95.8389Z" fill="#585858"/>
<path d="M111.252 79.6055C111.615 79.8686 118.455 95.9615 119.396 98.0362C117.631 99.1084 116.122 99.3721 114.322 100.548C113.878 100.236 106.98 84.7664 106.176 82.932C107.891 81.7012 109.353 81.0487 111.252 79.6055Z" fill="#585858"/>
<path d="M104.115 11.0732L104.217 11.0995C104.592 11.3889 105.81 16.5333 106.081 17.4626C104.883 17.9247 101.794 19.4675 100.492 20.1028C97.9821 21.3266 93.7447 23.0679 91.4875 24.5087L91.3811 24.5774L91.1736 24.5198L90.9731 24.1317C90.014 22.4879 89.1556 20.3523 88.043 18.8068C88.5902 18.4678 89.1599 18.1714 89.7384 17.8893C94.5049 15.5646 99.352 13.4047 104.115 11.0732Z" fill="#585858"/>
<path d="M102.33 4.12891C102.382 4.14794 102.558 4.27736 102.615 4.31732C102.841 4.8121 103.875 9.18569 103.924 9.6779C103.776 9.91995 100.497 11.4042 100.002 11.6396C95.9249 13.6296 91.8262 15.5756 87.7066 17.477C87.5554 17.545 87.5307 17.5321 87.3721 17.5033L87.26 17.2186C86.9511 16.6067 84.9666 13.018 84.957 12.6838C85.6285 12.1426 89.1823 10.4182 90.1067 9.98887C94.1107 8.12918 98.3207 5.9137 102.33 4.12891Z" fill="#585858"/>
<path d="M129.89 84.7891C129.928 84.8127 132.94 91.3587 133.259 92.0316C129.971 92.9915 124.254 96.025 120.713 97.439C119.905 96.5408 118.379 91.9569 117.316 90.302C119.936 89.2236 122.511 88.0808 125.1 86.9328C126.69 86.2272 128.36 85.6083 129.89 84.7891Z" fill="#585858"/>
<path d="M106.088 18.876C106.097 18.8793 106.107 18.8808 106.115 18.8858C106.78 19.3095 107.755 24.9215 107.967 26.039C106.913 26.4295 104.059 27.7625 102.909 28.2688C101.281 28.9856 96.67 30.7735 95.3893 31.6351C95.2049 31.268 94.9625 30.9056 94.7425 30.5569C93.7726 28.8823 92.7749 27.2238 91.75 25.5823C96.0128 23.8538 100.065 21.5741 104.274 19.7167C104.889 19.4454 105.486 19.1758 106.088 18.876Z" fill="#585858"/>
<path d="M66.2342 16.9805C66.2764 16.9912 66.5203 17.1235 66.5226 17.1296C66.8521 17.9937 67.6961 20.2879 68.0309 20.9948C65.0053 22.9087 61.7984 24.7236 58.7116 26.5592L46.7916 33.7448C46.424 33.4799 45.1539 31.0354 44.832 30.4562C52.0567 26.1099 59.1922 21.6169 66.2342 16.9805Z" fill="#585858"/>
<path d="M59.1353 38.4258L59.2999 38.428C60.44 39.5801 63.5509 46.8406 64.7717 48.7765C62.3754 50.2827 59.7661 51.6479 57.3594 53.1655C57.4111 53.2191 56.3463 50.1493 56.183 49.7798C54.994 47.0891 52.9519 44.6629 51.7617 42.0212C53.6569 40.9215 57.1004 39.3561 59.1353 38.4258Z" fill="#585858"/>
<path d="M106.998 58.3118C107.858 58.2716 112.077 62.744 113.317 63.4114C115.203 64.4269 116.345 64.6078 118.38 65.0421C117.804 67.7598 117.045 71.3282 114.623 73.1074C111.902 70.3224 108.897 67.7855 106.184 64.9835C105.099 63.8626 103.958 62.6597 102.746 61.6863C103.799 60.6111 105.731 59.1954 106.998 58.3118Z" fill="#585858"/>
<path d="M48.8813 43.3184C48.9239 43.3384 48.9666 43.3584 49.0092 43.3786C51.3116 47.2777 54.5778 51.2483 54.7209 55.9166C51.6902 55.8873 49.9764 56.4208 47.1176 57.2152L45.5116 57.6358C46.1642 50.0225 46.9764 52.5664 41.8398 47.5822C43.8138 46.114 46.6729 44.4011 48.8813 43.3184Z" fill="#585858"/>
<path d="M110.826 38.8339L110.951 38.8174L111.067 38.9844C111.096 39.9178 111.775 42.4114 112.034 43.4553C110.443 44.1902 108.404 44.6849 106.897 45.3391C103.369 46.8701 96.7989 50.3742 93.9534 52.8014L93.1953 52.0609C92.2399 51.116 91.5541 50.4144 90.6758 49.381C93.512 47.5324 96.5496 45.842 99.3946 43.9969C102.932 41.7031 107.054 40.5231 110.826 38.8339Z" fill="#585858"/>
<path d="M92.0516 109.586C92.4326 110.043 95.4549 122.78 96.0098 124.828C94.2741 125.472 93.7281 124.98 92.1785 125.637C91.5272 124.983 90.8865 124.317 90.2566 123.642C88.6192 121.455 85.2602 118.326 83.8945 116.258C85.4873 115.055 86.7601 114.001 88.2831 112.748C89.7769 111.52 90.6282 111.068 92.0516 109.586Z" fill="#585858"/>
<path d="M71.9072 62.832C72.8864 63.452 74.4395 64.921 75.3793 65.7588L81.2986 71.0196C82.4302 72.0206 84.2304 73.6625 85.4583 74.486C84.4656 74.9932 82.0506 77.2436 81.326 78.1444C80.4566 77.1979 78.1683 75.3882 77.0867 74.4498C73.9931 71.7124 70.8638 69.0156 67.6992 66.3604C69.076 65.1414 70.5331 64.0367 71.9072 62.832Z" fill="#585858"/>
<path d="M156.204 96.6035C156.51 96.8445 158.075 100.754 158.397 101.517C157.646 101.808 156.703 102.259 155.98 102.622C151.567 104.841 146.853 106.716 142.452 108.916C142.298 108.818 140.492 104.594 140.262 104.074C144.506 101.968 148.999 100.101 153.27 98.0264C154.267 97.5423 155.232 97.1572 156.204 96.6035Z" fill="#585858"/>
<path d="M158.621 102.776L158.885 102.85C159.637 104.247 160.333 106.067 160.954 107.56C158.941 108.36 155.853 109.946 153.722 110.871C151.712 111.742 146.928 113.748 145.173 114.791L145.051 114.837C144.813 114.688 143.204 110.728 142.953 110.152C144.214 109.644 146.041 108.635 147.369 108.018C151.129 106.291 154.879 104.544 158.621 102.776Z" fill="#585858"/>
<path d="M161.199 108.838L161.445 108.931C162.19 110.409 162.999 112.119 163.616 113.642C158.299 115.827 153.11 118.295 147.835 120.545L147.727 120.527C147.21 120.077 145.948 116.85 145.48 115.938C150.436 113.883 156.348 111.144 161.199 108.838Z" fill="#585858"/>
<path d="M28.9242 110.938C34.1575 115.261 36.5758 116.559 43.064 118.524C43.0714 118.855 43.0939 119.203 43.127 119.533C43.3646 121.898 43.3414 124.213 43.3209 126.589C42.9475 126.279 42.5096 125.955 42.1225 125.654C37.8621 122.312 33.483 119.136 29.2647 115.741C28.4057 115.05 27.5043 114.306 26.5938 113.692C27.6352 112.656 28.0164 112.007 28.9242 110.938Z" fill="#585858"/>
<path d="M71.9834 45.9795C72.5284 46.2511 77.4463 55.2516 78.1835 56.5907C76.7194 57.7322 75.1589 58.7347 73.65 59.9155L73.479 59.8209C71.3828 56.7696 68.4767 52.3943 66.6602 49.2559C68.4318 48.0261 70.2176 47.1337 71.9834 45.9795Z" fill="#585858"/>
<path d="M166.075 92.0947L166.251 92.1221C166.574 92.3831 168.704 97.7749 169.172 98.6963C166.382 100.06 162.997 101.271 160.431 102.576L160.357 102.597C160.035 102.383 157.78 96.7771 157.445 95.9732C159.569 95.1527 161.543 94.1301 163.633 93.2354C164.477 92.874 165.265 92.5349 166.075 92.0947Z" fill="#585858"/>
<path d="M84.8548 44.8818L84.9166 44.8836C85.5507 45.2266 87.9874 48.4174 88.5422 49.1192C86.5656 50.7357 84.3905 52.0568 82.4051 53.6706C81.4931 54.412 80.4798 54.8879 79.5894 55.6991L79.3396 55.7621C78.9494 55.3979 76.4676 50.9127 75.9844 50.1067C76.562 49.7174 77.2159 49.3621 77.8236 49.0108C80.1652 47.6572 82.4621 46.1408 84.8548 44.8818Z" fill="#585858"/>
<path d="M119.702 99.2422C119.945 99.3465 120.104 99.5139 120.21 99.7559C121.685 103.117 123.042 106.561 124.708 109.835C123.51 110.348 120.703 111.493 119.735 112.126L119.501 112.051C117.981 108.761 116.014 104.792 114.699 101.495C116.099 101.267 118.344 99.9589 119.702 99.2422Z" fill="#585858"/>
<path d="M108.245 68.7891C108.754 69.0222 113.013 73.3237 113.81 74.0524C112.112 75.7731 109.327 77.7067 107.236 78.8543C106.917 79.057 106.806 79.1441 106.428 79.2412C105.782 78.9837 102.684 75.2499 101.668 74.3369C103.358 72.7234 106.278 70.549 108.245 68.7891Z" fill="#585858"/>
<path d="M101.708 62.4834C102.393 62.7317 106.451 66.9992 107.321 67.8251C105.482 69.7059 103.155 71.4115 101.151 73.2203C101.087 73.2621 100.943 73.2683 100.856 73.2796C99.1692 71.1035 97.3687 69.6253 95.6875 67.497C96.5852 66.5794 100.612 63.1792 101.708 62.4834Z" fill="#585858"/>
<path d="M77.9556 106.304L84.7436 113.957C83.904 114.842 81.3759 116.637 80.0763 117.858L79.8222 117.894C79.3281 117.563 76.8733 114.576 76.1917 113.861C75.2937 112.919 74.22 111.812 73.2773 110.862C74.7282 109.305 76.4119 107.8 77.9556 106.304Z" fill="#585858"/>
<path d="M108.312 57.5081C109.878 56.4317 112.818 54.2334 114.194 53.0684C114.469 53.952 115.009 54.7261 115.457 55.5584C116.156 55.8454 119.174 57.3144 119.456 57.8215L119.398 58.3087C119.071 59.729 118.725 62.3184 118.49 63.82C117.243 63.3128 115.946 63.25 114.664 62.6198C112.421 61.5165 110.258 58.7462 108.312 57.5081Z" fill="#585858"/>
<path d="M108.138 27.3857L108.175 27.3917C108.546 27.7593 109.214 30.9387 109.401 31.681C108.475 31.9999 107.083 32.6647 106.128 33.0726C104.465 33.7709 102.8 34.46 101.13 35.1401C100.414 35.4393 98.6039 36.4346 97.979 36.0891C97.3928 34.7818 96.8245 33.904 95.9805 32.7527C96.3011 32.5727 96.624 32.4446 96.9641 32.3056C100.726 30.769 104.378 28.9156 108.138 27.3857Z" fill="#585858"/>
<path d="M17.1014 42.7832C18.4065 43.9 23.8773 47.2854 25.3934 48.1194C24.8251 48.9054 23.317 51.4748 22.4531 51.6207C17.1748 50.511 18.0039 49.6281 13.7578 47.195C14.8619 45.9353 16.1437 44.1576 17.1014 42.7832Z" fill="#585858"/>
<path d="M109.467 33.1543C109.836 33.4219 110.564 36.986 110.693 37.6375C109.382 37.9699 101.588 41.3227 101.232 41.2988L101.025 40.9956C100.4 39.7882 99.6932 38.6246 98.9102 37.513C100.738 36.6479 102.184 36.0592 104.05 35.2996C105.99 34.5101 107.409 33.778 109.467 33.1543Z" fill="#585858"/>
<path d="M81.3837 40.4316C81.7198 40.6827 83.5443 43.1191 84.2476 43.7743C82.7323 44.3842 81.5631 45.3229 80.1855 46.1356C78.748 46.9838 77.4285 47.7497 76.033 48.67C75.727 48.8692 75.8688 48.8218 75.4807 48.827C74.7627 48.2578 73.7593 46.0633 73.3047 45.1597C74.2537 44.6798 75.7436 43.7284 76.7124 43.1715C77.8769 42.5022 80.509 41.2559 81.3837 40.4316Z" fill="#585858"/>
<path d="M94.6148 68.2773C95.0546 68.5697 99.3782 73.533 99.8968 74.1805C98.6391 75.0769 97.3132 76.4021 96.1622 77.1655C94.3778 75.3111 92.5472 73.5021 90.6719 71.7398C91.612 70.8274 93.6005 69.0612 94.6148 68.2773Z" fill="#585858"/>
<path d="M122.318 48.9453L122.363 48.9706C122.452 49.3294 121.682 50.2621 121.433 50.8433C120.704 52.5393 120.032 54.423 119.722 56.239C118.731 55.8108 117.43 55.5047 116.688 54.7246C116.106 54.0637 114.777 50.858 114.997 50.1035C117.449 50.0178 119.925 49.4419 122.318 48.9453Z" fill="#585858"/>
<path d="M18.2938 70.5693C18.4352 70.5882 18.3643 70.5648 18.489 70.7205C18.1539 71.5147 16.7068 73.6131 16.1646 74.3102C15.8507 74.0127 15.5256 73.6089 15.2409 73.274C14.8219 72.7404 14.3952 72.2131 13.9609 71.6919C15.1061 71.5065 17.0737 70.8925 18.2938 70.5693Z" fill="#585858"/>
<g filter="url(#filter0_d_13859_96396)">
<path d="M16 84.333C16 83.7807 16.4477 83.333 17 83.333H31C31.5523 83.333 32 83.7807 32 84.333V91.893C32 92.2658 31.7926 92.6077 31.4619 92.7799L24.4619 96.4257C24.1724 96.5765 23.8276 96.5765 23.5381 96.4257L16.5381 92.7799C16.2074 92.6077 16 92.2658 16 91.893V84.333Z" fill="#1A9375"/>
<path d="M31 82.833C31.8284 82.833 32.5 83.5046 32.5 84.333V91.8926C32.5 92.4517 32.1892 92.9653 31.6934 93.2236L24.6934 96.8691C24.2591 97.0953 23.7409 97.0953 23.3066 96.8691L16.3066 93.2236C15.8108 92.9653 15.5 92.4517 15.5 91.8926V84.333L15.5078 84.1797C15.5846 83.4233 16.2233 82.833 17 82.833H31Z" stroke="white"/>
</g>
<g filter="url(#filter1_d_13859_96396)">
<path d="M26 64.333C26 63.7807 26.4477 63.333 27 63.333H41C41.5523 63.333 42 63.7807 42 64.333V71.893C42 72.2658 41.7926 72.6077 41.4619 72.7799L34.4619 76.4257C34.1724 76.5765 33.8276 76.5765 33.5381 76.4257L26.5381 72.7799C26.2074 72.6077 26 72.2658 26 71.893V64.333Z" fill="#1A9375"/>
<path d="M41 62.833C41.8284 62.833 42.5 63.5046 42.5 64.333V71.8926C42.5 72.4517 42.1892 72.9653 41.6934 73.2236L34.6934 76.8691C34.2591 77.0953 33.7409 77.0953 33.3066 76.8691L26.3066 73.2236C25.8108 72.9653 25.5 72.4517 25.5 71.8926V64.333L25.5078 64.1797C25.5846 63.4233 26.2233 62.833 27 62.833H41Z" stroke="white"/>
</g>
<g filter="url(#filter2_d_13859_96396)">
<path d="M43 101.333C43 100.781 43.4477 100.333 44 100.333H58C58.5523 100.333 59 100.781 59 101.333V108.893C59 109.266 58.7926 109.608 58.4619 109.78L51.4619 113.426C51.1724 113.577 50.8276 113.577 50.5381 113.426L43.5381 109.78C43.2074 109.608 43 109.266 43 108.893V101.333Z" fill="#1A9375"/>
<path d="M58 99.833C58.8284 99.833 59.5 100.505 59.5 101.333V108.893C59.5 109.452 59.1892 109.965 58.6934 110.224L51.6934 113.869C51.2591 114.095 50.7409 114.095 50.3066 113.869L43.3066 110.224C42.8108 109.965 42.5 109.452 42.5 108.893V101.333L42.5078 101.18C42.5846 100.423 43.2233 99.833 44 99.833H58Z" stroke="white"/>
</g>
<g filter="url(#filter3_d_13859_96396)">
<path d="M66 87.333C66 86.7807 66.4477 86.333 67 86.333H81C81.5523 86.333 82 86.7807 82 87.333V94.893C82 95.2658 81.7926 95.6077 81.4619 95.7799L74.4619 99.4257C74.1724 99.5765 73.8276 99.5765 73.5381 99.4257L66.5381 95.7799C66.2074 95.6077 66 95.2658 66 94.893V87.333Z" fill="#1A9375"/>
<path d="M81 85.833C81.8284 85.833 82.5 86.5046 82.5 87.333V94.8926C82.5 95.4517 82.1892 95.9653 81.6934 96.2236L74.6934 99.8691C74.2591 100.095 73.7409 100.095 73.3066 99.8691L66.3066 96.2236C65.8108 95.9653 65.5 95.4517 65.5 94.8926V87.333L65.5078 87.1797C65.5846 86.4233 66.2233 85.833 67 85.833H81Z" stroke="white"/>
</g>
<g filter="url(#filter4_d_13859_96396)">
<path d="M58 66.333C58 65.7807 58.4477 65.333 59 65.333H73C73.5523 65.333 74 65.7807 74 66.333V73.893C74 74.2658 73.7926 74.6077 73.4619 74.7799L66.4619 78.4257C66.1724 78.5765 65.8276 78.5765 65.5381 78.4257L58.5381 74.7799C58.2074 74.6077 58 74.2658 58 73.893V66.333Z" fill="#1A9375"/>
<path d="M73 64.833C73.8284 64.833 74.5 65.5046 74.5 66.333V73.8926C74.5 74.4517 74.1892 74.9653 73.6934 75.2236L66.6934 78.8691C66.2591 79.0953 65.7409 79.0953 65.3066 78.8691L58.3066 75.2236C57.8108 74.9653 57.5 74.4517 57.5 73.8926V66.333L57.5078 66.1797C57.5846 65.4233 58.2233 64.833 59 64.833H73Z" stroke="white"/>
</g>
<g filter="url(#filter5_d_13859_96396)">
<path d="M106 55.333C106 54.7807 106.448 54.333 107 54.333H121C121.552 54.333 122 54.7807 122 55.333V62.893C122 63.2658 121.793 63.6077 121.462 63.7799L114.462 67.4257C114.172 67.5765 113.828 67.5765 113.538 67.4257L106.538 63.7799C106.207 63.6077 106 63.2658 106 62.893V55.333Z" fill="#E7B413"/>
<path d="M121 53.833C121.828 53.833 122.5 54.5046 122.5 55.333V62.8926C122.5 63.4517 122.189 63.9653 121.693 64.2236L114.693 67.8691C114.259 68.0953 113.741 68.0953 113.307 67.8691L106.307 64.2236C105.811 63.9653 105.5 63.4517 105.5 62.8926V55.333L105.508 55.1797C105.585 54.4233 106.223 53.833 107 53.833H121Z" stroke="white"/>
</g>
<g filter="url(#filter6_d_13859_96396)">
<path d="M139 81.333C139 80.7807 139.448 80.333 140 80.333H154C154.552 80.333 155 80.7807 155 81.333V88.893C155 89.2658 154.793 89.6077 154.462 89.7799L147.462 93.4258C147.172 93.5765 146.828 93.5765 146.538 93.4257L139.538 89.7799C139.207 89.6077 139 89.2658 139 88.893V81.333Z" fill="#E7B413"/>
<path d="M154 79.833C154.828 79.833 155.5 80.5046 155.5 81.333V88.8926C155.5 89.4517 155.189 89.9653 154.693 90.2236L147.693 93.8691C147.259 94.0953 146.741 94.0953 146.307 93.8691L139.307 90.2236C138.811 89.9653 138.5 89.4517 138.5 88.8926V81.333C138.5 80.5046 139.172 79.833 140 79.833H154Z" stroke="white"/>
</g>
<g filter="url(#filter7_d_13859_96396)">
<path d="M98 103.333C98 102.781 98.4477 102.333 99 102.333H113C113.552 102.333 114 102.781 114 103.333V110.893C114 111.266 113.793 111.608 113.462 111.78L106.462 115.426C106.172 115.577 105.828 115.577 105.538 115.426L98.5381 111.78C98.2074 111.608 98 111.266 98 110.893V103.333Z" fill="#E7B413"/>
<path d="M113 101.833C113.828 101.833 114.5 102.505 114.5 103.333V110.893C114.5 111.452 114.189 111.965 113.693 112.224L106.693 115.869C106.259 116.095 105.741 116.095 105.307 115.869L98.3066 112.224C97.8108 111.965 97.5 111.452 97.5 110.893V103.333L97.5078 103.18C97.5846 102.423 98.2233 101.833 99 101.833H113Z" stroke="white"/>
</g>
<g filter="url(#filter8_d_13859_96396)">
<path d="M147 38.333C147 37.7807 147.448 37.333 148 37.333H162C162.552 37.333 163 37.7807 163 38.333V45.893C163 46.2658 162.793 46.6077 162.462 46.7799L155.462 50.4257C155.172 50.5765 154.828 50.5765 154.538 50.4257L147.538 46.7799C147.207 46.6077 147 46.2658 147 45.893V38.333Z" fill="#E74341"/>
<path d="M162 36.833C162.828 36.833 163.5 37.5046 163.5 38.333V45.8926C163.5 46.4517 163.189 46.9653 162.693 47.2236L155.693 50.8691C155.259 51.0953 154.741 51.0953 154.307 50.8691L147.307 47.2236C146.811 46.9653 146.5 46.4517 146.5 45.8926V38.333L146.508 38.1797C146.585 37.4233 147.223 36.833 148 36.833H162Z" stroke="white"/>
</g>
</g>
<defs>
<filter id="filter0_d_13859_96396" x="13" y="82.333" width="22" height="19.2061" filterUnits="userSpaceOnUse" color-interpolation-filters="sRGB">
<feFlood flood-opacity="0" result="BackgroundImageFix"/>
<feColorMatrix in="SourceAlpha" type="matrix" values="0 0 0 0 0 0 0 0 0 0 0 0 0 0 0 0 0 0 127 0" result="hardAlpha"/>
<feOffset dy="2"/>
<feGaussianBlur stdDeviation="1"/>
<feComposite in2="hardAlpha" operator="out"/>
<feColorMatrix type="matrix" values="0 0 0 0 0 0 0 0 0 0 0 0 0 0 0 0 0 0 0.25 0"/>
<feBlend mode="normal" in2="BackgroundImageFix" result="effect1_dropShadow_13859_96396"/>
<feBlend mode="normal" in="SourceGraphic" in2="effect1_dropShadow_13859_96396" result="shape"/>
</filter>
<filter id="filter1_d_13859_96396" x="23" y="62.333" width="22" height="19.2061" filterUnits="userSpaceOnUse" color-interpolation-filters="sRGB">
<feFlood flood-opacity="0" result="BackgroundImageFix"/>
<feColorMatrix in="SourceAlpha" type="matrix" values="0 0 0 0 0 0 0 0 0 0 0 0 0 0 0 0 0 0 127 0" result="hardAlpha"/>
<feOffset dy="2"/>
<feGaussianBlur stdDeviation="1"/>
<feComposite in2="hardAlpha" operator="out"/>
<feColorMatrix type="matrix" values="0 0 0 0 0 0 0 0 0 0 0 0 0 0 0 0 0 0 0.25 0"/>
<feBlend mode="normal" in2="BackgroundImageFix" result="effect1_dropShadow_13859_96396"/>
<feBlend mode="normal" in="SourceGraphic" in2="effect1_dropShadow_13859_96396" result="shape"/>
</filter>
<filter id="filter2_d_13859_96396" x="40" y="99.333" width="22" height="19.2061" filterUnits="userSpaceOnUse" color-interpolation-filters="sRGB">
<feFlood flood-opacity="0" result="BackgroundImageFix"/>
<feColorMatrix in="SourceAlpha" type="matrix" values="0 0 0 0 0 0 0 0 0 0 0 0 0 0 0 0 0 0 127 0" result="hardAlpha"/>
<feOffset dy="2"/>
<feGaussianBlur stdDeviation="1"/>
<feComposite in2="hardAlpha" operator="out"/>
<feColorMatrix type="matrix" values="0 0 0 0 0 0 0 0 0 0 0 0 0 0 0 0 0 0 0.25 0"/>
<feBlend mode="normal" in2="BackgroundImageFix" result="effect1_dropShadow_13859_96396"/>
<feBlend mode="normal" in="SourceGraphic" in2="effect1_dropShadow_13859_96396" result="shape"/>
</filter>
<filter id="filter3_d_13859_96396" x="63" y="85.333" width="22" height="19.2061" filterUnits="userSpaceOnUse" color-interpolation-filters="sRGB">
<feFlood flood-opacity="0" result="BackgroundImageFix"/>
<feColorMatrix in="SourceAlpha" type="matrix" values="0 0 0 0 0 0 0 0 0 0 0 0 0 0 0 0 0 0 127 0" result="hardAlpha"/>
<feOffset dy="2"/>
<feGaussianBlur stdDeviation="1"/>
<feComposite in2="hardAlpha" operator="out"/>
<feColorMatrix type="matrix" values="0 0 0 0 0 0 0 0 0 0 0 0 0 0 0 0 0 0 0.25 0"/>
<feBlend mode="normal" in2="BackgroundImageFix" result="effect1_dropShadow_13859_96396"/>
<feBlend mode="normal" in="SourceGraphic" in2="effect1_dropShadow_13859_96396" result="shape"/>
</filter>
<filter id="filter4_d_13859_96396" x="55" y="64.333" width="22" height="19.2061" filterUnits="userSpaceOnUse" color-interpolation-filters="sRGB">
<feFlood flood-opacity="0" result="BackgroundImageFix"/>
<feColorMatrix in="SourceAlpha" type="matrix" values="0 0 0 0 0 0 0 0 0 0 0 0 0 0 0 0 0 0 127 0" result="hardAlpha"/>
<feOffset dy="2"/>
<feGaussianBlur stdDeviation="1"/>
<feComposite in2="hardAlpha" operator="out"/>
<feColorMatrix type="matrix" values="0 0 0 0 0 0 0 0 0 0 0 0 0 0 0 0 0 0 0.25 0"/>
<feBlend mode="normal" in2="BackgroundImageFix" result="effect1_dropShadow_13859_96396"/>
<feBlend mode="normal" in="SourceGraphic" in2="effect1_dropShadow_13859_96396" result="shape"/>
</filter>
<filter id="filter5_d_13859_96396" x="103" y="53.333" width="22" height="19.2061" filterUnits="userSpaceOnUse" color-interpolation-filters="sRGB">
<feFlood flood-opacity="0" result="BackgroundImageFix"/>
<feColorMatrix in="SourceAlpha" type="matrix" values="0 0 0 0 0 0 0 0 0 0 0 0 0 0 0 0 0 0 127 0" result="hardAlpha"/>
<feOffset dy="2"/>
<feGaussianBlur stdDeviation="1"/>
<feComposite in2="hardAlpha" operator="out"/>
<feColorMatrix type="matrix" values="0 0 0 0 0 0 0 0 0 0 0 0 0 0 0 0 0 0 0.25 0"/>
<feBlend mode="normal" in2="BackgroundImageFix" result="effect1_dropShadow_13859_96396"/>
<feBlend mode="normal" in="SourceGraphic" in2="effect1_dropShadow_13859_96396" result="shape"/>
</filter>
<filter id="filter6_d_13859_96396" x="136" y="79.333" width="22" height="19.2061" filterUnits="userSpaceOnUse" color-interpolation-filters="sRGB">
<feFlood flood-opacity="0" result="BackgroundImageFix"/>
<feColorMatrix in="SourceAlpha" type="matrix" values="0 0 0 0 0 0 0 0 0 0 0 0 0 0 0 0 0 0 127 0" result="hardAlpha"/>
<feOffset dy="2"/>
<feGaussianBlur stdDeviation="1"/>
<feComposite in2="hardAlpha" operator="out"/>
<feColorMatrix type="matrix" values="0 0 0 0 0 0 0 0 0 0 0 0 0 0 0 0 0 0 0.25 0"/>
<feBlend mode="normal" in2="BackgroundImageFix" result="effect1_dropShadow_13859_96396"/>
<feBlend mode="normal" in="SourceGraphic" in2="effect1_dropShadow_13859_96396" result="shape"/>
</filter>
<filter id="filter7_d_13859_96396" x="95" y="101.333" width="22" height="19.2061" filterUnits="userSpaceOnUse" color-interpolation-filters="sRGB">
<feFlood flood-opacity="0" result="BackgroundImageFix"/>
<feColorMatrix in="SourceAlpha" type="matrix" values="0 0 0 0 0 0 0 0 0 0 0 0 0 0 0 0 0 0 127 0" result="hardAlpha"/>
<feOffset dy="2"/>
<feGaussianBlur stdDeviation="1"/>
<feComposite in2="hardAlpha" operator="out"/>
<feColorMatrix type="matrix" values="0 0 0 0 0 0 0 0 0 0 0 0 0 0 0 0 0 0 0.25 0"/>
<feBlend mode="normal" in2="BackgroundImageFix" result="effect1_dropShadow_13859_96396"/>
<feBlend mode="normal" in="SourceGraphic" in2="effect1_dropShadow_13859_96396" result="shape"/>
</filter>
<filter id="filter8_d_13859_96396" x="144" y="36.333" width="22" height="19.2061" filterUnits="userSpaceOnUse" color-interpolation-filters="sRGB">
<feFlood flood-opacity="0" result="BackgroundImageFix"/>
<feColorMatrix in="SourceAlpha" type="matrix" values="0 0 0 0 0 0 0 0 0 0 0 0 0 0 0 0 0 0 127 0" result="hardAlpha"/>
<feOffset dy="2"/>
<feGaussianBlur stdDeviation="1"/>
<feComposite in2="hardAlpha" operator="out"/>
<feColorMatrix type="matrix" values="0 0 0 0 0 0 0 0 0 0 0 0 0 0 0 0 0 0 0.25 0"/>
<feBlend mode="normal" in2="BackgroundImageFix" result="effect1_dropShadow_13859_96396"/>
<feBlend mode="normal" in="SourceGraphic" in2="effect1_dropShadow_13859_96396" result="shape"/>
</filter>
<clipPath id="clip0_13859_96396">
<rect width="176.871" height="129" fill="white"/>
</clipPath>
</defs>
</svg>
