<svg width="20" height="20" viewBox="0 0 20 20" fill="none" xmlns="http://www.w3.org/2000/svg">
<path d="M15.5001 12.5002C14.8251 12.5002 14.2779 11.9405 14.2779 11.2502C14.2779 10.5598 14.8251 10.0002 15.5001 10.0002C16.1751 10.0002 16.7223 10.5598 16.7223 11.2502C16.7223 11.9405 16.1751 12.5002 15.5001 12.5002Z" fill="#111111"/>
<path d="M3.68527 11.2502C3.68527 11.9405 4.23247 12.5002 4.90749 12.5002C5.5825 12.5002 6.12971 11.9405 6.12971 11.2502C6.12971 10.5598 5.5825 10.0002 4.90749 10.0002C4.23247 10.0002 3.68527 10.5598 3.68527 11.2502Z" fill="#111111"/>
<path fill-rule="evenodd" clip-rule="evenodd" d="M12.5336 3.3335C13.8957 3.3335 15.1678 4.02975 15.9234 5.18891L16.8868 6.66683H18.3519C18.8019 6.66683 19.1667 7.03993 19.1667 7.50016C19.1667 7.9604 18.8019 8.3335 18.3519 8.3335H17.9732L18.4825 9.11483C18.9287 9.79928 19.1667 10.6035 19.1667 11.4261V15.0002C19.1667 15.9206 18.4371 16.6668 17.5371 16.6668H15.0927C14.1927 16.6668 13.463 15.9206 13.463 15.0002V14.5835H6.53712V15.0002C6.53712 15.9206 5.80751 16.6668 4.90749 16.6668H2.46304C1.56302 16.6668 0.833414 15.9206 0.833414 15.0002V11.4261C0.833414 10.6035 1.07149 9.79928 1.51765 9.11483L2.02697 8.3335H1.64823C1.19822 8.3335 0.833414 7.9604 0.833414 7.50016C0.833414 7.03993 1.19822 6.66683 1.64823 6.66683H3.11339L4.07677 5.18891C4.83237 4.02975 6.10442 3.3335 7.46661 3.3335H12.5336ZM14.5675 6.11341C14.1141 5.41792 13.3509 5.00016 12.5336 5.00016H7.46661C6.6493 5.00016 5.88607 5.41792 5.43271 6.11341L4.56384 7.44634C4.85947 7.59736 5.20545 7.69955 5.65331 7.77038C6.53496 7.90982 7.73225 7.91654 9.60882 7.91683H9.98393C11.8605 7.91654 13.0578 7.90982 13.9394 7.77038C14.5432 7.6749 14.9618 7.52243 15.3215 7.27016L14.5675 6.11341ZM10.5683 9.58739C10.3102 9.58545 10.0527 9.58351 9.79638 9.58351C9.54005 9.58351 9.2826 9.58545 9.0245 9.58739C7.81659 9.59646 6.59411 9.60565 5.40426 9.41747C4.72852 9.3106 4.16286 9.13189 3.6556 8.83965L2.87359 10.0393C2.60589 10.45 2.46304 10.9325 2.46304 11.4261V15.0002H4.90749V13.9585C4.90749 13.3832 5.36349 12.9168 5.92601 12.9168H14.0742C14.6367 12.9168 15.0927 13.3832 15.0927 13.9585V15.0002H17.5371V11.4261C17.5371 10.9325 17.3943 10.45 17.1266 10.0393L16.2255 8.65693C15.6447 9.06003 14.995 9.28992 14.1885 9.41747C12.9986 9.60565 11.7762 9.59646 10.5683 9.58739Z" fill="#111111"/>
</svg>
