<?xml version="1.0" encoding="UTF-8"?>
<svg xmlns="http://www.w3.org/2000/svg" viewBox="88 23 50 55" width="48" height="48" fill="none">
<g filter="url(#filter0_di_mm_nd)">
<rect x="97" y="28" width="32" height="32" rx="4" fill="white"/>
<rect x="96" y="27" width="34" height="34" rx="5" stroke="#DCDCDC" stroke-width="2"/>
</g>
<path d="M107.609 48.304C107.587 48.3253 107.577 48.3467 107.577 48.368C107.587 48.3893 107.609 48.4 107.641 48.4H112.201C112.254 48.4 112.297 48.4213 112.329 48.464C112.371 48.496 112.393 48.5387 112.393 48.592V49.808C112.393 49.8613 112.371 49.9093 112.329 49.952C112.297 49.984 112.254 50 112.201 50H105.321C105.267 50 105.219 49.984 105.177 49.952C105.145 49.9093 105.129 49.8613 105.129 49.808V48.656C105.129 48.56 105.161 48.48 105.225 48.416C106.035 47.552 106.974 46.4907 108.041 45.232L108.793 44.352C109.774 43.2107 110.265 42.3467 110.265 41.76C110.265 41.3227 110.11 40.9653 109.801 40.688C109.491 40.4107 109.091 40.272 108.601 40.272C108.11 40.272 107.71 40.4107 107.401 40.688C107.102 40.9653 106.953 41.3333 106.953 41.792V42.208C106.953 42.2613 106.931 42.3093 106.889 42.352C106.857 42.384 106.814 42.4 106.761 42.4H105.273C105.219 42.4 105.171 42.384 105.129 42.352C105.097 42.3093 105.081 42.2613 105.081 42.208V41.52C105.102 40.944 105.267 40.4427 105.577 40.016C105.886 39.5893 106.302 39.2587 106.825 39.024C107.358 38.7893 107.95 38.672 108.601 38.672C109.315 38.672 109.939 38.8053 110.473 39.072C111.006 39.3387 111.417 39.7067 111.705 40.176C111.993 40.6347 112.137 41.152 112.137 41.728C112.137 42.6027 111.673 43.6107 110.745 44.752C110.233 45.392 109.39 46.352 108.217 47.632L107.609 48.304ZM120.581 45.152C120.816 45.6213 120.933 46.16 120.933 46.768C120.933 47.408 120.795 47.9893 120.517 48.512C120.24 49.0133 119.835 49.408 119.301 49.696C118.768 49.984 118.139 50.128 117.413 50.128C116.699 50.128 116.064 49.9893 115.509 49.712C114.955 49.424 114.539 49.008 114.261 48.464C113.984 47.9627 113.845 47.392 113.845 46.752C113.845 46.176 113.968 45.632 114.213 45.12C114.427 44.6827 114.731 44.352 115.125 44.128C115.179 44.096 115.184 44.0587 115.141 44.016C114.875 43.824 114.635 43.5573 114.421 43.216C114.144 42.768 114.005 42.272 114.005 41.728C114.005 41.056 114.203 40.4533 114.597 39.92C114.885 39.504 115.275 39.184 115.765 38.96C116.256 38.7253 116.805 38.608 117.413 38.608C118.043 38.608 118.592 38.7253 119.061 38.96C119.541 39.184 119.925 39.504 120.213 39.92C120.587 40.464 120.773 41.0667 120.773 41.728C120.773 42.3147 120.629 42.8267 120.341 43.264C120.139 43.5627 119.904 43.808 119.637 44C119.595 44.0427 119.595 44.08 119.637 44.112C120.043 44.3467 120.357 44.6933 120.581 45.152ZM116.037 41.024C115.909 41.3013 115.845 41.5467 115.845 41.76C115.845 42.1227 115.936 42.448 116.117 42.736C116.373 43.1733 116.8 43.392 117.397 43.392C117.973 43.392 118.411 43.168 118.709 42.72C118.869 42.4853 118.949 42.16 118.949 41.744C118.949 41.5093 118.891 41.264 118.773 41.008C118.635 40.7627 118.448 40.5707 118.213 40.432C117.979 40.2827 117.701 40.208 117.381 40.208C117.083 40.208 116.816 40.2827 116.581 40.432C116.347 40.5707 116.165 40.768 116.037 41.024ZM118.725 47.872C118.949 47.5627 119.061 47.1413 119.061 46.608C119.061 46.1173 118.976 45.7333 118.805 45.456C118.539 44.9653 118.069 44.72 117.397 44.72C116.768 44.72 116.309 44.9547 116.021 45.424C115.84 45.712 115.749 46.112 115.749 46.624C115.749 47.1147 115.845 47.5147 116.037 47.824C116.325 48.2933 116.784 48.528 117.413 48.528C118.011 48.528 118.448 48.3093 118.725 47.872Z" fill="#126550"/>
<defs>
<filter id="filter0_di_mm_nd" x="91" y="26" width="44" height="44" filterUnits="userSpaceOnUse" color-interpolation-filters="sRGB">
<feFlood flood-opacity="0" result="BackgroundImageFix"/>
<feColorMatrix in="SourceAlpha" type="matrix" values="0 0 0 0 0 0 0 0 0 0 0 0 0 0 0 0 0 0 127 0" result="hardAlpha"/>
<feOffset dy="4"/>
<feGaussianBlur stdDeviation="2"/>
<feComposite in2="hardAlpha" operator="out"/>
<feColorMatrix type="matrix" values="0 0 0 0 0 0 0 0 0 0 0 0 0 0 0 0 0 0 0.25 0"/>
<feBlend mode="normal" in2="BackgroundImageFix" result="effect1_dropShadow_mm_nd"/>
<feBlend mode="normal" in="SourceGraphic" in2="effect1_dropShadow_mm_nd" result="shape"/>
<feColorMatrix in="SourceAlpha" type="matrix" values="0 0 0 0 0 0 0 0 0 0 0 0 0 0 0 0 0 0 127 0" result="hardAlpha"/>
<feOffset/>
<feGaussianBlur stdDeviation="6"/>
<feComposite in2="hardAlpha" operator="arithmetic" k2="-1" k3="1"/>
<feColorMatrix type="matrix" values="0 0 0 0 0 0 0 0 0 0 0 0 0 0 0 0 0 0 0.15 0"/>
<feBlend mode="normal" in2="shape" result="effect2_innerShadow_mm_nd"/>
</filter>
</defs>
</svg>
