<?xml version="1.0" encoding="UTF-8"?>
<svg xmlns="http://www.w3.org/2000/svg" viewBox="88 431 50 54.2832" width="48" height="48" fill="none">
<g filter="url(#filter8_d_mm_vo)">
<path d="M97 440C97 437.791 98.7909 436 101 436H125C127.209 436 129 437.791 129 440V455.783C129 457.162 128.29 458.444 127.12 459.175L115.12 466.675C113.823 467.486 112.177 467.486 110.88 466.675L98.88 459.175C97.7105 458.444 97 457.162 97 455.783V440Z" fill="#E64B17"/>
<path d="M125 435C127.761 435 130 437.239 130 440V455.783C130 457.507 129.112 459.11 127.65 460.023L115.65 467.523C114.029 468.537 111.971 468.537 110.35 467.523L98.3496 460.023C96.8878 459.11 96.0001 457.507 96 455.783V440C96 437.239 98.2386 435 101 435H125Z" stroke="#AE340B" stroke-width="2"/>
</g>
<path d="M107.499 451.501C108.174 451.501 108.721 450.941 108.721 450.251C108.721 449.56 108.174 449.001 107.499 449.001C106.824 449.001 106.276 449.56 106.276 450.251C106.276 450.941 106.824 451.501 107.499 451.501Z" fill="white"/>
<path d="M119.314 450.251C119.314 450.941 118.766 451.501 118.091 451.501C117.416 451.501 116.869 450.941 116.869 450.251C116.869 449.56 117.416 449.001 118.091 449.001C118.766 449.001 119.314 449.56 119.314 450.251Z" fill="white"/>
<path fill-rule="evenodd" clip-rule="evenodd" d="M110.465 442.334C109.103 442.334 107.831 443.03 107.075 444.189L106.112 445.667H104.647C104.197 445.667 103.832 446.04 103.832 446.501C103.832 446.961 104.197 447.334 104.647 447.334H105.026L104.516 448.115C104.07 448.8 103.832 449.604 103.832 450.427V454.001C103.832 454.921 104.562 455.667 105.462 455.667H107.906C108.806 455.667 109.536 454.921 109.536 454.001V453.584H116.462V454.001C116.462 454.921 117.191 455.667 118.091 455.667H120.536C121.436 455.667 122.165 454.921 122.165 454.001V450.427C122.165 449.604 121.927 448.8 121.481 448.115L120.972 447.334H121.351C121.801 447.334 122.165 446.961 122.165 446.501C122.165 446.04 121.801 445.667 121.351 445.667H119.885L118.922 444.189C118.166 443.03 116.894 442.334 115.532 442.334H110.465ZM108.431 445.114C108.885 444.418 109.648 444.001 110.465 444.001H115.532C116.349 444.001 117.113 444.418 117.566 445.114L118.435 446.447C118.139 446.598 117.793 446.7 117.345 446.771C116.464 446.91 115.267 446.917 113.39 446.917H113.015C111.138 446.917 109.941 446.91 109.059 446.771C108.456 446.675 108.037 446.523 107.677 446.271L108.431 445.114ZM112.43 448.588C112.689 448.586 112.946 448.584 113.202 448.584C113.459 448.584 113.716 448.586 113.974 448.588C115.182 448.597 116.405 448.606 117.595 448.418C118.27 448.311 118.836 448.132 119.343 447.84L120.125 449.04C120.393 449.45 120.536 449.933 120.536 450.427V454.001H118.091V452.959C118.091 452.384 117.635 451.917 117.073 451.917H108.925C108.362 451.917 107.906 452.384 107.906 452.959V454.001H105.462V450.427C105.462 449.933 105.605 449.45 105.872 449.04L106.773 447.657C107.354 448.061 108.004 448.29 108.81 448.418C110 448.606 111.223 448.597 112.43 448.588Z" fill="white"/>
<defs>
<filter id="filter0_di_mm_vo" x="91" y="26" width="44" height="44" filterUnits="userSpaceOnUse" color-interpolation-filters="sRGB">
<feFlood flood-opacity="0" result="BackgroundImageFix"/>
<feColorMatrix in="SourceAlpha" type="matrix" values="0 0 0 0 0 0 0 0 0 0 0 0 0 0 0 0 0 0 127 0" result="hardAlpha"/>
<feOffset dy="4"/>
<feGaussianBlur stdDeviation="2"/>
<feComposite in2="hardAlpha" operator="out"/>
<feColorMatrix type="matrix" values="0 0 0 0 0 0 0 0 0 0 0 0 0 0 0 0 0 0 0.25 0"/>
<feBlend mode="normal" in2="BackgroundImageFix" result="effect1_dropShadow_mm_vo"/>
<feBlend mode="normal" in="SourceGraphic" in2="effect1_dropShadow_mm_vo" result="shape"/>
<feColorMatrix in="SourceAlpha" type="matrix" values="0 0 0 0 0 0 0 0 0 0 0 0 0 0 0 0 0 0 127 0" result="hardAlpha"/>
<feOffset/>
<feGaussianBlur stdDeviation="6"/>
<feComposite in2="hardAlpha" operator="arithmetic" k2="-1" k3="1"/>
<feColorMatrix type="matrix" values="0 0 0 0 0 0 0 0 0 0 0 0 0 0 0 0 0 0 0.15 0"/>
<feBlend mode="normal" in2="shape" result="effect2_innerShadow_mm_vo"/>
</filter>
<filter id="filter1_di_mm_vo" x="91" y="94" width="44" height="44" filterUnits="userSpaceOnUse" color-interpolation-filters="sRGB">
<feFlood flood-opacity="0" result="BackgroundImageFix"/>
<feColorMatrix in="SourceAlpha" type="matrix" values="0 0 0 0 0 0 0 0 0 0 0 0 0 0 0 0 0 0 127 0" result="hardAlpha"/>
<feOffset dy="4"/>
<feGaussianBlur stdDeviation="2"/>
<feComposite in2="hardAlpha" operator="out"/>
<feColorMatrix type="matrix" values="0 0 0 0 0 0 0 0 0 0 0 0 0 0 0 0 0 0 0.25 0"/>
<feBlend mode="normal" in2="BackgroundImageFix" result="effect1_dropShadow_mm_vo"/>
<feBlend mode="normal" in="SourceGraphic" in2="effect1_dropShadow_mm_vo" result="shape"/>
<feColorMatrix in="SourceAlpha" type="matrix" values="0 0 0 0 0 0 0 0 0 0 0 0 0 0 0 0 0 0 127 0" result="hardAlpha"/>
<feOffset/>
<feGaussianBlur stdDeviation="6"/>
<feComposite in2="hardAlpha" operator="arithmetic" k2="-1" k3="1"/>
<feColorMatrix type="matrix" values="0 0 0 0 0 0 0 0 0 0 0 0 0 0 0 0 0 0 0.15 0"/>
<feBlend mode="normal" in2="shape" result="effect2_innerShadow_mm_vo"/>
</filter>
<filter id="filter2_di_mm_vo" x="92" y="514" width="44" height="44" filterUnits="userSpaceOnUse" color-interpolation-filters="sRGB">
<feFlood flood-opacity="0" result="BackgroundImageFix"/>
<feColorMatrix in="SourceAlpha" type="matrix" values="0 0 0 0 0 0 0 0 0 0 0 0 0 0 0 0 0 0 127 0" result="hardAlpha"/>
<feOffset dy="4"/>
<feGaussianBlur stdDeviation="2"/>
<feComposite in2="hardAlpha" operator="out"/>
<feColorMatrix type="matrix" values="0 0 0 0 0 0 0 0 0 0 0 0 0 0 0 0 0 0 0.25 0"/>
<feBlend mode="normal" in2="BackgroundImageFix" result="effect1_dropShadow_mm_vo"/>
<feBlend mode="normal" in="SourceGraphic" in2="effect1_dropShadow_mm_vo" result="shape"/>
<feColorMatrix in="SourceAlpha" type="matrix" values="0 0 0 0 0 0 0 0 0 0 0 0 0 0 0 0 0 0 127 0" result="hardAlpha"/>
<feOffset/>
<feGaussianBlur stdDeviation="6"/>
<feComposite in2="hardAlpha" operator="arithmetic" k2="-1" k3="1"/>
<feColorMatrix type="matrix" values="0 0 0 0 0 0 0 0 0 0 0 0 0 0 0 0 0 0 0.15 0"/>
<feBlend mode="normal" in2="shape" result="effect2_innerShadow_mm_vo"/>
</filter>
<filter id="filter3_di_mm_vo" x="92" y="582" width="44" height="44" filterUnits="userSpaceOnUse" color-interpolation-filters="sRGB">
<feFlood flood-opacity="0" result="BackgroundImageFix"/>
<feColorMatrix in="SourceAlpha" type="matrix" values="0 0 0 0 0 0 0 0 0 0 0 0 0 0 0 0 0 0 127 0" result="hardAlpha"/>
<feOffset dy="4"/>
<feGaussianBlur stdDeviation="2"/>
<feComposite in2="hardAlpha" operator="out"/>
<feColorMatrix type="matrix" values="0 0 0 0 0 0 0 0 0 0 0 0 0 0 0 0 0 0 0.25 0"/>
<feBlend mode="normal" in2="BackgroundImageFix" result="effect1_dropShadow_mm_vo"/>
<feBlend mode="normal" in="SourceGraphic" in2="effect1_dropShadow_mm_vo" result="shape"/>
<feColorMatrix in="SourceAlpha" type="matrix" values="0 0 0 0 0 0 0 0 0 0 0 0 0 0 0 0 0 0 127 0" result="hardAlpha"/>
<feOffset/>
<feGaussianBlur stdDeviation="6"/>
<feComposite in2="hardAlpha" operator="arithmetic" k2="-1" k3="1"/>
<feColorMatrix type="matrix" values="0 0 0 0 0 0 0 0 0 0 0 0 0 0 0 0 0 0 0.15 0"/>
<feBlend mode="normal" in2="shape" result="effect2_innerShadow_mm_vo"/>
</filter>
<filter id="filter4_di_mm_vo" x="91" y="162" width="44" height="44" filterUnits="userSpaceOnUse" color-interpolation-filters="sRGB">
<feFlood flood-opacity="0" result="BackgroundImageFix"/>
<feColorMatrix in="SourceAlpha" type="matrix" values="0 0 0 0 0 0 0 0 0 0 0 0 0 0 0 0 0 0 127 0" result="hardAlpha"/>
<feOffset dy="4"/>
<feGaussianBlur stdDeviation="2"/>
<feComposite in2="hardAlpha" operator="out"/>
<feColorMatrix type="matrix" values="0 0 0 0 0 0 0 0 0 0 0 0 0 0 0 0 0 0 0.25 0"/>
<feBlend mode="normal" in2="BackgroundImageFix" result="effect1_dropShadow_mm_vo"/>
<feBlend mode="normal" in="SourceGraphic" in2="effect1_dropShadow_mm_vo" result="shape"/>
<feColorMatrix in="SourceAlpha" type="matrix" values="0 0 0 0 0 0 0 0 0 0 0 0 0 0 0 0 0 0 127 0" result="hardAlpha"/>
<feOffset/>
<feGaussianBlur stdDeviation="6"/>
<feComposite in2="hardAlpha" operator="arithmetic" k2="-1" k3="1"/>
<feColorMatrix type="matrix" values="0 0 0 0 0 0 0 0 0 0 0 0 0 0 0 0 0 0 0.15 0"/>
<feBlend mode="normal" in2="shape" result="effect2_innerShadow_mm_vo"/>
</filter>
<filter id="filter5_di_mm_vo" x="91" y="230" width="44" height="44" filterUnits="userSpaceOnUse" color-interpolation-filters="sRGB">
<feFlood flood-opacity="0" result="BackgroundImageFix"/>
<feColorMatrix in="SourceAlpha" type="matrix" values="0 0 0 0 0 0 0 0 0 0 0 0 0 0 0 0 0 0 127 0" result="hardAlpha"/>
<feOffset dy="4"/>
<feGaussianBlur stdDeviation="2"/>
<feComposite in2="hardAlpha" operator="out"/>
<feColorMatrix type="matrix" values="0 0 0 0 0 0 0 0 0 0 0 0 0 0 0 0 0 0 0.25 0"/>
<feBlend mode="normal" in2="BackgroundImageFix" result="effect1_dropShadow_mm_vo"/>
<feBlend mode="normal" in="SourceGraphic" in2="effect1_dropShadow_mm_vo" result="shape"/>
<feColorMatrix in="SourceAlpha" type="matrix" values="0 0 0 0 0 0 0 0 0 0 0 0 0 0 0 0 0 0 127 0" result="hardAlpha"/>
<feOffset/>
<feGaussianBlur stdDeviation="6"/>
<feComposite in2="hardAlpha" operator="arithmetic" k2="-1" k3="1"/>
<feColorMatrix type="matrix" values="0 0 0 0 0 0 0 0 0 0 0 0 0 0 0 0 0 0 0.15 0"/>
<feBlend mode="normal" in2="shape" result="effect2_innerShadow_mm_vo"/>
</filter>
<filter id="filter6_d_mm_vo" x="91" y="366" width="44" height="43.2832" filterUnits="userSpaceOnUse" color-interpolation-filters="sRGB">
<feFlood flood-opacity="0" result="BackgroundImageFix"/>
<feColorMatrix in="SourceAlpha" type="matrix" values="0 0 0 0 0 0 0 0 0 0 0 0 0 0 0 0 0 0 127 0" result="hardAlpha"/>
<feOffset dy="4"/>
<feGaussianBlur stdDeviation="2"/>
<feComposite in2="hardAlpha" operator="out"/>
<feColorMatrix type="matrix" values="0 0 0 0 0 0 0 0 0 0 0 0 0 0 0 0 0 0 0.25 0"/>
<feBlend mode="normal" in2="BackgroundImageFix" result="effect1_dropShadow_mm_vo"/>
<feBlend mode="normal" in="SourceGraphic" in2="effect1_dropShadow_mm_vo" result="shape"/>
</filter>
<filter id="filter7_d_mm_vo" x="91" y="298" width="44" height="43.2832" filterUnits="userSpaceOnUse" color-interpolation-filters="sRGB">
<feFlood flood-opacity="0" result="BackgroundImageFix"/>
<feColorMatrix in="SourceAlpha" type="matrix" values="0 0 0 0 0 0 0 0 0 0 0 0 0 0 0 0 0 0 127 0" result="hardAlpha"/>
<feOffset dy="4"/>
<feGaussianBlur stdDeviation="2"/>
<feComposite in2="hardAlpha" operator="out"/>
<feColorMatrix type="matrix" values="0 0 0 0 0 0 0 0 0 0 0 0 0 0 0 0 0 0 0.25 0"/>
<feBlend mode="normal" in2="BackgroundImageFix" result="effect1_dropShadow_mm_vo"/>
<feBlend mode="normal" in="SourceGraphic" in2="effect1_dropShadow_mm_vo" result="shape"/>
</filter>
<filter id="filter8_d_mm_vo" x="91" y="434" width="44" height="43.2832" filterUnits="userSpaceOnUse" color-interpolation-filters="sRGB">
<feFlood flood-opacity="0" result="BackgroundImageFix"/>
<feColorMatrix in="SourceAlpha" type="matrix" values="0 0 0 0 0 0 0 0 0 0 0 0 0 0 0 0 0 0 127 0" result="hardAlpha"/>
<feOffset dy="4"/>
<feGaussianBlur stdDeviation="2"/>
<feComposite in2="hardAlpha" operator="out"/>
<feColorMatrix type="matrix" values="0 0 0 0 0 0 0 0 0 0 0 0 0 0 0 0 0 0 0.25 0"/>
<feBlend mode="normal" in2="BackgroundImageFix" result="effect1_dropShadow_mm_vo"/>
<feBlend mode="normal" in="SourceGraphic" in2="effect1_dropShadow_mm_vo" result="shape"/>
</filter>
<clipPath id="clip0_mm_vo">
<rect width="24" height="24" fill="white" transform="translate(101 236)"/>
</clipPath>
</defs>
<defs>
<filter id="filter8_d_mm_vo" x="91" y="434" width="44" height="43.2832" filterUnits="userSpaceOnUse" color-interpolation-filters="sRGB">
<feFlood flood-opacity="0" result="BackgroundImageFix"/>
<feColorMatrix in="SourceAlpha" type="matrix" values="0 0 0 0 0 0 0 0 0 0 0 0 0 0 0 0 0 0 127 0" result="hardAlpha"/>
<feOffset dy="4"/>
<feGaussianBlur stdDeviation="2"/>
<feComposite in2="hardAlpha" operator="out"/>
<feColorMatrix type="matrix" values="0 0 0 0 0 0 0 0 0 0 0 0 0 0 0 0 0 0 0.25 0"/>
<feBlend mode="normal" in2="BackgroundImageFix" result="effect1_dropShadow_mm_vo"/>
<feBlend mode="normal" in="SourceGraphic" in2="effect1_dropShadow_mm_vo" result="shape"/>
</filter>
</defs>
</svg>
