<?xml version="1.0" encoding="UTF-8"?>
<svg xmlns="http://www.w3.org/2000/svg" viewBox="88 363 50 54.2832" width="48" height="48" fill="none">
<g filter="url(#filter6_d_mm_vg)">
<path d="M97 372C97 369.791 98.7909 368 101 368H125C127.209 368 129 369.791 129 372V387.783C129 389.162 128.29 390.444 127.12 391.175L115.12 398.675C113.823 399.486 112.177 399.486 110.88 398.675L98.88 391.175C97.7105 390.444 97 389.162 97 387.783V372Z" fill="#E6B117"/>
<path d="M125 367C127.761 367 130 369.239 130 372V387.783C130 389.507 129.112 391.11 127.65 392.023L115.65 399.523C114.029 400.537 111.971 400.537 110.35 399.523L98.3496 392.023C96.8878 391.11 96.0001 389.507 96 387.783V372C96 369.239 98.2386 367 101 367H125Z" stroke="#AF850C" stroke-width="2"/>
</g>
<path d="M107.499 383.501C108.174 383.501 108.721 382.941 108.721 382.251C108.721 381.56 108.174 381.001 107.499 381.001C106.824 381.001 106.276 381.56 106.276 382.251C106.276 382.941 106.824 383.501 107.499 383.501Z" fill="white"/>
<path d="M119.314 382.251C119.314 382.941 118.766 383.501 118.091 383.501C117.416 383.501 116.869 382.941 116.869 382.251C116.869 381.56 117.416 381.001 118.091 381.001C118.766 381.001 119.314 381.56 119.314 382.251Z" fill="white"/>
<path fill-rule="evenodd" clip-rule="evenodd" d="M110.465 374.334C109.103 374.334 107.831 375.03 107.075 376.189L106.112 377.667H104.647C104.197 377.667 103.832 378.04 103.832 378.501C103.832 378.961 104.197 379.334 104.647 379.334H105.026L104.516 380.115C104.07 380.8 103.832 381.604 103.832 382.427V386.001C103.832 386.921 104.562 387.667 105.462 387.667H107.906C108.806 387.667 109.536 386.921 109.536 386.001V385.584H116.462V386.001C116.462 386.921 117.191 387.667 118.091 387.667H120.536C121.436 387.667 122.165 386.921 122.165 386.001V382.427C122.165 381.604 121.927 380.8 121.481 380.115L120.972 379.334H121.351C121.801 379.334 122.165 378.961 122.165 378.501C122.165 378.04 121.801 377.667 121.351 377.667H119.885L118.922 376.189C118.166 375.03 116.894 374.334 115.532 374.334H110.465ZM108.431 377.114C108.885 376.418 109.648 376.001 110.465 376.001H115.532C116.349 376.001 117.113 376.418 117.566 377.114L118.435 378.447C118.139 378.598 117.793 378.7 117.345 378.771C116.464 378.91 115.267 378.917 113.39 378.917H113.015C111.138 378.917 109.941 378.91 109.059 378.771C108.456 378.675 108.037 378.523 107.677 378.271L108.431 377.114ZM112.43 380.588C112.689 380.586 112.946 380.584 113.202 380.584C113.459 380.584 113.716 380.586 113.974 380.588C115.182 380.597 116.405 380.606 117.595 380.418C118.27 380.311 118.836 380.132 119.343 379.84L120.125 381.04C120.393 381.45 120.536 381.933 120.536 382.427V386.001H118.091V384.959C118.091 384.384 117.635 383.917 117.073 383.917H108.925C108.362 383.917 107.906 384.384 107.906 384.959V386.001H105.462V382.427C105.462 381.933 105.605 381.45 105.872 381.04L106.773 379.657C107.354 380.061 108.004 380.29 108.81 380.418C110 380.606 111.223 380.597 112.43 380.588Z" fill="white"/>
<defs>
<filter id="filter6_d_mm_vg" x="91" y="366" width="44" height="43.2832" filterUnits="userSpaceOnUse" color-interpolation-filters="sRGB">
<feFlood flood-opacity="0" result="BackgroundImageFix"/>
<feColorMatrix in="SourceAlpha" type="matrix" values="0 0 0 0 0 0 0 0 0 0 0 0 0 0 0 0 0 0 127 0" result="hardAlpha"/>
<feOffset dy="4"/>
<feGaussianBlur stdDeviation="2"/>
<feComposite in2="hardAlpha" operator="out"/>
<feColorMatrix type="matrix" values="0 0 0 0 0 0 0 0 0 0 0 0 0 0 0 0 0 0 0.25 0"/>
<feBlend mode="normal" in2="BackgroundImageFix" result="effect1_dropShadow_mm_vg"/>
<feBlend mode="normal" in="SourceGraphic" in2="effect1_dropShadow_mm_vg" result="shape"/>
</filter>
</defs>
</svg>
