<?xml version="1.0" encoding="UTF-8"?>
<svg xmlns="http://www.w3.org/2000/svg" viewBox="88 227 50 55" width="48" height="48" fill="none">
<g filter="url(#filter5_di_mm_key)">
<rect x="97" y="232" width="32" height="32" rx="4" fill="#17A5E6"/>
<rect x="96" y="231" width="34" height="34" rx="5" stroke="#007CBE" stroke-width="2"/>
</g>
<g clip-path="url(#clip0_mm_key)">
<path d="M115.733 245.701C116.433 246.401 117.567 246.401 118.267 245.701C118.966 245.001 118.966 243.867 118.267 243.167C117.567 242.468 116.433 242.468 115.733 243.167C115.034 243.867 115.034 245.001 115.733 245.701Z" fill="white"/>
<path fill-rule="evenodd" clip-rule="evenodd" d="M112.566 240C115.015 237.551 118.985 237.551 121.434 240C123.883 242.449 123.883 246.419 121.434 248.868C120.07 250.232 118.234 250.835 116.454 250.681L114.15 252.985C113.982 253.153 113.754 253.247 113.516 253.247L111.878 253.247L111.878 254.885C111.878 255.38 111.477 255.781 110.983 255.781L109.345 255.781L109.345 257.419C109.345 257.914 108.944 258.315 108.449 258.315L104.015 258.315C103.52 258.315 103.119 257.914 103.119 257.419L103.119 252.985C103.119 252.747 103.214 252.52 103.382 252.352L110.753 244.98C110.599 243.2 111.202 241.364 112.566 240ZM120.167 241.267C118.418 239.518 115.582 239.518 113.833 241.267C112.774 242.326 112.355 243.783 112.58 245.16C112.626 245.445 112.533 245.734 112.329 245.938L104.911 253.356L104.911 256.523L107.553 256.523L107.553 254.885C107.553 254.391 107.954 253.989 108.449 253.989L110.087 253.989L110.087 252.352C110.087 251.857 110.488 251.456 110.983 251.456L113.145 251.456L115.496 249.105C115.7 248.901 115.99 248.808 116.274 248.854C117.651 249.079 119.108 248.66 120.167 247.601C121.916 245.852 121.916 243.016 120.167 241.267Z" fill="white"/>
</g>
<defs>
<filter id="filter5_di_mm_key" x="91" y="230" width="44" height="44" filterUnits="userSpaceOnUse" color-interpolation-filters="sRGB">
<feFlood flood-opacity="0" result="BackgroundImageFix"/>
<feColorMatrix in="SourceAlpha" type="matrix" values="0 0 0 0 0 0 0 0 0 0 0 0 0 0 0 0 0 0 127 0" result="hardAlpha"/>
<feOffset dy="4"/>
<feGaussianBlur stdDeviation="2"/>
<feComposite in2="hardAlpha" operator="out"/>
<feColorMatrix type="matrix" values="0 0 0 0 0 0 0 0 0 0 0 0 0 0 0 0 0 0 0.25 0"/>
<feBlend mode="normal" in2="BackgroundImageFix" result="effect1_dropShadow_mm_key"/>
<feBlend mode="normal" in="SourceGraphic" in2="effect1_dropShadow_mm_key" result="shape"/>
<feColorMatrix in="SourceAlpha" type="matrix" values="0 0 0 0 0 0 0 0 0 0 0 0 0 0 0 0 0 0 127 0" result="hardAlpha"/>
<feOffset/>
<feGaussianBlur stdDeviation="6"/>
<feComposite in2="hardAlpha" operator="arithmetic" k2="-1" k3="1"/>
<feColorMatrix type="matrix" values="0 0 0 0 0 0 0 0 0 0 0 0 0 0 0 0 0 0 0.15 0"/>
<feBlend mode="normal" in2="shape" result="effect2_innerShadow_mm_key"/>
</filter><clipPath id="clip0_mm_key">
<rect width="24" height="24" fill="white" transform="translate(101 236)"/>
</clipPath>
</defs>
</svg>
