<?xml version="1.0" encoding="UTF-8"?>
<svg xmlns="http://www.w3.org/2000/svg" viewBox="88 91 50 55" width="48" height="48" fill="none">
<g filter="url(#filter1_di_mm_na)">
<rect x="97" y="96" width="32" height="32" rx="4" fill="#1A9375"/>
<rect x="96" y="95" width="34" height="34" rx="5" stroke="#126550" stroke-width="2"/>
</g>
<path d="M107.609 116.304C107.587 116.325 107.577 116.347 107.577 116.368C107.587 116.389 107.609 116.4 107.641 116.4H112.201C112.254 116.4 112.297 116.421 112.329 116.464C112.371 116.496 112.393 116.539 112.393 116.592V117.808C112.393 117.861 112.371 117.909 112.329 117.952C112.297 117.984 112.254 118 112.201 118H105.321C105.267 118 105.219 117.984 105.177 117.952C105.145 117.909 105.129 117.861 105.129 117.808V116.656C105.129 116.56 105.161 116.48 105.225 116.416C106.035 115.552 106.974 114.491 108.041 113.232L108.793 112.352C109.774 111.211 110.265 110.347 110.265 109.76C110.265 109.323 110.11 108.965 109.801 108.688C109.491 108.411 109.091 108.272 108.601 108.272C108.11 108.272 107.71 108.411 107.401 108.688C107.102 108.965 106.953 109.333 106.953 109.792V110.208C106.953 110.261 106.931 110.309 106.889 110.352C106.857 110.384 106.814 110.4 106.761 110.4H105.273C105.219 110.4 105.171 110.384 105.129 110.352C105.097 110.309 105.081 110.261 105.081 110.208V109.52C105.102 108.944 105.267 108.443 105.577 108.016C105.886 107.589 106.302 107.259 106.825 107.024C107.358 106.789 107.95 106.672 108.601 106.672C109.315 106.672 109.939 106.805 110.473 107.072C111.006 107.339 111.417 107.707 111.705 108.176C111.993 108.635 112.137 109.152 112.137 109.728C112.137 110.603 111.673 111.611 110.745 112.752C110.233 113.392 109.39 114.352 108.217 115.632L107.609 116.304ZM120.581 113.152C120.816 113.621 120.933 114.16 120.933 114.768C120.933 115.408 120.795 115.989 120.517 116.512C120.24 117.013 119.835 117.408 119.301 117.696C118.768 117.984 118.139 118.128 117.413 118.128C116.699 118.128 116.064 117.989 115.509 117.712C114.955 117.424 114.539 117.008 114.261 116.464C113.984 115.963 113.845 115.392 113.845 114.752C113.845 114.176 113.968 113.632 114.213 113.12C114.427 112.683 114.731 112.352 115.125 112.128C115.179 112.096 115.184 112.059 115.141 112.016C114.875 111.824 114.635 111.557 114.421 111.216C114.144 110.768 114.005 110.272 114.005 109.728C114.005 109.056 114.203 108.453 114.597 107.92C114.885 107.504 115.275 107.184 115.765 106.96C116.256 106.725 116.805 106.608 117.413 106.608C118.043 106.608 118.592 106.725 119.061 106.96C119.541 107.184 119.925 107.504 120.213 107.92C120.587 108.464 120.773 109.067 120.773 109.728C120.773 110.315 120.629 110.827 120.341 111.264C120.139 111.563 119.904 111.808 119.637 112C119.595 112.043 119.595 112.08 119.637 112.112C120.043 112.347 120.357 112.693 120.581 113.152ZM116.037 109.024C115.909 109.301 115.845 109.547 115.845 109.76C115.845 110.123 115.936 110.448 116.117 110.736C116.373 111.173 116.8 111.392 117.397 111.392C117.973 111.392 118.411 111.168 118.709 110.72C118.869 110.485 118.949 110.16 118.949 109.744C118.949 109.509 118.891 109.264 118.773 109.008C118.635 108.763 118.448 108.571 118.213 108.432C117.979 108.283 117.701 108.208 117.381 108.208C117.083 108.208 116.816 108.283 116.581 108.432C116.347 108.571 116.165 108.768 116.037 109.024ZM118.725 115.872C118.949 115.563 119.061 115.141 119.061 114.608C119.061 114.117 118.976 113.733 118.805 113.456C118.539 112.965 118.069 112.72 117.397 112.72C116.768 112.72 116.309 112.955 116.021 113.424C115.84 113.712 115.749 114.112 115.749 114.624C115.749 115.115 115.845 115.515 116.037 115.824C116.325 116.293 116.784 116.528 117.413 116.528C118.011 116.528 118.448 116.309 118.725 115.872Z" fill="white"/>
<defs>
<filter id="filter1_di_mm_na" x="91" y="94" width="44" height="44" filterUnits="userSpaceOnUse" color-interpolation-filters="sRGB">
<feFlood flood-opacity="0" result="BackgroundImageFix"/>
<feColorMatrix in="SourceAlpha" type="matrix" values="0 0 0 0 0 0 0 0 0 0 0 0 0 0 0 0 0 0 127 0" result="hardAlpha"/>
<feOffset dy="4"/>
<feGaussianBlur stdDeviation="2"/>
<feComposite in2="hardAlpha" operator="out"/>
<feColorMatrix type="matrix" values="0 0 0 0 0 0 0 0 0 0 0 0 0 0 0 0 0 0 0.25 0"/>
<feBlend mode="normal" in2="BackgroundImageFix" result="effect1_dropShadow_mm_na"/>
<feBlend mode="normal" in="SourceGraphic" in2="effect1_dropShadow_mm_na" result="shape"/>
<feColorMatrix in="SourceAlpha" type="matrix" values="0 0 0 0 0 0 0 0 0 0 0 0 0 0 0 0 0 0 127 0" result="hardAlpha"/>
<feOffset/>
<feGaussianBlur stdDeviation="6"/>
<feComposite in2="hardAlpha" operator="arithmetic" k2="-1" k3="1"/>
<feColorMatrix type="matrix" values="0 0 0 0 0 0 0 0 0 0 0 0 0 0 0 0 0 0 0.15 0"/>
<feBlend mode="normal" in2="shape" result="effect2_innerShadow_mm_na"/>
</filter>
</defs>
</svg>
