<svg width="48" height="50" viewBox="0 0 48 50" fill="none" xmlns="http://www.w3.org/2000/svg">
<g filter="url(#filter0_d_3615_391)">
<path d="M8 12C8 9.79086 9.79086 8 12 8H36C38.2091 8 40 9.79086 40 12V27.783C40 29.1622 39.2895 30.444 38.12 31.175L26.12 38.675C24.8229 39.4857 23.1771 39.4857 21.88 38.675L9.88 31.175C8.71048 30.444 8 29.1622 8 27.783V12Z" fill="#17A5E6"/>
<path d="M36 7C38.7614 7 41 9.23858 41 12V27.7832C40.9999 29.507 40.1122 31.1098 38.6504 32.0234L26.6504 39.5234C25.029 40.5368 22.971 40.5368 21.3496 39.5234L9.34961 32.0234C7.88781 31.1098 7.00007 29.507 7 27.7832V12C7 9.23858 9.23858 7 12 7H36Z" stroke="#007CBE" stroke-width="2"/>
</g>
<g clip-path="url(#clip0_3615_391)">
<path d="M26.2776 19.0839C26.8606 19.6669 27.8059 19.6669 28.3889 19.0839C28.972 18.5008 28.972 17.5556 28.3889 16.9725C27.8059 16.3895 26.8606 16.3895 26.2776 16.9725C25.6945 17.5556 25.6945 18.5008 26.2776 19.0839Z" fill="white"/>
<path fill-rule="evenodd" clip-rule="evenodd" d="M23.6384 14.3333C25.679 12.2927 28.9875 12.2927 31.0281 14.3333C33.0687 16.374 33.0687 19.6824 31.0281 21.7231C29.8915 22.8596 28.3613 23.3626 26.8782 23.2338L24.958 25.154C24.818 25.294 24.6281 25.3726 24.4301 25.3726L23.0653 25.3726L23.0653 26.7375C23.0653 27.1498 22.7311 27.484 22.3188 27.484L20.9539 27.484L20.9539 28.8489C20.9539 29.2611 20.6197 29.5953 20.2075 29.5953L16.5126 29.5953C16.1003 29.5953 15.7661 29.2611 15.7661 28.8489L15.7661 25.154C15.7661 24.956 15.8448 24.7662 15.9848 24.6262L22.1277 18.4832C21.9988 17.0001 22.5018 15.4699 23.6384 14.3333ZM29.9724 15.389C28.5149 13.9314 26.1516 13.9314 24.6941 15.389C23.8114 16.2717 23.4627 17.486 23.6499 18.6332C23.6886 18.8702 23.6108 19.1114 23.441 19.2813L17.2591 25.4632L17.2591 28.1024L19.461 28.1024L19.461 26.7375C19.461 26.3252 19.7952 25.991 20.2075 25.991L21.5723 25.991L21.5723 24.6262C21.5723 24.2139 21.9065 23.8797 22.3188 23.8797L24.1209 23.8797L26.0802 21.9204C26.25 21.7506 26.4912 21.6729 26.7283 21.7116C27.8755 21.8988 29.0898 21.55 29.9724 20.6674C31.43 19.2098 31.43 16.8466 29.9724 15.389Z" fill="white"/>
</g>
<defs>
<filter id="filter0_d_3615_391" x="2" y="6" width="44" height="43.283" filterUnits="userSpaceOnUse" color-interpolation-filters="sRGB">
<feFlood flood-opacity="0" result="BackgroundImageFix"/>
<feColorMatrix in="SourceAlpha" type="matrix" values="0 0 0 0 0 0 0 0 0 0 0 0 0 0 0 0 0 0 127 0" result="hardAlpha"/>
<feOffset dy="4"/>
<feGaussianBlur stdDeviation="2"/>
<feComposite in2="hardAlpha" operator="out"/>
<feColorMatrix type="matrix" values="0 0 0 0 0 0 0 0 0 0 0 0 0 0 0 0 0 0 0.25 0"/>
<feBlend mode="normal" in2="BackgroundImageFix" result="effect1_dropShadow_3615_391"/>
<feBlend mode="normal" in="SourceGraphic" in2="effect1_dropShadow_3615_391" result="shape"/>
</filter>
<clipPath id="clip0_3615_391">
<rect width="20" height="20" fill="white" transform="translate(14 11)"/>
</clipPath>
</defs>
</svg>
