<?xml version="1.0" encoding="UTF-8"?>
<svg xmlns="http://www.w3.org/2000/svg" viewBox="88 295 50 54.2832" width="48" height="48" fill="none">
<g filter="url(#filter7_d_mm_vt)">
<path d="M97 304C97 301.791 98.7909 300 101 300H125C127.209 300 129 301.791 129 304V319.783C129 321.162 128.29 322.444 127.12 323.175L115.12 330.675C113.823 331.486 112.177 331.486 110.88 330.675L98.88 323.175C97.7105 322.444 97 321.162 97 319.783V304Z" fill="#1A9375"/>
<path d="M125 299C127.761 299 130 301.239 130 304V319.783C130 321.507 129.112 323.11 127.65 324.023L115.65 331.523C114.029 332.537 111.971 332.537 110.35 331.523L98.3496 324.023C96.8878 323.11 96.0001 321.507 96 319.783V304C96 301.239 98.2386 299 101 299H125Z" stroke="#126550" stroke-width="2"/>
</g>
<path d="M107.499 315.501C108.174 315.501 108.721 314.941 108.721 314.251C108.721 313.56 108.174 313.001 107.499 313.001C106.824 313.001 106.276 313.56 106.276 314.251C106.276 314.941 106.824 315.501 107.499 315.501Z" fill="white"/>
<path d="M119.314 314.251C119.314 314.941 118.766 315.501 118.091 315.501C117.416 315.501 116.869 314.941 116.869 314.251C116.869 313.56 117.416 313.001 118.091 313.001C118.766 313.001 119.314 313.56 119.314 314.251Z" fill="white"/>
<path fill-rule="evenodd" clip-rule="evenodd" d="M110.465 306.334C109.103 306.334 107.831 307.03 107.075 308.189L106.112 309.667H104.647C104.197 309.667 103.832 310.04 103.832 310.501C103.832 310.961 104.197 311.334 104.647 311.334H105.026L104.516 312.115C104.07 312.8 103.832 313.604 103.832 314.427V318.001C103.832 318.921 104.562 319.667 105.462 319.667H107.906C108.806 319.667 109.536 318.921 109.536 318.001V317.584H116.462V318.001C116.462 318.921 117.191 319.667 118.091 319.667H120.536C121.436 319.667 122.165 318.921 122.165 318.001V314.427C122.165 313.604 121.927 312.8 121.481 312.115L120.972 311.334H121.351C121.801 311.334 122.165 310.961 122.165 310.501C122.165 310.04 121.801 309.667 121.351 309.667H119.885L118.922 308.189C118.166 307.03 116.894 306.334 115.532 306.334H110.465ZM108.431 309.114C108.885 308.418 109.648 308.001 110.465 308.001H115.532C116.349 308.001 117.113 308.418 117.566 309.114L118.435 310.447C118.139 310.598 117.793 310.7 117.345 310.771C116.464 310.91 115.267 310.917 113.39 310.917H113.015C111.138 310.917 109.941 310.91 109.059 310.771C108.456 310.675 108.037 310.523 107.677 310.271L108.431 309.114ZM112.43 312.588C112.689 312.586 112.946 312.584 113.202 312.584C113.459 312.584 113.716 312.586 113.974 312.588C115.182 312.597 116.405 312.606 117.595 312.418C118.27 312.311 118.836 312.132 119.343 311.84L120.125 313.04C120.393 313.45 120.536 313.933 120.536 314.427V318.001H118.091V316.959C118.091 316.384 117.635 315.917 117.073 315.917H108.925C108.362 315.917 107.906 316.384 107.906 316.959V318.001H105.462V314.427C105.462 313.933 105.605 313.45 105.872 313.04L106.773 311.657C107.354 312.061 108.004 312.29 108.81 312.418C110 312.606 111.223 312.597 112.43 312.588Z" fill="white"/>
<defs>
<filter id="filter7_d_mm_vt" x="91" y="298" width="44" height="43.2832" filterUnits="userSpaceOnUse" color-interpolation-filters="sRGB">
<feFlood flood-opacity="0" result="BackgroundImageFix"/>
<feColorMatrix in="SourceAlpha" type="matrix" values="0 0 0 0 0 0 0 0 0 0 0 0 0 0 0 0 0 0 127 0" result="hardAlpha"/>
<feOffset dy="4"/>
<feGaussianBlur stdDeviation="2"/>
<feComposite in2="hardAlpha" operator="out"/>
<feColorMatrix type="matrix" values="0 0 0 0 0 0 0 0 0 0 0 0 0 0 0 0 0 0 0.25 0"/>
<feBlend mode="normal" in2="BackgroundImageFix" result="effect1_dropShadow_mm_vt"/>
<feBlend mode="normal" in="SourceGraphic" in2="effect1_dropShadow_mm_vt" result="shape"/>
</filter>
</defs>
</svg>
