<?xml version="1.0" encoding="UTF-8"?>
<svg xmlns="http://www.w3.org/2000/svg" viewBox="88 159 50 55" width="48" height="48" fill="none">
<g filter="url(#filter4_di_mm_grp)">
<rect x="97" y="164" width="32" height="32" rx="4" fill="#1A9375"/>
<rect x="96" y="163" width="34" height="34" rx="5" stroke="#126550" stroke-width="2"/>
</g>
<path d="M123 175H118V170C118 169.735 117.895 169.48 117.707 169.293C117.52 169.105 117.265 169 117 169H109C108.735 169 108.48 169.105 108.293 169.293C108.105 169.48 108 169.735 108 170V175H103C102.735 175 102.48 175.105 102.293 175.293C102.105 175.48 102 175.735 102 176V190C102 190.265 102.105 190.52 102.293 190.707C102.48 190.895 102.735 191 103 191H123C123.265 191 123.52 190.895 123.707 190.707C123.895 190.52 124 190.265 124 190V176C124 175.735 123.895 175.48 123.707 175.293C123.52 175.105 123.265 175 123 175ZM104 177H108V189H104V177ZM110 176V171H116V189H114V187C114 186.735 113.895 186.48 113.707 186.293C113.52 186.105 113.265 186 113 186C112.735 186 112.48 186.105 112.293 186.293C112.105 186.48 112 186.735 112 187V189H110V176ZM122 189H118V177H122V189ZM114 175H112V173H114V175ZM114 179H112V177H114V179ZM114 183H112V181H114V183ZM105 178H107V180H105V178ZM105 182H107V184H105V182ZM105 186H107V188H105V186ZM121 180H119V178H121V180ZM121 184H119V182H121V184ZM121 188H119V186H121V188Z" fill="white"/>
<defs>
<filter id="filter4_di_mm_grp" x="91" y="162" width="44" height="44" filterUnits="userSpaceOnUse" color-interpolation-filters="sRGB">
<feFlood flood-opacity="0" result="BackgroundImageFix"/>
<feColorMatrix in="SourceAlpha" type="matrix" values="0 0 0 0 0 0 0 0 0 0 0 0 0 0 0 0 0 0 127 0" result="hardAlpha"/>
<feOffset dy="4"/>
<feGaussianBlur stdDeviation="2"/>
<feComposite in2="hardAlpha" operator="out"/>
<feColorMatrix type="matrix" values="0 0 0 0 0 0 0 0 0 0 0 0 0 0 0 0 0 0 0.25 0"/>
<feBlend mode="normal" in2="BackgroundImageFix" result="effect1_dropShadow_mm_grp"/>
<feBlend mode="normal" in="SourceGraphic" in2="effect1_dropShadow_mm_grp" result="shape"/>
<feColorMatrix in="SourceAlpha" type="matrix" values="0 0 0 0 0 0 0 0 0 0 0 0 0 0 0 0 0 0 127 0" result="hardAlpha"/>
<feOffset/>
<feGaussianBlur stdDeviation="6"/>
<feComposite in2="hardAlpha" operator="arithmetic" k2="-1" k3="1"/>
<feColorMatrix type="matrix" values="0 0 0 0 0 0 0 0 0 0 0 0 0 0 0 0 0 0 0.15 0"/>
<feBlend mode="normal" in2="shape" result="effect2_innerShadow_mm_grp"/>
</filter>
</defs>
</svg>
